{"glyphs":{"0":{"ha":772,"x_min":44,"x_max":754,"o":"m 326 -17 q 119 44 194 -17 q 44 272 44 106 q 65 476 44 358 q 217 868 114 767 q 472 969 319 969 q 678 908 603 969 q 754 678 754 846 q 749 585 754 635 q 735 476 744 535 q 581 85 685 186 q 326 -17 478 -17 m 317 85 q 513 188 450 85 q 608 476 575 292 q 624 581 619 532 q 629 669 629 629 q 597 817 629 765 q 482 868 564 868 q 288 765 349 868 q 192 476 226 661 q 175 370 181 419 q 169 281 169 321 q 203 135 169 186 q 317 85 236 85 z "},"1":{"ha":772,"x_min":49,"x_max":663,"o":"m 49 0 l 67 101 l 313 101 l 432 779 l 185 779 l 197 851 q 360 886 261 858 q 538 953 458 914 l 585 953 l 435 101 l 663 101 l 644 0 l 49 0 z "},"2":{"ha":772,"x_min":-17,"x_max":758,"o":"m -17 0 l -10 40 q 76 210 7 136 q 239 345 146 283 q 422 467 332 407 q 571 595 511 528 q 631 749 631 663 q 597 828 631 792 q 474 864 564 864 q 308 810 360 864 q 240 682 256 756 l 229 625 l 107 625 q 230 889 115 808 q 485 969 344 969 q 628 946 567 969 q 724 872 689 922 q 758 740 758 821 q 697 557 758 636 q 542 413 635 478 q 354 289 449 349 q 193 165 260 229 q 153 117 167 139 l 657 117 l 636 0 l -17 0 z "},"3":{"ha":772,"x_min":24,"x_max":764,"o":"m 342 -17 q 104 45 185 -17 q 24 213 24 107 q 25 244 24 226 q 32 281 26 261 l 156 281 q 151 254 153 271 q 149 224 149 238 q 328 85 149 85 q 504 136 429 85 q 579 300 579 188 q 520 406 579 379 q 383 433 461 433 l 283 433 l 301 535 l 406 535 q 563 585 490 535 q 635 738 635 635 q 587 837 635 806 q 472 868 539 868 q 313 815 371 868 q 249 696 256 763 l 247 683 l 124 683 l 125 693 q 241 897 142 825 q 468 969 340 969 q 683 912 603 969 q 764 746 764 854 q 705 584 764 642 q 564 494 646 526 l 563 489 q 665 419 625 468 q 704 292 704 369 q 597 66 704 149 q 342 -17 490 -17 z "},"4":{"ha":772,"x_min":3,"x_max":711,"o":"m 403 0 l 444 235 l 3 235 l 19 338 q 224 640 132 486 q 386 969 315 794 l 522 969 q 394 710 471 842 q 245 476 317 578 q 139 336 174 375 l 463 336 l 517 649 q 563 734 543 694 q 606 828 582 774 l 671 828 l 585 336 l 711 336 l 693 235 l 567 235 l 525 0 l 403 0 z "},"5":{"ha":772,"x_min":19,"x_max":754,"o":"m 317 -17 q 99 49 178 -17 q 19 229 19 114 q 25 296 19 264 l 150 296 q 146 250 146 271 q 191 128 146 172 q 310 83 236 83 q 488 146 406 83 q 569 360 569 208 q 531 476 569 436 q 422 517 492 517 q 292 486 353 517 q 190 407 231 456 l 81 425 l 213 953 l 754 953 l 733 836 l 296 836 l 221 547 q 315 598 258 576 q 451 619 372 619 q 628 558 558 619 q 699 371 699 497 q 586 85 699 186 q 317 -17 474 -17 z "},"6":{"ha":772,"x_min":31,"x_max":729,"o":"m 329 -17 q 110 49 189 -17 q 31 278 31 114 q 47 449 31 350 q 201 855 96 740 q 471 969 307 969 q 668 907 607 969 q 729 747 729 844 q 722 674 729 715 l 597 674 q 601 702 600 689 q 601 728 601 715 q 467 868 601 868 q 277 773 339 868 q 183 514 215 678 q 294 587 231 561 q 426 613 358 613 q 630 541 565 613 q 694 360 694 469 q 585 86 694 189 q 329 -17 475 -17 m 324 85 q 502 165 439 85 q 565 343 565 246 q 528 465 565 417 q 406 513 492 513 q 221 435 288 513 q 154 257 154 358 q 195 133 154 181 q 324 85 236 85 z "},"7":{"ha":772,"x_min":125,"x_max":821,"o":"m 126 0 q 237 318 156 164 q 420 604 318 472 q 615 836 522 736 l 125 836 l 146 953 l 821 953 l 808 879 q 594 655 703 778 q 401 385 486 532 q 279 65 317 239 q 273 33 276 50 q 268 0 269 17 l 126 0 z "},"8":{"ha":772,"x_min":17,"x_max":742,"o":"m 318 -17 q 86 49 156 -17 q 17 213 17 114 q 67 379 17 306 q 218 489 117 453 q 119 665 119 546 q 213 878 119 788 q 464 969 307 969 q 673 905 604 969 q 742 744 742 840 q 697 596 742 664 q 568 489 653 528 q 690 303 690 433 q 597 79 690 175 q 318 -17 504 -17 m 322 85 q 487 135 411 85 q 563 299 563 185 q 383 436 563 436 q 208 378 274 436 q 143 222 143 319 q 322 85 143 85 m 401 538 q 552 588 486 538 q 618 738 618 639 q 460 868 618 868 q 305 815 367 868 q 243 668 243 761 q 401 538 243 538 z "},"9":{"ha":772,"x_min":54,"x_max":753,"o":"m 313 -17 q 115 46 176 -17 q 54 206 54 108 q 61 279 54 238 l 186 279 q 183 251 183 264 q 182 225 182 238 q 317 85 182 85 q 506 180 444 85 q 600 439 568 275 q 489 366 553 392 q 357 340 425 340 q 153 412 218 340 q 89 593 89 483 q 199 867 89 764 q 454 969 308 969 q 674 904 594 969 q 753 675 753 839 q 736 504 753 603 q 582 98 688 213 q 313 -17 476 -17 m 378 440 q 563 517 496 440 q 629 696 629 594 q 588 820 629 772 q 460 868 547 868 q 281 788 344 868 q 218 610 218 707 q 255 488 218 536 q 378 440 292 440 z "},"A":{"ha":926,"x_min":-57,"x_max":851,"o":"m -57 0 l 479 953 l 650 953 l 851 0 l 713 0 l 663 254 l 221 254 l 82 0 l -57 0 m 283 369 l 639 369 l 588 632 q 574 701 581 667 q 560 770 567 736 q 547 839 554 804 l 540 839 q 504 772 522 806 q 467 705 486 739 q 431 638 449 671 l 283 369 z "},"Á":{"ha":926,"x_min":-57,"x_max":851,"o":"m -57 0 l 479 953 l 650 953 l 851 0 l 713 0 l 663 254 l 221 254 l 82 0 l -57 0 m 283 369 l 639 369 l 588 632 q 574 701 581 667 q 560 770 567 736 q 547 839 554 804 l 540 839 q 504 772 522 806 q 467 705 486 739 q 431 638 449 671 l 283 369 m 524 1022 l 674 1206 l 814 1206 l 815 1201 l 643 1022 l 524 1022 z "},"Ă":{"ha":926,"x_min":-57,"x_max":851,"o":"m -57 0 l 479 953 l 650 953 l 851 0 l 713 0 l 663 254 l 221 254 l 82 0 l -57 0 m 283 369 l 639 369 l 588 632 q 574 701 581 667 q 560 770 567 736 q 547 839 554 804 l 540 839 q 504 772 522 806 q 467 705 486 739 q 431 638 449 671 l 283 369 m 585 1043 q 438 1083 478 1043 q 399 1174 399 1124 q 401 1206 399 1194 l 486 1206 q 503 1157 488 1182 q 583 1132 519 1132 q 681 1157 649 1132 q 721 1206 714 1182 l 806 1206 q 783 1144 800 1175 q 735 1090 765 1113 q 671 1056 708 1069 q 585 1043 633 1043 z "},"Ắ":{"ha":926,"x_min":-57,"x_max":851,"o":"m -57 0 l 479 953 l 650 953 l 851 0 l 713 0 l 663 254 l 221 254 l 82 0 l -57 0 m 283 369 l 639 369 l 588 632 q 574 701 581 667 q 560 770 567 736 q 547 839 554 804 l 540 839 q 504 772 522 806 q 467 705 486 739 q 431 638 449 671 l 283 369 m 585 1043 q 438 1083 478 1043 q 399 1174 399 1124 q 401 1206 399 1194 l 486 1206 q 503 1157 488 1182 q 583 1132 519 1132 q 681 1157 649 1132 q 721 1206 714 1182 l 806 1206 q 783 1144 800 1175 q 735 1090 765 1113 q 671 1056 708 1069 q 585 1043 633 1043 m 532 1206 l 682 1389 l 822 1389 l 824 1385 l 651 1206 l 532 1206 z "},"Ặ":{"ha":926,"x_min":-57,"x_max":851,"o":"m -57 0 l 479 953 l 650 953 l 851 0 l 713 0 l 663 254 l 221 254 l 82 0 l -57 0 m 283 369 l 639 369 l 588 632 q 574 701 581 667 q 560 770 567 736 q 547 839 554 804 l 540 839 q 504 772 522 806 q 467 705 486 739 q 431 638 449 671 l 283 369 m 585 1043 q 438 1083 478 1043 q 399 1174 399 1124 q 401 1206 399 1194 l 486 1206 q 503 1157 488 1182 q 583 1132 519 1132 q 681 1157 649 1132 q 721 1206 714 1182 l 806 1206 q 783 1144 800 1175 q 735 1090 765 1113 q 671 1056 708 1069 q 585 1043 633 1043 z "},"Ằ":{"ha":926,"x_min":-57,"x_max":851,"o":"m -57 0 l 479 953 l 650 953 l 851 0 l 713 0 l 663 254 l 221 254 l 82 0 l -57 0 m 283 369 l 639 369 l 588 632 q 574 701 581 667 q 560 770 567 736 q 547 839 554 804 l 540 839 q 504 772 522 806 q 467 705 486 739 q 431 638 449 671 l 283 369 m 585 1043 q 438 1083 478 1043 q 399 1174 399 1124 q 401 1206 399 1194 l 486 1206 q 503 1157 488 1182 q 583 1132 519 1132 q 681 1157 649 1132 q 721 1206 714 1182 l 806 1206 q 783 1144 800 1175 q 735 1090 765 1113 q 671 1056 708 1069 q 585 1043 633 1043 m 556 1206 l 438 1385 l 439 1389 l 572 1389 l 660 1206 l 556 1206 z "},"Ẳ":{"ha":926,"x_min":-57,"x_max":851,"o":"m -57 0 l 479 953 l 650 953 l 851 0 l 713 0 l 663 254 l 221 254 l 82 0 l -57 0 m 283 369 l 639 369 l 588 632 q 574 701 581 667 q 560 770 567 736 q 547 839 554 804 l 540 839 q 504 772 522 806 q 467 705 486 739 q 431 638 449 671 l 283 369 m 585 1043 q 438 1083 478 1043 q 399 1174 399 1124 q 401 1206 399 1194 l 486 1206 q 503 1157 488 1182 q 583 1132 519 1132 q 681 1157 649 1132 q 721 1206 714 1182 l 806 1206 q 783 1144 800 1175 q 735 1090 765 1113 q 671 1056 708 1069 q 585 1043 633 1043 m 553 1206 l 568 1290 l 586 1290 q 631 1321 631 1290 q 592 1340 631 1340 l 508 1340 l 518 1394 q 621 1406 567 1406 q 696 1392 658 1406 q 733 1338 733 1379 q 703 1269 733 1292 q 638 1244 674 1247 l 631 1206 l 553 1206 z "},"Ẵ":{"ha":926,"x_min":-57,"x_max":860,"o":"m -57 0 l 479 953 l 650 953 l 851 0 l 713 0 l 663 254 l 221 254 l 82 0 l -57 0 m 283 369 l 639 369 l 588 632 q 574 701 581 667 q 560 770 567 736 q 547 839 554 804 l 540 839 q 504 772 522 806 q 467 705 486 739 q 431 638 449 671 l 283 369 m 585 1043 q 438 1083 478 1043 q 399 1174 399 1124 q 401 1206 399 1194 l 486 1206 q 503 1157 488 1182 q 583 1132 519 1132 q 681 1157 649 1132 q 721 1206 714 1182 l 806 1206 q 783 1144 800 1175 q 735 1090 765 1113 q 671 1056 708 1069 q 585 1043 633 1043 m 381 1283 q 426 1385 390 1342 q 524 1428 461 1428 q 626 1406 582 1428 q 722 1385 669 1385 q 769 1428 758 1385 l 860 1428 q 814 1326 850 1369 q 715 1283 778 1283 q 613 1305 657 1283 q 517 1326 569 1326 q 469 1283 481 1326 l 381 1283 z "},"Ǎ":{"ha":926,"x_min":-57,"x_max":851,"o":"m -57 0 l 479 953 l 650 953 l 851 0 l 713 0 l 663 254 l 221 254 l 82 0 l -57 0 m 283 369 l 639 369 l 588 632 q 574 701 581 667 q 560 770 567 736 q 547 839 554 804 l 540 839 q 504 772 522 806 q 467 705 486 739 q 431 638 449 671 l 283 369 m 525 1018 l 411 1206 l 531 1206 l 593 1096 l 690 1206 l 821 1206 l 642 1018 l 525 1018 z "},"Â":{"ha":926,"x_min":-57,"x_max":851,"o":"m -57 0 l 479 953 l 650 953 l 851 0 l 713 0 l 663 254 l 221 254 l 82 0 l -57 0 m 283 369 l 639 369 l 588 632 q 574 701 581 667 q 560 770 567 736 q 547 839 554 804 l 540 839 q 504 772 522 806 q 467 705 486 739 q 431 638 449 671 l 283 369 m 372 1018 l 551 1206 l 668 1206 l 782 1018 l 663 1018 l 603 1128 l 503 1018 l 372 1018 z "},"Ấ":{"ha":926,"x_min":-57,"x_max":1011,"o":"m -57 0 l 479 953 l 650 953 l 851 0 l 713 0 l 663 254 l 221 254 l 82 0 l -57 0 m 283 369 l 639 369 l 588 632 q 574 701 581 667 q 560 770 567 736 q 547 839 554 804 l 540 839 q 504 772 522 806 q 467 705 486 739 q 431 638 449 671 l 283 369 m 372 1018 l 551 1206 l 668 1206 l 782 1018 l 663 1018 l 603 1128 l 503 1018 l 372 1018 m 719 1154 l 869 1338 l 1010 1338 l 1011 1333 l 839 1154 l 719 1154 z "},"Ậ":{"ha":926,"x_min":-57,"x_max":851,"o":"m -57 0 l 479 953 l 650 953 l 851 0 l 713 0 l 663 254 l 221 254 l 82 0 l -57 0 m 283 369 l 639 369 l 588 632 q 574 701 581 667 q 560 770 567 736 q 547 839 554 804 l 540 839 q 504 772 522 806 q 467 705 486 739 q 431 638 449 671 l 283 369 m 372 1018 l 551 1206 l 668 1206 l 782 1018 l 663 1018 l 603 1128 l 503 1018 l 372 1018 z "},"Ầ":{"ha":926,"x_min":-57,"x_max":886,"o":"m -57 0 l 479 953 l 650 953 l 851 0 l 713 0 l 663 254 l 221 254 l 82 0 l -57 0 m 283 369 l 639 369 l 588 632 q 574 701 581 667 q 560 770 567 736 q 547 839 554 804 l 540 839 q 504 772 522 806 q 467 705 486 739 q 431 638 449 671 l 283 369 m 372 1018 l 551 1206 l 668 1206 l 782 1018 l 663 1018 l 603 1128 l 503 1018 l 372 1018 m 782 1154 l 664 1333 l 665 1338 l 799 1338 l 886 1154 l 782 1154 z "},"Ẩ":{"ha":926,"x_min":-57,"x_max":921,"o":"m -57 0 l 479 953 l 650 953 l 851 0 l 713 0 l 663 254 l 221 254 l 82 0 l -57 0 m 283 369 l 639 369 l 588 632 q 574 701 581 667 q 560 770 567 736 q 547 839 554 804 l 540 839 q 504 772 522 806 q 467 705 486 739 q 431 638 449 671 l 283 369 m 372 1018 l 551 1206 l 668 1206 l 782 1018 l 663 1018 l 603 1128 l 503 1018 l 372 1018 m 740 1154 l 756 1239 l 774 1239 q 818 1269 818 1239 q 779 1289 818 1289 l 696 1289 l 706 1343 q 808 1354 754 1354 q 883 1341 846 1354 q 921 1286 921 1328 q 891 1218 921 1240 q 825 1193 861 1196 l 818 1154 l 740 1154 z "},"Ẫ":{"ha":926,"x_min":-57,"x_max":878,"o":"m -57 0 l 479 953 l 650 953 l 851 0 l 713 0 l 663 254 l 221 254 l 82 0 l -57 0 m 283 369 l 639 369 l 588 632 q 574 701 581 667 q 560 770 567 736 q 547 839 554 804 l 540 839 q 504 772 522 806 q 467 705 486 739 q 431 638 449 671 l 283 369 m 372 1018 l 551 1206 l 668 1206 l 782 1018 l 663 1018 l 603 1128 l 503 1018 l 372 1018 m 399 1283 q 444 1385 408 1342 q 542 1428 479 1428 q 644 1406 600 1428 q 740 1385 688 1385 q 788 1428 776 1385 l 878 1428 q 832 1326 868 1369 q 733 1283 796 1283 q 631 1305 675 1283 q 535 1326 588 1326 q 488 1283 499 1326 l 399 1283 z "},"Ȁ":{"ha":926,"x_min":-57,"x_max":851,"o":"m -57 0 l 479 953 l 650 953 l 851 0 l 713 0 l 663 254 l 221 254 l 82 0 l -57 0 m 283 369 l 639 369 l 588 632 q 574 701 581 667 q 560 770 567 736 q 547 839 554 804 l 540 839 q 504 772 522 806 q 467 705 486 739 q 431 638 449 671 l 283 369 m 647 1022 l 563 1201 l 565 1206 l 700 1206 l 753 1022 l 647 1022 m 454 1022 l 369 1201 l 372 1206 l 507 1206 l 560 1022 l 454 1022 z "},"Ä":{"ha":926,"x_min":-57,"x_max":851,"o":"m -57 0 l 479 953 l 650 953 l 851 0 l 713 0 l 663 254 l 221 254 l 82 0 l -57 0 m 283 369 l 639 369 l 588 632 q 574 701 581 667 q 560 770 567 736 q 547 839 554 804 l 540 839 q 504 772 522 806 q 467 705 486 739 q 431 638 449 671 l 283 369 m 663 1074 l 686 1206 l 807 1206 l 783 1074 l 663 1074 m 403 1074 l 426 1206 l 547 1206 l 524 1074 l 403 1074 z "},"Ạ":{"ha":926,"x_min":-57,"x_max":851,"o":"m -57 0 l 479 953 l 650 953 l 851 0 l 713 0 l 663 254 l 221 254 l 82 0 l -57 0 m 283 369 l 639 369 l 588 632 q 574 701 581 667 q 560 770 567 736 q 547 839 554 804 l 540 839 q 504 772 522 806 q 467 705 486 739 q 431 638 449 671 l 283 369 z "},"À":{"ha":926,"x_min":-57,"x_max":851,"o":"m -57 0 l 479 953 l 650 953 l 851 0 l 713 0 l 663 254 l 221 254 l 82 0 l -57 0 m 283 369 l 639 369 l 588 632 q 574 701 581 667 q 560 770 567 736 q 547 839 554 804 l 540 839 q 504 772 522 806 q 467 705 486 739 q 431 638 449 671 l 283 369 m 532 1022 l 414 1201 l 415 1206 l 549 1206 l 636 1022 l 532 1022 z "},"Ả":{"ha":926,"x_min":-57,"x_max":851,"o":"m -57 0 l 479 953 l 650 953 l 851 0 l 713 0 l 663 254 l 221 254 l 82 0 l -57 0 m 283 369 l 639 369 l 588 632 q 574 701 581 667 q 560 770 567 736 q 547 839 554 804 l 540 839 q 504 772 522 806 q 467 705 486 739 q 431 638 449 671 l 283 369 m 546 1022 l 561 1107 l 579 1107 q 624 1138 624 1107 q 585 1157 624 1157 l 501 1157 l 511 1211 q 614 1222 560 1222 q 689 1209 651 1222 q 726 1154 726 1196 q 697 1086 726 1108 q 631 1061 667 1064 l 624 1022 l 546 1022 z "},"Ȃ":{"ha":926,"x_min":-57,"x_max":851,"o":"m -57 0 l 479 953 l 650 953 l 851 0 l 713 0 l 663 254 l 221 254 l 82 0 l -57 0 m 283 369 l 639 369 l 588 632 q 574 701 581 667 q 560 770 567 736 q 547 839 554 804 l 540 839 q 504 772 522 806 q 467 705 486 739 q 431 638 449 671 l 283 369 m 385 1043 q 443 1153 396 1100 q 615 1206 490 1206 q 752 1163 713 1206 q 792 1068 792 1121 q 789 1043 792 1060 l 704 1043 q 686 1091 706 1065 q 600 1117 667 1117 q 506 1091 533 1117 q 469 1043 479 1065 l 385 1043 z "},"Ā":{"ha":926,"x_min":-57,"x_max":851,"o":"m -57 0 l 479 953 l 650 953 l 851 0 l 713 0 l 663 254 l 221 254 l 82 0 l -57 0 m 283 369 l 639 369 l 588 632 q 574 701 581 667 q 560 770 567 736 q 547 839 554 804 l 540 839 q 504 772 522 806 q 467 705 486 739 q 431 638 449 671 l 283 369 m 382 1072 l 400 1172 l 824 1172 l 806 1072 l 382 1072 z "},"Ą":{"ha":926,"x_min":-57,"x_max":851,"o":"m 710 -253 q 642 -231 675 -253 q 608 -150 608 -208 q 639 -62 608 -99 q 713 0 669 -25 l 663 254 l 221 254 l 82 0 l -57 0 l 479 953 l 650 953 l 851 0 l 817 0 q 754 -47 782 -19 q 726 -106 726 -74 q 778 -162 726 -162 l 822 -162 l 810 -233 q 758 -249 783 -244 q 710 -253 733 -253 m 283 369 l 639 369 l 588 632 q 574 701 581 667 q 560 770 567 736 q 547 839 554 804 l 540 839 q 504 772 522 806 q 467 705 486 739 q 431 638 449 671 l 283 369 z "},"Å":{"ha":926,"x_min":-57,"x_max":851,"o":"m -57 0 l 479 953 l 650 953 l 851 0 l 713 0 l 663 254 l 221 254 l 82 0 l -57 0 m 283 369 l 639 369 l 588 632 q 574 701 581 667 q 560 770 567 736 q 547 839 554 804 l 540 839 q 504 772 522 806 q 467 705 486 739 q 431 638 449 671 l 283 369 m 578 988 q 494 1019 526 988 q 461 1097 461 1050 q 501 1210 461 1165 q 615 1254 542 1254 q 699 1222 667 1254 q 732 1143 732 1190 q 692 1031 732 1075 q 578 988 651 988 m 586 1050 q 647 1075 625 1050 q 668 1133 668 1100 q 607 1192 668 1192 q 546 1166 567 1192 q 525 1107 525 1140 q 586 1050 525 1050 z "},"Ǻ":{"ha":926,"x_min":-57,"x_max":851,"o":"m -57 0 l 469 935 q 442 1008 442 963 q 482 1121 442 1076 q 596 1165 522 1165 q 680 1133 647 1165 q 713 1054 713 1101 q 656 928 713 968 l 851 0 l 713 0 l 663 254 l 221 254 l 82 0 l -57 0 m 283 369 l 639 369 l 588 632 q 574 701 581 667 q 560 770 567 736 q 547 839 554 804 l 540 839 q 504 772 522 806 q 467 705 486 739 q 431 638 449 671 l 283 369 m 567 961 q 627 986 606 961 q 649 1044 649 1011 q 588 1103 649 1103 q 526 1077 547 1103 q 506 1018 506 1051 q 567 961 506 961 m 550 1196 l 700 1379 l 840 1379 l 842 1375 l 669 1196 l 550 1196 z "},"Ã":{"ha":926,"x_min":-57,"x_max":851,"o":"m -57 0 l 479 953 l 650 953 l 851 0 l 713 0 l 663 254 l 221 254 l 82 0 l -57 0 m 283 369 l 639 369 l 588 632 q 574 701 581 667 q 560 770 567 736 q 547 839 554 804 l 540 839 q 504 772 522 806 q 467 705 486 739 q 431 638 449 671 l 283 369 m 364 1061 q 409 1163 374 1119 q 507 1206 444 1206 q 609 1184 565 1206 q 706 1163 653 1163 q 753 1206 742 1163 l 843 1206 q 797 1104 833 1147 q 699 1061 761 1061 q 597 1083 640 1061 q 500 1104 553 1104 q 453 1061 464 1104 l 364 1061 z "},"Æ":{"ha":1389,"x_min":-85,"x_max":1389,"o":"m -85 0 l 563 953 l 1389 953 l 1368 838 l 750 838 l 781 544 l 1256 544 l 1236 429 l 794 429 l 826 115 l 1250 115 l 1229 0 l 713 0 l 686 254 l 226 254 l 57 0 l -85 0 m 304 369 l 675 369 l 626 838 l 619 838 l 304 369 z "},"Ǽ":{"ha":1389,"x_min":-85,"x_max":1389,"o":"m -85 0 l 563 953 l 1389 953 l 1368 838 l 750 838 l 781 544 l 1256 544 l 1236 429 l 794 429 l 826 115 l 1250 115 l 1229 0 l 713 0 l 686 254 l 226 254 l 57 0 l -85 0 m 304 369 l 675 369 l 626 838 l 619 838 l 304 369 m 754 1022 l 904 1206 l 1044 1206 l 1046 1201 l 874 1022 l 754 1022 z "},"B":{"ha":926,"x_min":25,"x_max":878,"o":"m 25 0 l 193 953 l 608 953 q 805 902 732 953 q 878 750 878 851 q 819 589 878 656 q 679 500 760 522 l 679 494 q 785 428 744 476 q 826 296 826 381 q 731 68 826 136 q 513 0 636 0 l 25 0 m 178 115 l 503 115 q 637 153 581 115 q 693 299 693 192 q 656 398 693 365 q 549 431 619 431 l 233 431 l 178 115 m 253 546 l 550 546 q 692 594 638 546 q 747 717 747 643 q 710 810 747 783 q 610 838 674 838 l 304 838 l 253 546 z "},"C":{"ha":1003,"x_min":51,"x_max":968,"o":"m 456 -17 q 153 74 254 -17 q 51 347 51 164 q 106 649 51 517 q 264 863 161 782 q 601 969 404 969 q 867 899 767 969 q 968 688 968 829 q 961 608 968 654 l 826 608 q 830 639 828 624 q 832 667 832 654 q 773 810 832 763 q 610 857 714 857 q 344 769 447 857 q 207 529 242 681 q 192 447 197 490 q 188 358 188 404 q 253 158 188 219 q 447 96 318 96 q 671 157 581 96 q 785 342 761 218 l 914 342 q 756 70 883 157 q 456 -17 629 -17 z "},"Ć":{"ha":1003,"x_min":51,"x_max":968,"o":"m 456 -17 q 153 74 254 -17 q 51 347 51 164 q 106 649 51 517 q 264 863 161 782 q 601 969 404 969 q 867 899 767 969 q 968 688 968 829 q 961 608 968 654 l 826 608 q 830 639 828 624 q 832 667 832 654 q 773 810 832 763 q 610 857 714 857 q 344 769 447 857 q 207 529 242 681 q 192 447 197 490 q 188 358 188 404 q 253 158 188 219 q 447 96 318 96 q 671 157 581 96 q 785 342 761 218 l 914 342 q 756 70 883 157 q 456 -17 629 -17 m 561 1022 l 711 1206 l 851 1206 l 853 1201 l 681 1022 l 561 1022 z "},"Č":{"ha":1003,"x_min":51,"x_max":968,"o":"m 456 -17 q 153 74 254 -17 q 51 347 51 164 q 106 649 51 517 q 264 863 161 782 q 601 969 404 969 q 867 899 767 969 q 968 688 968 829 q 961 608 968 654 l 826 608 q 830 639 828 624 q 832 667 832 654 q 773 810 832 763 q 610 857 714 857 q 344 769 447 857 q 207 529 242 681 q 192 447 197 490 q 188 358 188 404 q 253 158 188 219 q 447 96 318 96 q 671 157 581 96 q 785 342 761 218 l 914 342 q 756 70 883 157 q 456 -17 629 -17 m 563 1018 l 449 1206 l 568 1206 l 631 1096 l 728 1206 l 858 1206 l 679 1018 l 563 1018 z "},"Ç":{"ha":1003,"x_min":51,"x_max":968,"o":"m 485 3 l 467 -50 q 547 -69 514 -50 q 581 -131 581 -87 q 554 -208 581 -182 q 488 -244 528 -235 q 408 -253 449 -253 q 265 -242 328 -253 l 278 -174 l 417 -174 q 479 -132 479 -174 q 431 -107 479 -107 l 360 -107 l 400 6 l 485 3 m 456 -17 q 153 74 254 -17 q 51 347 51 164 q 106 649 51 517 q 264 863 161 782 q 601 969 404 969 q 867 899 767 969 q 968 688 968 829 q 961 608 968 654 l 826 608 q 830 639 828 624 q 832 667 832 654 q 773 810 832 763 q 610 857 714 857 q 344 769 447 857 q 207 529 242 681 q 192 447 197 490 q 188 358 188 404 q 253 158 188 219 q 447 96 318 96 q 671 157 581 96 q 785 342 761 218 l 914 342 q 756 70 883 157 q 456 -17 629 -17 z "},"Ĉ":{"ha":1003,"x_min":51,"x_max":968,"o":"m 456 -17 q 153 74 254 -17 q 51 347 51 164 q 106 649 51 517 q 264 863 161 782 q 601 969 404 969 q 867 899 767 969 q 968 688 968 829 q 961 608 968 654 l 826 608 q 830 639 828 624 q 832 667 832 654 q 773 810 832 763 q 610 857 714 857 q 344 769 447 857 q 207 529 242 681 q 192 447 197 490 q 188 358 188 404 q 253 158 188 219 q 447 96 318 96 q 671 157 581 96 q 785 342 761 218 l 914 342 q 756 70 883 157 q 456 -17 629 -17 m 410 1018 l 589 1206 l 706 1206 l 819 1018 l 700 1018 l 640 1128 l 540 1018 l 410 1018 z "},"Ċ":{"ha":1003,"x_min":51,"x_max":968,"o":"m 456 -17 q 153 74 254 -17 q 51 347 51 164 q 106 649 51 517 q 264 863 161 782 q 601 969 404 969 q 867 899 767 969 q 968 688 968 829 q 961 608 968 654 l 826 608 q 830 639 828 624 q 832 667 832 654 q 773 810 832 763 q 610 857 714 857 q 344 769 447 857 q 207 529 242 681 q 192 447 197 490 q 188 358 188 404 q 253 158 188 219 q 447 96 318 96 q 671 157 581 96 q 785 342 761 218 l 914 342 q 756 70 883 157 q 456 -17 629 -17 m 569 1074 l 593 1206 l 714 1206 l 690 1074 l 569 1074 z "},"D":{"ha":1003,"x_min":25,"x_max":950,"o":"m 25 0 l 193 953 l 518 953 q 836 862 722 953 q 950 575 950 771 q 911 334 950 440 q 803 154 872 228 q 629 40 731 79 q 406 0 528 0 l 25 0 m 178 115 l 399 115 q 665 199 556 115 q 804 443 774 283 q 811 499 808 469 q 814 558 814 528 q 737 774 814 711 q 525 838 660 838 l 304 838 l 178 115 z "},"Ǳ":{"ha":1851,"x_min":25,"x_max":1892,"o":"m 25 0 l 193 953 l 518 953 q 836 862 722 953 q 950 575 950 771 q 911 334 950 440 q 803 154 872 228 q 629 40 731 79 q 406 0 528 0 l 25 0 m 178 115 l 399 115 q 665 199 556 115 q 804 443 774 283 q 811 499 808 469 q 814 558 814 528 q 737 774 814 711 q 525 838 660 838 l 304 838 l 178 115 m 951 0 l 964 68 l 1663 838 l 1133 838 l 1154 953 l 1892 953 l 1879 885 l 1178 115 l 1757 115 l 1736 0 l 951 0 z "},"Ǆ":{"ha":1851,"x_min":25,"x_max":1892,"o":"m 25 0 l 193 953 l 518 953 q 836 862 722 953 q 950 575 950 771 q 911 334 950 440 q 803 154 872 228 q 629 40 731 79 q 406 0 528 0 l 25 0 m 178 115 l 399 115 q 665 199 556 115 q 804 443 774 283 q 811 499 808 469 q 814 558 814 528 q 737 774 814 711 q 525 838 660 838 l 304 838 l 178 115 z "},"Ð":{"ha":1003,"x_min":1,"x_max":950,"o":"m 1 450 l 17 538 l 492 538 l 476 450 l 1 450 m 25 0 l 193 953 l 518 953 q 836 862 722 953 q 950 575 950 771 q 911 334 950 440 q 803 154 872 228 q 629 40 731 79 q 406 0 528 0 l 25 0 m 178 115 l 399 115 q 665 199 556 115 q 804 443 774 283 q 811 499 808 469 q 814 558 814 528 q 737 774 814 711 q 525 838 660 838 l 304 838 l 178 115 z "},"Ď":{"ha":1003,"x_min":25,"x_max":950,"o":"m 25 0 l 193 953 l 518 953 q 836 862 722 953 q 950 575 950 771 q 911 334 950 440 q 803 154 872 228 q 629 40 731 79 q 406 0 528 0 l 25 0 m 178 115 l 399 115 q 665 199 556 115 q 804 443 774 283 q 811 499 808 469 q 814 558 814 528 q 737 774 814 711 q 525 838 660 838 l 304 838 l 178 115 m 483 1018 l 369 1206 l 489 1206 l 551 1096 l 649 1206 l 779 1206 l 600 1018 l 483 1018 z "},"Đ":{"ha":1003,"x_min":1,"x_max":950,"o":"m 1 450 l 17 538 l 492 538 l 476 450 l 1 450 m 25 0 l 193 953 l 518 953 q 836 862 722 953 q 950 575 950 771 q 911 334 950 440 q 803 154 872 228 q 629 40 731 79 q 406 0 528 0 l 25 0 m 178 115 l 399 115 q 665 199 556 115 q 804 443 774 283 q 811 499 808 469 q 814 558 814 528 q 737 774 814 711 q 525 838 660 838 l 304 838 l 178 115 z "},"Ḍ":{"ha":1003,"x_min":25,"x_max":950,"o":"m 25 0 l 193 953 l 518 953 q 836 862 722 953 q 950 575 950 771 q 911 334 950 440 q 803 154 872 228 q 629 40 731 79 q 406 0 528 0 l 25 0 m 178 115 l 399 115 q 665 199 556 115 q 804 443 774 283 q 811 499 808 469 q 814 558 814 528 q 737 774 814 711 q 525 838 660 838 l 304 838 l 178 115 z "},"ǲ":{"ha":1697,"x_min":25,"x_max":1697,"o":"m 25 0 l 193 953 l 518 953 q 836 862 722 953 q 950 575 950 771 q 911 334 950 440 q 803 154 872 228 q 629 40 731 79 q 406 0 528 0 l 25 0 m 178 115 l 399 115 q 665 199 556 115 q 804 443 774 283 q 811 499 808 469 q 814 558 814 528 q 737 774 814 711 q 525 838 660 838 l 304 838 l 178 115 m 967 0 l 978 65 l 1492 629 l 1106 629 l 1124 731 l 1697 731 l 1686 667 l 1169 101 l 1610 101 l 1592 0 l 967 0 z "},"ǅ":{"ha":1697,"x_min":25,"x_max":1697,"o":"m 25 0 l 193 953 l 518 953 q 836 862 722 953 q 950 575 950 771 q 911 334 950 440 q 803 154 872 228 q 629 40 731 79 q 406 0 528 0 l 25 0 m 178 115 l 399 115 q 665 199 556 115 q 804 443 774 283 q 811 499 808 469 q 814 558 814 528 q 737 774 814 711 q 525 838 660 838 l 304 838 l 178 115 z "},"E":{"ha":926,"x_min":25,"x_max":926,"o":"m 25 0 l 193 953 l 926 953 l 906 838 l 304 838 l 253 544 l 793 544 l 774 429 l 233 429 l 178 115 l 788 115 l 767 0 l 25 0 z "},"É":{"ha":926,"x_min":25,"x_max":926,"o":"m 25 0 l 193 953 l 926 953 l 906 838 l 304 838 l 253 544 l 793 544 l 774 429 l 233 429 l 178 115 l 788 115 l 767 0 l 25 0 m 524 1022 l 674 1206 l 814 1206 l 815 1201 l 643 1022 l 524 1022 z "},"Ĕ":{"ha":926,"x_min":25,"x_max":926,"o":"m 25 0 l 193 953 l 926 953 l 906 838 l 304 838 l 253 544 l 793 544 l 774 429 l 233 429 l 178 115 l 788 115 l 767 0 l 25 0 m 585 1043 q 438 1083 478 1043 q 399 1174 399 1124 q 401 1206 399 1194 l 486 1206 q 503 1157 488 1182 q 583 1132 519 1132 q 681 1157 649 1132 q 721 1206 714 1182 l 806 1206 q 783 1144 800 1175 q 735 1090 765 1113 q 671 1056 708 1069 q 585 1043 633 1043 z "},"Ě":{"ha":926,"x_min":25,"x_max":926,"o":"m 25 0 l 193 953 l 926 953 l 906 838 l 304 838 l 253 544 l 793 544 l 774 429 l 233 429 l 178 115 l 788 115 l 767 0 l 25 0 m 525 1018 l 411 1206 l 531 1206 l 593 1096 l 690 1206 l 821 1206 l 642 1018 l 525 1018 z "},"Ê":{"ha":926,"x_min":25,"x_max":926,"o":"m 25 0 l 193 953 l 926 953 l 906 838 l 304 838 l 253 544 l 793 544 l 774 429 l 233 429 l 178 115 l 788 115 l 767 0 l 25 0 m 372 1018 l 551 1206 l 668 1206 l 782 1018 l 663 1018 l 603 1128 l 503 1018 l 372 1018 z "},"Ế":{"ha":926,"x_min":25,"x_max":1011,"o":"m 25 0 l 193 953 l 926 953 l 906 838 l 304 838 l 253 544 l 793 544 l 774 429 l 233 429 l 178 115 l 788 115 l 767 0 l 25 0 m 372 1018 l 551 1206 l 668 1206 l 782 1018 l 663 1018 l 603 1128 l 503 1018 l 372 1018 m 719 1154 l 869 1338 l 1010 1338 l 1011 1333 l 839 1154 l 719 1154 z "},"Ệ":{"ha":926,"x_min":25,"x_max":926,"o":"m 25 0 l 193 953 l 926 953 l 906 838 l 304 838 l 253 544 l 793 544 l 774 429 l 233 429 l 178 115 l 788 115 l 767 0 l 25 0 m 372 1018 l 551 1206 l 668 1206 l 782 1018 l 663 1018 l 603 1128 l 503 1018 l 372 1018 z "},"Ề":{"ha":926,"x_min":25,"x_max":926,"o":"m 25 0 l 193 953 l 926 953 l 906 838 l 304 838 l 253 544 l 793 544 l 774 429 l 233 429 l 178 115 l 788 115 l 767 0 l 25 0 m 372 1018 l 551 1206 l 668 1206 l 782 1018 l 663 1018 l 603 1128 l 503 1018 l 372 1018 m 782 1154 l 664 1333 l 665 1338 l 799 1338 l 886 1154 l 782 1154 z "},"Ể":{"ha":926,"x_min":25,"x_max":926,"o":"m 25 0 l 193 953 l 926 953 l 906 838 l 304 838 l 253 544 l 793 544 l 774 429 l 233 429 l 178 115 l 788 115 l 767 0 l 25 0 m 372 1018 l 551 1206 l 668 1206 l 782 1018 l 663 1018 l 603 1128 l 503 1018 l 372 1018 m 740 1154 l 756 1239 l 774 1239 q 818 1269 818 1239 q 779 1289 818 1289 l 696 1289 l 706 1343 q 808 1354 754 1354 q 883 1341 846 1354 q 921 1286 921 1328 q 891 1218 921 1240 q 825 1193 861 1196 l 818 1154 l 740 1154 z "},"Ễ":{"ha":926,"x_min":25,"x_max":926,"o":"m 25 0 l 193 953 l 926 953 l 906 838 l 304 838 l 253 544 l 793 544 l 774 429 l 233 429 l 178 115 l 788 115 l 767 0 l 25 0 m 372 1018 l 551 1206 l 668 1206 l 782 1018 l 663 1018 l 603 1128 l 503 1018 l 372 1018 m 399 1283 q 444 1385 408 1342 q 542 1428 479 1428 q 644 1406 600 1428 q 740 1385 688 1385 q 788 1428 776 1385 l 878 1428 q 832 1326 868 1369 q 733 1283 796 1283 q 631 1305 675 1283 q 535 1326 588 1326 q 488 1283 499 1326 l 399 1283 z "},"Ȅ":{"ha":926,"x_min":25,"x_max":926,"o":"m 25 0 l 193 953 l 926 953 l 906 838 l 304 838 l 253 544 l 793 544 l 774 429 l 233 429 l 178 115 l 788 115 l 767 0 l 25 0 m 647 1022 l 563 1201 l 565 1206 l 700 1206 l 753 1022 l 647 1022 m 454 1022 l 369 1201 l 372 1206 l 507 1206 l 560 1022 l 454 1022 z "},"Ë":{"ha":926,"x_min":25,"x_max":926,"o":"m 25 0 l 193 953 l 926 953 l 906 838 l 304 838 l 253 544 l 793 544 l 774 429 l 233 429 l 178 115 l 788 115 l 767 0 l 25 0 m 663 1074 l 686 1206 l 807 1206 l 783 1074 l 663 1074 m 403 1074 l 426 1206 l 547 1206 l 524 1074 l 403 1074 z "},"Ė":{"ha":926,"x_min":25,"x_max":926,"o":"m 25 0 l 193 953 l 926 953 l 906 838 l 304 838 l 253 544 l 793 544 l 774 429 l 233 429 l 178 115 l 788 115 l 767 0 l 25 0 m 532 1074 l 556 1206 l 676 1206 l 653 1074 l 532 1074 z "},"Ẹ":{"ha":926,"x_min":25,"x_max":926,"o":"m 25 0 l 193 953 l 926 953 l 906 838 l 304 838 l 253 544 l 793 544 l 774 429 l 233 429 l 178 115 l 788 115 l 767 0 l 25 0 z "},"È":{"ha":926,"x_min":25,"x_max":926,"o":"m 25 0 l 193 953 l 926 953 l 906 838 l 304 838 l 253 544 l 793 544 l 774 429 l 233 429 l 178 115 l 788 115 l 767 0 l 25 0 m 532 1022 l 414 1201 l 415 1206 l 549 1206 l 636 1022 l 532 1022 z "},"Ẻ":{"ha":926,"x_min":25,"x_max":926,"o":"m 25 0 l 193 953 l 926 953 l 906 838 l 304 838 l 253 544 l 793 544 l 774 429 l 233 429 l 178 115 l 788 115 l 767 0 l 25 0 m 546 1022 l 561 1107 l 579 1107 q 624 1138 624 1107 q 585 1157 624 1157 l 501 1157 l 511 1211 q 614 1222 560 1222 q 689 1209 651 1222 q 726 1154 726 1196 q 697 1086 726 1108 q 631 1061 667 1064 l 624 1022 l 546 1022 z "},"Ȇ":{"ha":926,"x_min":25,"x_max":926,"o":"m 25 0 l 193 953 l 926 953 l 906 838 l 304 838 l 253 544 l 793 544 l 774 429 l 233 429 l 178 115 l 788 115 l 767 0 l 25 0 m 385 1043 q 443 1153 396 1100 q 615 1206 490 1206 q 752 1163 713 1206 q 792 1068 792 1121 q 789 1043 792 1060 l 704 1043 q 686 1091 706 1065 q 600 1117 667 1117 q 506 1091 533 1117 q 469 1043 479 1065 l 385 1043 z "},"Ē":{"ha":926,"x_min":25,"x_max":926,"o":"m 25 0 l 193 953 l 926 953 l 906 838 l 304 838 l 253 544 l 793 544 l 774 429 l 233 429 l 178 115 l 788 115 l 767 0 l 25 0 m 382 1072 l 400 1172 l 824 1172 l 806 1072 l 382 1072 z "},"Ę":{"ha":926,"x_min":25,"x_max":926,"o":"m 638 -253 q 555 -231 594 -253 q 515 -150 515 -208 q 544 -61 515 -96 q 626 0 574 -26 l 25 0 l 193 953 l 926 953 l 906 838 l 304 838 l 253 544 l 793 544 l 774 429 l 233 429 l 178 115 l 788 115 l 767 0 q 673 -48 714 -18 q 632 -114 632 -78 q 694 -162 632 -162 l 739 -162 l 726 -233 q 638 -253 676 -253 z "},"Ẽ":{"ha":926,"x_min":25,"x_max":926,"o":"m 25 0 l 193 953 l 926 953 l 906 838 l 304 838 l 253 544 l 793 544 l 774 429 l 233 429 l 178 115 l 788 115 l 767 0 l 25 0 m 364 1061 q 409 1163 374 1119 q 507 1206 444 1206 q 609 1184 565 1206 q 706 1163 653 1163 q 753 1206 742 1163 l 843 1206 q 797 1104 833 1147 q 699 1061 761 1061 q 597 1083 640 1061 q 500 1104 553 1104 q 453 1061 464 1104 l 364 1061 z "},"F":{"ha":849,"x_min":25,"x_max":868,"o":"m 25 0 l 193 953 l 868 953 l 847 838 l 304 838 l 251 535 l 744 535 l 724 419 l 231 419 l 157 0 l 25 0 z "},"G":{"ha":1081,"x_min":51,"x_max":1014,"o":"m 447 -17 q 152 78 253 -17 q 51 350 51 174 q 90 605 51 490 q 201 801 128 719 q 618 969 354 969 q 904 901 794 969 q 1014 694 1014 833 q 1008 628 1014 660 l 874 628 q 878 674 878 653 q 810 813 878 768 q 626 857 742 857 q 354 772 461 857 q 208 535 247 688 q 189 363 189 454 q 258 158 189 219 q 456 96 326 96 q 722 176 624 96 q 831 367 819 257 l 838 435 l 888 381 l 496 381 l 517 496 l 985 496 l 897 0 l 797 0 l 797 117 q 640 15 728 46 q 447 -17 553 -17 z "},"Ǵ":{"ha":1081,"x_min":51,"x_max":1014,"o":"m 447 -17 q 152 78 253 -17 q 51 350 51 174 q 90 605 51 490 q 201 801 128 719 q 618 969 354 969 q 904 901 794 969 q 1014 694 1014 833 q 1008 628 1014 660 l 874 628 q 878 674 878 653 q 810 813 878 768 q 626 857 742 857 q 354 772 461 857 q 208 535 247 688 q 189 363 189 454 q 258 158 189 219 q 456 96 326 96 q 722 176 624 96 q 831 367 819 257 l 838 435 l 888 381 l 496 381 l 517 496 l 985 496 l 897 0 l 797 0 l 797 117 q 640 15 728 46 q 447 -17 553 -17 m 546 1022 l 696 1206 l 836 1206 l 838 1201 l 665 1022 l 546 1022 z "},"Ğ":{"ha":1081,"x_min":51,"x_max":1014,"o":"m 447 -17 q 152 78 253 -17 q 51 350 51 174 q 90 605 51 490 q 201 801 128 719 q 618 969 354 969 q 904 901 794 969 q 1014 694 1014 833 q 1008 628 1014 660 l 874 628 q 878 674 878 653 q 810 813 878 768 q 626 857 742 857 q 354 772 461 857 q 208 535 247 688 q 189 363 189 454 q 258 158 189 219 q 456 96 326 96 q 722 176 624 96 q 831 367 819 257 l 838 435 l 888 381 l 496 381 l 517 496 l 985 496 l 897 0 l 797 0 l 797 117 q 640 15 728 46 q 447 -17 553 -17 m 607 1043 q 460 1083 500 1043 q 421 1174 421 1124 q 424 1206 421 1194 l 508 1206 q 526 1157 510 1182 q 606 1132 542 1132 q 703 1157 671 1132 q 743 1206 736 1182 l 828 1206 q 805 1144 822 1175 q 757 1090 788 1113 q 693 1056 731 1069 q 607 1043 656 1043 z "},"Ǧ":{"ha":1081,"x_min":51,"x_max":1014,"o":"m 447 -17 q 152 78 253 -17 q 51 350 51 174 q 90 605 51 490 q 201 801 128 719 q 618 969 354 969 q 904 901 794 969 q 1014 694 1014 833 q 1008 628 1014 660 l 874 628 q 878 674 878 653 q 810 813 878 768 q 626 857 742 857 q 354 772 461 857 q 208 535 247 688 q 189 363 189 454 q 258 158 189 219 q 456 96 326 96 q 722 176 624 96 q 831 367 819 257 l 838 435 l 888 381 l 496 381 l 517 496 l 985 496 l 897 0 l 797 0 l 797 117 q 640 15 728 46 q 447 -17 553 -17 m 547 1018 l 433 1206 l 553 1206 l 615 1096 l 713 1206 l 843 1206 l 664 1018 l 547 1018 z "},"Ĝ":{"ha":1081,"x_min":51,"x_max":1014,"o":"m 447 -17 q 152 78 253 -17 q 51 350 51 174 q 90 605 51 490 q 201 801 128 719 q 618 969 354 969 q 904 901 794 969 q 1014 694 1014 833 q 1008 628 1014 660 l 874 628 q 878 674 878 653 q 810 813 878 768 q 626 857 742 857 q 354 772 461 857 q 208 535 247 688 q 189 363 189 454 q 258 158 189 219 q 456 96 326 96 q 722 176 624 96 q 831 367 819 257 l 838 435 l 888 381 l 496 381 l 517 496 l 985 496 l 897 0 l 797 0 l 797 117 q 640 15 728 46 q 447 -17 553 -17 m 394 1018 l 574 1206 l 690 1206 l 804 1018 l 685 1018 l 625 1128 l 525 1018 l 394 1018 z "},"Ģ":{"ha":1081,"x_min":51,"x_max":1014,"o":"m 447 -17 q 152 78 253 -17 q 51 350 51 174 q 90 605 51 490 q 201 801 128 719 q 618 969 354 969 q 904 901 794 969 q 1014 694 1014 833 q 1008 628 1014 660 l 874 628 q 878 674 878 653 q 810 813 878 768 q 626 857 742 857 q 354 772 461 857 q 208 535 247 688 q 189 363 189 454 q 258 158 189 219 q 456 96 326 96 q 722 176 624 96 q 831 367 819 257 l 838 435 l 888 381 l 496 381 l 517 496 l 985 496 l 897 0 l 797 0 l 797 117 q 640 15 728 46 q 447 -17 553 -17 m 357 -319 l 429 -207 l 381 -207 l 403 -81 l 525 -81 l 504 -197 l 422 -319 l 357 -319 z "},"Ġ":{"ha":1081,"x_min":51,"x_max":1014,"o":"m 447 -17 q 152 78 253 -17 q 51 350 51 174 q 90 605 51 490 q 201 801 128 719 q 618 969 354 969 q 904 901 794 969 q 1014 694 1014 833 q 1008 628 1014 660 l 874 628 q 878 674 878 653 q 810 813 878 768 q 626 857 742 857 q 354 772 461 857 q 208 535 247 688 q 189 363 189 454 q 258 158 189 219 q 456 96 326 96 q 722 176 624 96 q 831 367 819 257 l 838 435 l 888 381 l 496 381 l 517 496 l 985 496 l 897 0 l 797 0 l 797 117 q 640 15 728 46 q 447 -17 553 -17 m 554 1074 l 578 1206 l 699 1206 l 675 1074 l 554 1074 z "},"H":{"ha":1003,"x_min":25,"x_max":976,"o":"m 25 0 l 193 953 l 325 953 l 253 544 l 772 544 l 844 953 l 976 953 l 808 0 l 676 0 l 753 429 l 233 429 l 157 0 l 25 0 z "},"Ħ":{"ha":1003,"x_min":25,"x_max":1051,"o":"m 25 0 l 154 731 l 57 731 l 74 831 l 171 831 l 193 953 l 325 953 l 303 831 l 822 831 l 844 953 l 976 953 l 954 831 l 1051 831 l 1035 731 l 938 731 l 808 0 l 676 0 l 753 429 l 233 429 l 157 0 l 25 0 m 253 544 l 772 544 l 806 731 l 286 731 l 253 544 z "},"Ĥ":{"ha":1003,"x_min":25,"x_max":976,"o":"m 25 0 l 193 953 l 325 953 l 253 544 l 772 544 l 844 953 l 976 953 l 808 0 l 676 0 l 753 429 l 233 429 l 157 0 l 25 0 m 385 1018 l 564 1206 l 681 1206 l 794 1018 l 675 1018 l 615 1128 l 515 1018 l 385 1018 z "},"Ḥ":{"ha":1003,"x_min":25,"x_max":976,"o":"m 25 0 l 193 953 l 325 953 l 253 544 l 772 544 l 844 953 l 976 953 l 808 0 l 676 0 l 753 429 l 233 429 l 157 0 l 25 0 z "},"I":{"ha":386,"x_min":43,"x_max":343,"o":"m 43 0 l 211 953 l 343 953 l 175 0 l 43 0 z "},"Ĳ":{"ha":1081,"x_min":43,"x_max":1057,"o":"m 43 0 l 211 953 l 343 953 l 175 0 l 43 0 m 626 -17 q 382 188 382 -17 q 384 228 382 203 q 394 289 386 254 l 526 289 q 517 238 519 260 q 514 206 514 215 q 540 124 514 151 q 618 96 567 96 q 740 135 692 96 q 804 269 788 174 l 925 953 l 1057 953 l 938 276 q 831 51 910 119 q 626 -17 751 -17 z "},"Í":{"ha":386,"x_min":43,"x_max":521,"o":"m 43 0 l 211 953 l 343 953 l 175 0 l 43 0 m 229 1022 l 379 1206 l 519 1206 l 521 1201 l 349 1022 l 229 1022 z "},"Ĭ":{"ha":386,"x_min":43,"x_max":511,"o":"m 43 0 l 211 953 l 343 953 l 175 0 l 43 0 m 290 1043 q 144 1083 183 1043 q 104 1174 104 1124 q 107 1206 104 1194 l 192 1206 q 209 1157 193 1182 q 289 1132 225 1132 q 387 1157 354 1132 q 426 1206 419 1182 l 511 1206 q 488 1144 506 1175 q 440 1090 471 1113 q 376 1056 414 1069 q 290 1043 339 1043 z "},"Ǐ":{"ha":386,"x_min":43,"x_max":526,"o":"m 43 0 l 211 953 l 343 953 l 175 0 l 43 0 m 231 1018 l 117 1206 l 236 1206 l 299 1096 l 396 1206 l 526 1206 l 347 1018 l 231 1018 z "},"Î":{"ha":386,"x_min":43,"x_max":488,"o":"m 43 0 l 211 953 l 343 953 l 175 0 l 43 0 m 78 1018 l 257 1206 l 374 1206 l 488 1018 l 368 1018 l 308 1128 l 208 1018 l 78 1018 z "},"Ȉ":{"ha":386,"x_min":43,"x_max":458,"o":"m 43 0 l 211 953 l 343 953 l 175 0 l 43 0 m 353 1022 l 268 1201 l 271 1206 l 406 1206 l 458 1022 l 353 1022 m 160 1022 l 75 1201 l 78 1206 l 213 1206 l 265 1022 l 160 1022 z "},"Ï":{"ha":386,"x_min":43,"x_max":513,"o":"m 43 0 l 211 953 l 343 953 l 175 0 l 43 0 m 368 1074 l 392 1206 l 513 1206 l 489 1074 l 368 1074 m 108 1074 l 132 1206 l 253 1206 l 229 1074 l 108 1074 z "},"İ":{"ha":386,"x_min":43,"x_max":382,"o":"m 43 0 l 211 953 l 343 953 l 175 0 l 43 0 m 238 1074 l 261 1206 l 382 1206 l 358 1074 l 238 1074 z "},"Ị":{"ha":386,"x_min":7,"x_max":343,"o":"m 43 0 l 211 953 l 343 953 l 175 0 l 43 0 z "},"Ì":{"ha":386,"x_min":43,"x_max":343,"o":"m 43 0 l 211 953 l 343 953 l 175 0 l 43 0 m 238 1022 l 119 1201 l 121 1206 l 254 1206 l 342 1022 l 238 1022 z "},"Ỉ":{"ha":386,"x_min":43,"x_max":432,"o":"m 43 0 l 211 953 l 343 953 l 175 0 l 43 0 m 251 1022 l 267 1107 l 285 1107 q 329 1138 329 1107 q 290 1157 329 1157 l 207 1157 l 217 1211 q 319 1222 265 1222 q 394 1209 357 1222 q 432 1154 432 1196 q 402 1086 432 1108 q 336 1061 372 1064 l 329 1022 l 251 1022 z "},"Ȋ":{"ha":386,"x_min":43,"x_max":497,"o":"m 43 0 l 211 953 l 343 953 l 175 0 l 43 0 m 90 1043 q 149 1153 101 1100 q 321 1206 196 1206 q 458 1163 418 1206 q 497 1068 497 1121 q 494 1043 497 1060 l 410 1043 q 392 1091 411 1065 q 306 1117 372 1117 q 212 1091 239 1117 q 175 1043 185 1065 l 90 1043 z "},"Ī":{"ha":386,"x_min":43,"x_max":529,"o":"m 43 0 l 211 953 l 343 953 l 175 0 l 43 0 m 88 1072 l 106 1172 l 529 1172 l 511 1072 l 88 1072 z "},"Į":{"ha":386,"x_min":-62,"x_max":343,"o":"m 43 0 l 211 953 l 343 953 l 175 0 l 43 0 z "},"Ĩ":{"ha":386,"x_min":43,"x_max":549,"o":"m 43 0 l 211 953 l 343 953 l 175 0 l 43 0 m 69 1061 q 115 1163 79 1119 q 213 1206 150 1206 q 315 1184 271 1206 q 411 1163 358 1163 q 458 1206 447 1163 l 549 1206 q 503 1104 539 1147 q 404 1061 467 1061 q 302 1083 346 1061 q 206 1104 258 1104 q 158 1061 169 1104 l 69 1061 z "},"J":{"ha":694,"x_min":-4,"x_max":671,"o":"m 240 -17 q -4 188 -4 -17 q -2 228 -4 203 q 8 289 0 254 l 140 289 q 131 238 133 260 q 128 206 128 215 q 154 124 128 151 q 232 96 181 96 q 353 135 306 96 q 418 269 401 174 l 539 953 l 671 953 l 551 276 q 444 51 524 119 q 240 -17 365 -17 z "},"Ĵ":{"ha":694,"x_min":-4,"x_max":815,"o":"m 240 -17 q -4 188 -4 -17 q -2 228 -4 203 q 8 289 0 254 l 140 289 q 131 238 133 260 q 128 206 128 215 q 154 124 128 151 q 232 96 181 96 q 353 135 306 96 q 418 269 401 174 l 539 953 l 671 953 l 551 276 q 444 51 524 119 q 240 -17 365 -17 m 406 1018 l 585 1206 l 701 1206 l 815 1018 l 696 1018 l 636 1128 l 536 1018 l 406 1018 z "},"K":{"ha":926,"x_min":25,"x_max":993,"o":"m 25 0 l 193 953 l 325 953 l 232 428 l 821 953 l 993 953 l 565 571 l 838 0 l 692 0 l 463 481 l 204 271 l 157 0 l 25 0 z "},"Ķ":{"ha":926,"x_min":25,"x_max":993,"o":"m 25 0 l 193 953 l 325 953 l 232 428 l 821 953 l 993 953 l 565 571 l 838 0 l 692 0 l 463 481 l 204 271 l 157 0 l 25 0 m 281 -319 l 353 -207 l 304 -207 l 326 -81 l 449 -81 l 428 -197 l 346 -319 l 281 -319 z "},"L":{"ha":772,"x_min":25,"x_max":690,"o":"m 25 0 l 193 953 l 325 953 l 178 115 l 690 115 l 669 0 l 25 0 z "},"Ǉ":{"ha":1467,"x_min":25,"x_max":1443,"o":"m 25 0 l 193 953 l 325 953 l 178 115 l 690 115 l 669 0 l 25 0 m 1013 -17 q 768 188 768 -17 q 770 228 768 203 q 781 289 772 254 l 913 289 q 903 238 906 260 q 900 206 900 215 q 926 124 900 151 q 1004 96 953 96 q 1126 135 1078 96 q 1190 269 1174 174 l 1311 953 l 1443 953 l 1324 276 q 1217 51 1296 119 q 1013 -17 1138 -17 z "},"Ĺ":{"ha":772,"x_min":25,"x_max":690,"o":"m 25 0 l 193 953 l 325 953 l 178 115 l 690 115 l 669 0 l 25 0 m 211 1022 l 361 1206 l 501 1206 l 503 1201 l 331 1022 l 211 1022 z "},"Ľ":{"ha":772,"x_min":25,"x_max":690,"o":"m 458 681 l 532 826 l 488 826 l 510 953 l 628 953 l 607 836 l 522 681 l 458 681 m 25 0 l 193 953 l 325 953 l 178 115 l 690 115 l 669 0 l 25 0 z "},"Ļ":{"ha":772,"x_min":25,"x_max":690,"o":"m 25 0 l 193 953 l 325 953 l 178 115 l 690 115 l 669 0 l 25 0 m 228 -319 l 300 -207 l 251 -207 l 274 -81 l 396 -81 l 375 -197 l 293 -319 l 228 -319 z "},"Ŀ":{"ha":772,"x_min":25,"x_max":690,"o":"m 25 0 l 193 953 l 325 953 l 178 115 l 690 115 l 669 0 l 25 0 m 439 581 l 465 731 l 604 731 l 578 581 l 439 581 z "},"ǈ":{"ha":1081,"x_min":25,"x_max":1089,"o":"m 25 0 l 193 953 l 325 953 l 178 115 l 690 115 l 669 0 l 25 0 m 717 -253 q 666 -247 692 -253 q 624 -236 640 -242 l 638 -157 l 699 -157 q 774 -90 763 -157 l 919 731 l 1042 731 l 897 -85 q 851 -200 886 -147 q 717 -253 815 -253 m 943 868 l 967 1004 l 1089 1004 l 1065 868 l 943 868 z "},"Ł":{"ha":772,"x_min":0,"x_max":690,"o":"m 49 0 l 114 368 l 0 300 l 19 413 l 133 481 l 217 953 l 349 953 l 281 568 l 540 722 l 519 608 l 261 454 l 201 115 l 690 115 l 669 0 l 49 0 z "},"M":{"ha":1157,"x_min":25,"x_max":1132,"o":"m 25 0 l 193 953 l 386 953 l 504 303 q 513 240 510 274 q 516 183 515 207 q 517 160 517 160 l 522 160 q 532 185 522 160 q 556 244 542 211 q 583 303 569 278 l 928 953 l 1132 953 l 964 0 l 832 0 l 943 629 q 953 685 944 642 q 969 767 961 728 q 976 807 976 807 l 967 807 q 954 774 967 807 q 928 715 942 742 l 544 0 l 433 0 l 304 715 q 298 773 300 739 q 296 807 296 807 l 288 807 q 282 771 288 807 q 270 692 276 735 q 260 629 264 649 l 149 0 l 25 0 z "},"N":{"ha":1003,"x_min":25,"x_max":978,"o":"m 25 0 l 193 953 l 311 953 l 686 288 q 703 257 694 272 q 721 226 713 242 l 726 228 q 734 271 731 250 q 742 314 738 292 l 854 953 l 978 953 l 810 0 l 697 0 l 328 663 q 306 700 317 681 q 285 739 294 719 l 278 738 q 269 690 274 714 q 261 642 265 665 l 149 0 l 25 0 z "},"Ǌ":{"ha":1697,"x_min":25,"x_max":1674,"o":"m 25 0 l 193 953 l 311 953 l 686 288 q 703 257 694 272 q 721 226 713 242 l 726 228 q 734 271 731 250 q 742 314 738 292 l 854 953 l 978 953 l 810 0 l 697 0 l 328 663 q 306 700 317 681 q 285 739 294 719 l 278 738 q 269 690 274 714 q 261 642 265 665 l 149 0 l 25 0 m 1243 -17 q 999 188 999 -17 q 1001 228 999 203 q 1011 289 1003 254 l 1143 289 q 1133 238 1136 260 q 1131 206 1131 215 q 1157 124 1131 151 q 1235 96 1183 96 q 1356 135 1308 96 q 1421 269 1404 174 l 1542 953 l 1674 953 l 1554 276 q 1447 51 1526 119 q 1243 -17 1368 -17 z "},"Ń":{"ha":1003,"x_min":25,"x_max":978,"o":"m 25 0 l 193 953 l 311 953 l 686 288 q 703 257 694 272 q 721 226 713 242 l 726 228 q 734 271 731 250 q 742 314 738 292 l 854 953 l 978 953 l 810 0 l 697 0 l 328 663 q 306 700 317 681 q 285 739 294 719 l 278 738 q 269 690 274 714 q 261 642 265 665 l 149 0 l 25 0 m 561 1022 l 711 1206 l 851 1206 l 853 1201 l 681 1022 l 561 1022 z "},"Ň":{"ha":1003,"x_min":25,"x_max":978,"o":"m 25 0 l 193 953 l 311 953 l 686 288 q 703 257 694 272 q 721 226 713 242 l 726 228 q 734 271 731 250 q 742 314 738 292 l 854 953 l 978 953 l 810 0 l 697 0 l 328 663 q 306 700 317 681 q 285 739 294 719 l 278 738 q 269 690 274 714 q 261 642 265 665 l 149 0 l 25 0 m 563 1018 l 449 1206 l 568 1206 l 631 1096 l 728 1206 l 858 1206 l 679 1018 l 563 1018 z "},"Ņ":{"ha":1003,"x_min":25,"x_max":978,"o":"m 25 0 l 193 953 l 311 953 l 686 288 q 703 257 694 272 q 721 226 713 242 l 726 228 q 734 271 731 250 q 742 314 738 292 l 854 953 l 978 953 l 810 0 l 697 0 l 328 663 q 306 700 317 681 q 285 739 294 719 l 278 738 q 269 690 274 714 q 261 642 265 665 l 149 0 l 25 0 m 318 -319 l 390 -207 l 342 -207 l 364 -81 l 486 -81 l 465 -197 l 383 -319 l 318 -319 z "},"Ṅ":{"ha":1003,"x_min":25,"x_max":978,"o":"m 25 0 l 193 953 l 311 953 l 686 288 q 703 257 694 272 q 721 226 713 242 l 726 228 q 734 271 731 250 q 742 314 738 292 l 854 953 l 978 953 l 810 0 l 697 0 l 328 663 q 306 700 317 681 q 285 739 294 719 l 278 738 q 269 690 274 714 q 261 642 265 665 l 149 0 l 25 0 m 569 1074 l 593 1206 l 714 1206 l 690 1074 l 569 1074 z "},"Ŋ":{"ha":1003,"x_min":25,"x_max":978,"o":"m 614 -253 q 563 -247 589 -253 q 521 -236 538 -242 l 535 -157 l 596 -157 q 671 -90 660 -157 l 689 14 l 319 675 q 299 711 307 693 q 279 747 292 729 l 272 746 q 268 697 269 722 q 264 649 267 672 l 149 0 l 25 0 l 193 953 l 311 953 l 686 288 q 703 257 694 272 q 721 226 713 242 l 726 228 q 734 271 731 250 q 742 314 738 292 l 854 953 l 978 953 l 794 -85 q 748 -200 783 -147 q 614 -253 713 -253 z "},"Ɲ":{"ha":1003,"x_min":-140,"x_max":978,"o":"m -47 -253 q -98 -247 -72 -253 q -140 -236 -124 -242 l -126 -157 l -65 -157 q 10 -90 -1 -157 l 193 953 l 311 953 l 686 288 q 703 257 694 272 q 721 226 713 242 l 726 228 q 734 271 731 250 q 742 314 738 292 l 854 953 l 978 953 l 810 0 l 697 0 l 350 621 q 317 680 333 650 q 285 739 301 710 l 278 738 q 265 660 272 699 q 251 583 258 622 l 133 -85 q 87 -200 122 -147 q -47 -253 51 -253 z "},"ǋ":{"ha":1311,"x_min":25,"x_max":1319,"o":"m 25 0 l 193 953 l 311 953 l 686 288 q 703 257 694 272 q 721 226 713 242 l 726 228 q 734 271 731 250 q 742 314 738 292 l 854 953 l 978 953 l 810 0 l 697 0 l 328 663 q 306 700 317 681 q 285 739 294 719 l 278 738 q 269 690 274 714 q 261 642 265 665 l 149 0 l 25 0 m 947 -253 q 897 -247 922 -253 q 854 -236 871 -242 l 868 -157 l 929 -157 q 1004 -90 993 -157 l 1150 731 l 1272 731 l 1128 -85 q 1081 -200 1117 -147 q 947 -253 1046 -253 m 1174 868 l 1197 1004 l 1319 1004 l 1296 868 l 1174 868 z "},"Ñ":{"ha":1003,"x_min":25,"x_max":978,"o":"m 25 0 l 193 953 l 311 953 l 686 288 q 703 257 694 272 q 721 226 713 242 l 726 228 q 734 271 731 250 q 742 314 738 292 l 854 953 l 978 953 l 810 0 l 697 0 l 328 663 q 306 700 317 681 q 285 739 294 719 l 278 738 q 269 690 274 714 q 261 642 265 665 l 149 0 l 25 0 m 401 1061 q 447 1163 411 1119 q 544 1206 482 1206 q 647 1184 603 1206 q 743 1163 690 1163 q 790 1206 779 1163 l 881 1206 q 835 1104 871 1147 q 736 1061 799 1061 q 634 1083 678 1061 q 538 1104 590 1104 q 490 1061 501 1104 l 401 1061 z "},"O":{"ha":1081,"x_min":51,"x_max":1028,"o":"m 464 -14 q 160 83 269 -15 q 51 356 51 181 q 64 489 51 424 q 246 847 104 724 q 617 969 388 969 q 919 872 811 969 q 1028 603 1028 775 q 1015 469 1028 533 q 833 109 975 233 q 464 -14 692 -15 m 464 97 q 744 195 640 99 q 882 489 847 292 q 890 544 888 517 q 892 603 892 572 q 819 791 892 724 q 617 858 746 858 q 335 762 439 858 q 197 469 232 665 q 190 414 193 443 q 188 356 188 385 q 260 167 188 235 q 464 97 333 99 z "},"Ó":{"ha":1081,"x_min":51,"x_max":1028,"o":"m 464 -14 q 160 83 269 -15 q 51 356 51 181 q 64 489 51 424 q 246 847 104 724 q 617 969 388 969 q 919 872 811 969 q 1028 603 1028 775 q 1015 469 1028 533 q 833 109 975 233 q 464 -14 692 -15 m 464 97 q 744 195 640 99 q 882 489 847 292 q 890 544 888 517 q 892 603 892 572 q 819 791 892 724 q 617 858 746 858 q 335 762 439 858 q 197 469 232 665 q 190 414 193 443 q 188 356 188 385 q 260 167 188 235 q 464 97 333 99 m 558 1022 l 708 1206 l 849 1206 l 850 1201 l 678 1022 l 558 1022 z "},"Ŏ":{"ha":1081,"x_min":51,"x_max":1028,"o":"m 464 -14 q 160 83 269 -15 q 51 356 51 181 q 64 489 51 424 q 246 847 104 724 q 617 969 388 969 q 919 872 811 969 q 1028 603 1028 775 q 1015 469 1028 533 q 833 109 975 233 q 464 -14 692 -15 m 464 97 q 744 195 640 99 q 882 489 847 292 q 890 544 888 517 q 892 603 892 572 q 819 791 892 724 q 617 858 746 858 q 335 762 439 858 q 197 469 232 665 q 190 414 193 443 q 188 356 188 385 q 260 167 188 235 q 464 97 333 99 m 619 1043 q 473 1083 513 1043 q 433 1174 433 1124 q 436 1206 433 1194 l 521 1206 q 538 1157 522 1182 q 618 1132 554 1132 q 716 1157 683 1132 q 756 1206 749 1182 l 840 1206 q 817 1144 835 1175 q 769 1090 800 1113 q 706 1056 743 1069 q 619 1043 668 1043 z "},"Ǒ":{"ha":1081,"x_min":51,"x_max":1028,"o":"m 464 -14 q 160 83 269 -15 q 51 356 51 181 q 64 489 51 424 q 246 847 104 724 q 617 969 388 969 q 919 872 811 969 q 1028 603 1028 775 q 1015 469 1028 533 q 833 109 975 233 q 464 -14 692 -15 m 464 97 q 744 195 640 99 q 882 489 847 292 q 890 544 888 517 q 892 603 892 572 q 819 791 892 724 q 617 858 746 858 q 335 762 439 858 q 197 469 232 665 q 190 414 193 443 q 188 356 188 385 q 260 167 188 235 q 464 97 333 99 m 560 1018 l 446 1206 l 565 1206 l 628 1096 l 725 1206 l 856 1206 l 676 1018 l 560 1018 z "},"Ô":{"ha":1081,"x_min":51,"x_max":1028,"o":"m 464 -14 q 160 83 269 -15 q 51 356 51 181 q 64 489 51 424 q 246 847 104 724 q 617 969 388 969 q 919 872 811 969 q 1028 603 1028 775 q 1015 469 1028 533 q 833 109 975 233 q 464 -14 692 -15 m 464 97 q 744 195 640 99 q 882 489 847 292 q 890 544 888 517 q 892 603 892 572 q 819 791 892 724 q 617 858 746 858 q 335 762 439 858 q 197 469 232 665 q 190 414 193 443 q 188 356 188 385 q 260 167 188 235 q 464 97 333 99 m 407 1018 l 586 1206 l 703 1206 l 817 1018 l 697 1018 l 638 1128 l 538 1018 l 407 1018 z "},"Ố":{"ha":1081,"x_min":51,"x_max":1046,"o":"m 464 -14 q 160 83 269 -15 q 51 356 51 181 q 64 489 51 424 q 246 847 104 724 q 617 969 388 969 q 919 872 811 969 q 1028 603 1028 775 q 1015 469 1028 533 q 833 109 975 233 q 464 -14 692 -15 m 464 97 q 744 195 640 99 q 882 489 847 292 q 890 544 888 517 q 892 603 892 572 q 819 791 892 724 q 617 858 746 858 q 335 762 439 858 q 197 469 232 665 q 190 414 193 443 q 188 356 188 385 q 260 167 188 235 q 464 97 333 99 m 407 1018 l 586 1206 l 703 1206 l 817 1018 l 697 1018 l 638 1128 l 538 1018 l 407 1018 m 754 1154 l 904 1338 l 1044 1338 l 1046 1333 l 874 1154 l 754 1154 z "},"Ộ":{"ha":1081,"x_min":51,"x_max":1028,"o":"m 464 -14 q 160 83 269 -15 q 51 356 51 181 q 64 489 51 424 q 246 847 104 724 q 617 969 388 969 q 919 872 811 969 q 1028 603 1028 775 q 1015 469 1028 533 q 833 109 975 233 q 464 -14 692 -15 m 464 97 q 744 195 640 99 q 882 489 847 292 q 890 544 888 517 q 892 603 892 572 q 819 791 892 724 q 617 858 746 858 q 335 762 439 858 q 197 469 232 665 q 190 414 193 443 q 188 356 188 385 q 260 167 188 235 q 464 97 333 99 m 407 1018 l 586 1206 l 703 1206 l 817 1018 l 697 1018 l 638 1128 l 538 1018 l 407 1018 z "},"Ồ":{"ha":1081,"x_min":51,"x_max":1028,"o":"m 464 -14 q 160 83 269 -15 q 51 356 51 181 q 64 489 51 424 q 246 847 104 724 q 617 969 388 969 q 919 872 811 969 q 1028 603 1028 775 q 1015 469 1028 533 q 833 109 975 233 q 464 -14 692 -15 m 464 97 q 744 195 640 99 q 882 489 847 292 q 890 544 888 517 q 892 603 892 572 q 819 791 892 724 q 617 858 746 858 q 335 762 439 858 q 197 469 232 665 q 190 414 193 443 q 188 356 188 385 q 260 167 188 235 q 464 97 333 99 m 407 1018 l 586 1206 l 703 1206 l 817 1018 l 697 1018 l 638 1128 l 538 1018 l 407 1018 m 817 1154 l 699 1333 l 700 1338 l 833 1338 l 921 1154 l 817 1154 z "},"Ổ":{"ha":1081,"x_min":51,"x_max":1028,"o":"m 464 -14 q 160 83 269 -15 q 51 356 51 181 q 64 489 51 424 q 246 847 104 724 q 617 969 388 969 q 919 872 811 969 q 1028 603 1028 775 q 1015 469 1028 533 q 833 109 975 233 q 464 -14 692 -15 m 464 97 q 744 195 640 99 q 882 489 847 292 q 890 544 888 517 q 892 603 892 572 q 819 791 892 724 q 617 858 746 858 q 335 762 439 858 q 197 469 232 665 q 190 414 193 443 q 188 356 188 385 q 260 167 188 235 q 464 97 333 99 m 407 1018 l 586 1206 l 703 1206 l 817 1018 l 697 1018 l 638 1128 l 538 1018 l 407 1018 m 775 1154 l 790 1239 l 808 1239 q 853 1269 853 1239 q 814 1289 853 1289 l 731 1289 l 740 1343 q 843 1354 789 1354 q 918 1341 881 1354 q 956 1286 956 1328 q 926 1218 956 1240 q 860 1193 896 1196 l 853 1154 l 775 1154 z "},"Ỗ":{"ha":1081,"x_min":51,"x_max":1028,"o":"m 464 -14 q 160 83 269 -15 q 51 356 51 181 q 64 489 51 424 q 246 847 104 724 q 617 969 388 969 q 919 872 811 969 q 1028 603 1028 775 q 1015 469 1028 533 q 833 109 975 233 q 464 -14 692 -15 m 464 97 q 744 195 640 99 q 882 489 847 292 q 890 544 888 517 q 892 603 892 572 q 819 791 892 724 q 617 858 746 858 q 335 762 439 858 q 197 469 232 665 q 190 414 193 443 q 188 356 188 385 q 260 167 188 235 q 464 97 333 99 m 407 1018 l 586 1206 l 703 1206 l 817 1018 l 697 1018 l 638 1128 l 538 1018 l 407 1018 m 433 1283 q 478 1385 443 1342 q 576 1428 514 1428 q 678 1406 635 1428 q 775 1385 722 1385 q 822 1428 811 1385 l 913 1428 q 867 1326 903 1369 q 768 1283 831 1283 q 666 1305 710 1283 q 569 1326 622 1326 q 522 1283 533 1326 l 433 1283 z "},"Ȍ":{"ha":1081,"x_min":51,"x_max":1028,"o":"m 464 -14 q 160 83 269 -15 q 51 356 51 181 q 64 489 51 424 q 246 847 104 724 q 617 969 388 969 q 919 872 811 969 q 1028 603 1028 775 q 1015 469 1028 533 q 833 109 975 233 q 464 -14 692 -15 m 464 97 q 744 195 640 99 q 882 489 847 292 q 890 544 888 517 q 892 603 892 572 q 819 791 892 724 q 617 858 746 858 q 335 762 439 858 q 197 469 232 665 q 190 414 193 443 q 188 356 188 385 q 260 167 188 235 q 464 97 333 99 m 682 1022 l 597 1201 l 600 1206 l 735 1206 l 788 1022 l 682 1022 m 489 1022 l 404 1201 l 407 1206 l 542 1206 l 594 1022 l 489 1022 z "},"Ö":{"ha":1081,"x_min":51,"x_max":1028,"o":"m 464 -14 q 160 83 269 -15 q 51 356 51 181 q 64 489 51 424 q 246 847 104 724 q 617 969 388 969 q 919 872 811 969 q 1028 603 1028 775 q 1015 469 1028 533 q 833 109 975 233 q 464 -14 692 -15 m 464 97 q 744 195 640 99 q 882 489 847 292 q 890 544 888 517 q 892 603 892 572 q 819 791 892 724 q 617 858 746 858 q 335 762 439 858 q 197 469 232 665 q 190 414 193 443 q 188 356 188 385 q 260 167 188 235 q 464 97 333 99 m 697 1074 l 721 1206 l 842 1206 l 818 1074 l 697 1074 m 438 1074 l 461 1206 l 582 1206 l 558 1074 l 438 1074 z "},"Ọ":{"ha":1081,"x_min":51,"x_max":1028,"o":"m 464 -14 q 160 83 269 -15 q 51 356 51 181 q 64 489 51 424 q 246 847 104 724 q 617 969 388 969 q 919 872 811 969 q 1028 603 1028 775 q 1015 469 1028 533 q 833 109 975 233 q 464 -14 692 -15 m 464 97 q 744 195 640 99 q 882 489 847 292 q 890 544 888 517 q 892 603 892 572 q 819 791 892 724 q 617 858 746 858 q 335 762 439 858 q 197 469 232 665 q 190 414 193 443 q 188 356 188 385 q 260 167 188 235 q 464 97 333 99 z "},"Ò":{"ha":1081,"x_min":51,"x_max":1028,"o":"m 464 -14 q 160 83 269 -15 q 51 356 51 181 q 64 489 51 424 q 246 847 104 724 q 617 969 388 969 q 919 872 811 969 q 1028 603 1028 775 q 1015 469 1028 533 q 833 109 975 233 q 464 -14 692 -15 m 464 97 q 744 195 640 99 q 882 489 847 292 q 890 544 888 517 q 892 603 892 572 q 819 791 892 724 q 617 858 746 858 q 335 762 439 858 q 197 469 232 665 q 190 414 193 443 q 188 356 188 385 q 260 167 188 235 q 464 97 333 99 m 567 1022 l 449 1201 l 450 1206 l 583 1206 l 671 1022 l 567 1022 z "},"Ỏ":{"ha":1081,"x_min":51,"x_max":1028,"o":"m 464 -14 q 160 83 269 -15 q 51 356 51 181 q 64 489 51 424 q 246 847 104 724 q 617 969 388 969 q 919 872 811 969 q 1028 603 1028 775 q 1015 469 1028 533 q 833 109 975 233 q 464 -14 692 -15 m 464 97 q 744 195 640 99 q 882 489 847 292 q 890 544 888 517 q 892 603 892 572 q 819 791 892 724 q 617 858 746 858 q 335 762 439 858 q 197 469 232 665 q 190 414 193 443 q 188 356 188 385 q 260 167 188 235 q 464 97 333 99 m 581 1022 l 596 1107 l 614 1107 q 658 1138 658 1107 q 619 1157 658 1157 l 536 1157 l 546 1211 q 649 1222 594 1222 q 724 1209 686 1222 q 761 1154 761 1196 q 731 1086 761 1108 q 665 1061 701 1064 l 658 1022 l 581 1022 z "},"Ơ":{"ha":1081,"x_min":51,"x_max":1157,"o":"m 464 -14 q 160 83 269 -15 q 51 356 51 181 q 64 489 51 424 q 246 847 104 724 q 617 969 388 969 q 919 872 811 969 q 1028 603 1028 775 q 1015 469 1028 533 q 833 109 975 233 q 464 -14 692 -15 m 464 97 q 744 195 640 99 q 882 489 847 292 q 890 544 888 517 q 892 603 892 572 q 819 791 892 724 q 617 858 746 858 q 335 762 439 858 q 197 469 232 665 q 190 414 193 443 q 188 356 188 385 q 260 167 188 235 q 464 97 333 99 m 846 799 l 846 876 q 1054 1056 1028 896 l 1144 1075 q 1051 884 1126 956 q 846 799 976 813 m 978 1000 l 1004 1150 l 1157 1150 l 1144 1075 l 1074 1000 l 978 1000 z "},"Ớ":{"ha":1081,"x_min":51,"x_max":1157,"o":"m 464 -14 q 160 83 269 -15 q 51 356 51 181 q 64 489 51 424 q 246 847 104 724 q 617 969 388 969 q 919 872 811 969 q 1028 603 1028 775 q 1015 469 1028 533 q 833 109 975 233 q 464 -14 692 -15 m 464 97 q 744 195 640 99 q 882 489 847 292 q 890 544 888 517 q 892 603 892 572 q 819 791 892 724 q 617 858 746 858 q 335 762 439 858 q 197 469 232 665 q 190 414 193 443 q 188 356 188 385 q 260 167 188 235 q 464 97 333 99 m 846 799 l 846 876 q 1054 1056 1028 896 l 1144 1075 q 1051 884 1126 956 q 846 799 976 813 m 978 1000 l 1004 1150 l 1157 1150 l 1144 1075 l 1074 1000 l 978 1000 m 558 1022 l 708 1206 l 849 1206 l 850 1201 l 678 1022 l 558 1022 z "},"Ợ":{"ha":1081,"x_min":51,"x_max":1157,"o":"m 464 -14 q 160 83 269 -15 q 51 356 51 181 q 64 489 51 424 q 246 847 104 724 q 617 969 388 969 q 919 872 811 969 q 1028 603 1028 775 q 1015 469 1028 533 q 833 109 975 233 q 464 -14 692 -15 m 464 97 q 744 195 640 99 q 882 489 847 292 q 890 544 888 517 q 892 603 892 572 q 819 791 892 724 q 617 858 746 858 q 335 762 439 858 q 197 469 232 665 q 190 414 193 443 q 188 356 188 385 q 260 167 188 235 q 464 97 333 99 m 846 799 l 846 876 q 1054 1056 1028 896 l 1144 1075 q 1051 884 1126 956 q 846 799 976 813 m 978 1000 l 1004 1150 l 1157 1150 l 1144 1075 l 1074 1000 l 978 1000 z "},"Ờ":{"ha":1081,"x_min":51,"x_max":1157,"o":"m 464 -14 q 160 83 269 -15 q 51 356 51 181 q 64 489 51 424 q 246 847 104 724 q 617 969 388 969 q 919 872 811 969 q 1028 603 1028 775 q 1015 469 1028 533 q 833 109 975 233 q 464 -14 692 -15 m 464 97 q 744 195 640 99 q 882 489 847 292 q 890 544 888 517 q 892 603 892 572 q 819 791 892 724 q 617 858 746 858 q 335 762 439 858 q 197 469 232 665 q 190 414 193 443 q 188 356 188 385 q 260 167 188 235 q 464 97 333 99 m 846 799 l 846 876 q 1054 1056 1028 896 l 1144 1075 q 1051 884 1126 956 q 846 799 976 813 m 978 1000 l 1004 1150 l 1157 1150 l 1144 1075 l 1074 1000 l 978 1000 m 567 1022 l 449 1201 l 450 1206 l 583 1206 l 671 1022 l 567 1022 z "},"Ở":{"ha":1081,"x_min":51,"x_max":1157,"o":"m 464 -14 q 160 83 269 -15 q 51 356 51 181 q 64 489 51 424 q 246 847 104 724 q 617 969 388 969 q 919 872 811 969 q 1028 603 1028 775 q 1015 469 1028 533 q 833 109 975 233 q 464 -14 692 -15 m 464 97 q 744 195 640 99 q 882 489 847 292 q 890 544 888 517 q 892 603 892 572 q 819 791 892 724 q 617 858 746 858 q 335 762 439 858 q 197 469 232 665 q 190 414 193 443 q 188 356 188 385 q 260 167 188 235 q 464 97 333 99 m 846 799 l 846 876 q 1054 1056 1028 896 l 1144 1075 q 1051 884 1126 956 q 846 799 976 813 m 978 1000 l 1004 1150 l 1157 1150 l 1144 1075 l 1074 1000 l 978 1000 m 581 1022 l 596 1107 l 614 1107 q 658 1138 658 1107 q 619 1157 658 1157 l 536 1157 l 546 1211 q 649 1222 594 1222 q 724 1209 686 1222 q 761 1154 761 1196 q 731 1086 761 1108 q 665 1061 701 1064 l 658 1022 l 581 1022 z "},"Ỡ":{"ha":1081,"x_min":51,"x_max":1157,"o":"m 464 -14 q 160 83 269 -15 q 51 356 51 181 q 64 489 51 424 q 246 847 104 724 q 617 969 388 969 q 919 872 811 969 q 1028 603 1028 775 q 1015 469 1028 533 q 833 109 975 233 q 464 -14 692 -15 m 464 97 q 744 195 640 99 q 882 489 847 292 q 890 544 888 517 q 892 603 892 572 q 819 791 892 724 q 617 858 746 858 q 335 762 439 858 q 197 469 232 665 q 190 414 193 443 q 188 356 188 385 q 260 167 188 235 q 464 97 333 99 m 846 799 l 846 876 q 1054 1056 1028 896 l 1144 1075 q 1051 884 1126 956 q 846 799 976 813 m 978 1000 l 1004 1150 l 1157 1150 l 1144 1075 l 1074 1000 l 978 1000 m 399 1061 q 444 1163 408 1119 q 542 1206 479 1206 q 644 1184 600 1206 q 740 1163 688 1163 q 788 1206 776 1163 l 878 1206 q 832 1104 868 1147 q 733 1061 796 1061 q 631 1083 675 1061 q 535 1104 588 1104 q 488 1061 499 1104 l 399 1061 z "},"Ő":{"ha":1081,"x_min":51,"x_max":1028,"o":"m 464 -14 q 160 83 269 -15 q 51 356 51 181 q 64 489 51 424 q 246 847 104 724 q 617 969 388 969 q 919 872 811 969 q 1028 603 1028 775 q 1015 469 1028 533 q 833 109 975 233 q 464 -14 692 -15 m 464 97 q 744 195 640 99 q 882 489 847 292 q 890 544 888 517 q 892 603 892 572 q 819 791 892 724 q 617 858 746 858 q 335 762 439 858 q 197 469 232 665 q 190 414 193 443 q 188 356 188 385 q 260 167 188 235 q 464 97 333 99 m 663 1022 l 781 1206 l 921 1206 l 922 1201 l 774 1022 l 663 1022 m 464 1022 l 582 1206 l 722 1206 l 724 1201 l 575 1022 l 464 1022 z "},"Ȏ":{"ha":1081,"x_min":51,"x_max":1028,"o":"m 464 -14 q 160 83 269 -15 q 51 356 51 181 q 64 489 51 424 q 246 847 104 724 q 617 969 388 969 q 919 872 811 969 q 1028 603 1028 775 q 1015 469 1028 533 q 833 109 975 233 q 464 -14 692 -15 m 464 97 q 744 195 640 99 q 882 489 847 292 q 890 544 888 517 q 892 603 892 572 q 819 791 892 724 q 617 858 746 858 q 335 762 439 858 q 197 469 232 665 q 190 414 193 443 q 188 356 188 385 q 260 167 188 235 q 464 97 333 99 m 419 1043 q 478 1153 431 1100 q 650 1206 525 1206 q 787 1163 747 1206 q 826 1068 826 1121 q 824 1043 826 1060 l 739 1043 q 721 1091 740 1065 q 635 1117 701 1117 q 541 1091 568 1117 q 504 1043 514 1065 l 419 1043 z "},"Ō":{"ha":1081,"x_min":51,"x_max":1028,"o":"m 464 -14 q 160 83 269 -15 q 51 356 51 181 q 64 489 51 424 q 246 847 104 724 q 617 969 388 969 q 919 872 811 969 q 1028 603 1028 775 q 1015 469 1028 533 q 833 109 975 233 q 464 -14 692 -15 m 464 97 q 744 195 640 99 q 882 489 847 292 q 890 544 888 517 q 892 603 892 572 q 819 791 892 724 q 617 858 746 858 q 335 762 439 858 q 197 469 232 665 q 190 414 193 443 q 188 356 188 385 q 260 167 188 235 q 464 97 333 99 m 417 1072 l 435 1172 l 858 1172 l 840 1072 l 417 1072 z "},"Ǫ":{"ha":1081,"x_min":51,"x_max":1028,"o":"m 464 -14 q 160 83 269 -15 q 51 356 51 181 q 64 489 51 424 q 246 847 104 724 q 617 969 388 969 q 919 872 811 969 q 1028 603 1028 775 q 1015 469 1028 533 q 833 109 975 233 q 464 -14 692 -15 m 464 97 q 744 195 640 99 q 882 489 847 292 q 890 544 888 517 q 892 603 892 572 q 819 791 892 724 q 617 858 746 858 q 335 762 439 858 q 197 469 232 665 q 190 414 193 443 q 188 356 188 385 q 260 167 188 235 q 464 97 333 99 m 589 -253 q 506 -231 546 -253 q 467 -150 467 -208 q 501 -50 467 -89 q 574 17 535 -11 l 656 17 l 656 11 q 608 -39 632 -8 q 585 -106 585 -69 q 598 -145 585 -128 q 646 -162 611 -162 l 690 -162 l 678 -233 q 589 -253 628 -253 z "},"Ø":{"ha":1081,"x_min":11,"x_max":1071,"o":"m 11 -68 l 146 88 q 53 344 53 178 q 111 649 53 517 q 274 861 169 781 q 613 969 417 969 q 863 915 764 969 l 954 1021 l 1071 1021 l 935 864 q 1028 606 1028 771 q 972 310 1028 439 q 818 101 917 182 q 659 14 749 44 q 467 -17 569 -17 q 217 35 314 -17 l 128 -68 l 11 -68 m 233 189 l 782 822 q 621 857 718 857 q 357 769 465 857 q 210 525 249 682 q 195 444 200 486 q 190 358 190 403 q 233 189 190 249 m 458 96 q 734 192 621 96 q 879 460 847 288 q 889 524 886 492 q 892 592 892 556 q 847 763 892 699 l 299 129 q 458 96 360 96 z "},"Ǿ":{"ha":1081,"x_min":11,"x_max":1071,"o":"m 11 -68 l 146 88 q 53 344 53 178 q 111 649 53 517 q 274 861 169 781 q 613 969 417 969 q 863 915 764 969 l 954 1021 l 1071 1021 l 935 864 q 1028 606 1028 771 q 972 310 1028 439 q 818 101 917 182 q 659 14 749 44 q 467 -17 569 -17 q 217 35 314 -17 l 128 -68 l 11 -68 m 233 189 l 782 822 q 621 857 718 857 q 357 769 465 857 q 210 525 249 682 q 195 444 200 486 q 190 358 190 403 q 233 189 190 249 m 458 96 q 734 192 621 96 q 879 460 847 288 q 889 524 886 492 q 892 592 892 556 q 847 763 892 699 l 299 129 q 458 96 360 96 m 600 1022 l 750 1206 l 890 1206 l 892 1201 l 719 1022 l 600 1022 z "},"Õ":{"ha":1081,"x_min":51,"x_max":1028,"o":"m 464 -14 q 160 83 269 -15 q 51 356 51 181 q 64 489 51 424 q 246 847 104 724 q 617 969 388 969 q 919 872 811 969 q 1028 603 1028 775 q 1015 469 1028 533 q 833 109 975 233 q 464 -14 692 -15 m 464 97 q 744 195 640 99 q 882 489 847 292 q 890 544 888 517 q 892 603 892 572 q 819 791 892 724 q 617 858 746 858 q 335 762 439 858 q 197 469 232 665 q 190 414 193 443 q 188 356 188 385 q 260 167 188 235 q 464 97 333 99 m 399 1061 q 444 1163 408 1119 q 542 1206 479 1206 q 644 1184 600 1206 q 740 1163 688 1163 q 788 1206 776 1163 l 878 1206 q 832 1104 868 1147 q 733 1061 796 1061 q 631 1083 675 1061 q 535 1104 588 1104 q 488 1061 499 1104 l 399 1061 z "},"Œ":{"ha":1389,"x_min":53,"x_max":1389,"o":"m 375 -17 q 137 67 221 -17 q 53 318 53 150 q 68 476 53 385 q 228 847 110 725 q 521 969 347 969 q 772 847 694 969 l 790 953 l 1389 953 l 1369 842 l 903 842 l 850 543 l 1240 543 l 1221 432 l 831 432 l 774 111 l 1250 111 l 1231 0 l 622 0 l 640 106 q 375 -17 532 -17 m 399 96 q 590 181 510 96 q 707 476 669 267 q 722 628 722 568 q 668 806 722 756 q 521 857 614 857 q 318 769 397 857 q 204 476 239 681 q 193 395 197 433 q 189 325 189 357 q 243 149 189 201 q 399 96 297 96 z "},"P":{"ha":926,"x_min":25,"x_max":907,"o":"m 25 0 l 193 953 l 643 953 q 842 884 776 953 q 907 703 907 815 q 809 460 907 556 q 567 365 711 365 l 221 365 l 157 0 l 25 0 m 242 481 l 567 481 q 713 538 653 481 q 772 693 772 594 q 629 838 772 838 l 304 838 l 242 481 z "},"Þ":{"ha":926,"x_min":25,"x_max":878,"o":"m 25 0 l 193 953 l 325 953 l 296 788 l 614 788 q 813 719 747 788 q 878 538 878 650 q 780 294 878 389 q 538 200 682 200 l 192 200 l 157 0 l 25 0 m 213 315 l 538 315 q 683 373 622 315 q 743 528 743 431 q 600 672 743 672 l 275 672 l 213 315 z "},"Q":{"ha":1081,"x_min":53,"x_max":1028,"o":"m 675 -181 l 536 -12 q 501 -15 519 -14 q 467 -17 483 -17 q 161 74 269 -17 q 53 344 53 164 q 108 642 53 513 q 264 853 164 772 q 613 969 407 969 q 919 878 811 969 q 1028 606 1028 788 q 931 231 1028 385 q 672 18 835 78 l 843 -181 l 675 -181 m 458 96 q 715 176 607 96 q 867 404 822 257 q 885 492 879 446 q 892 592 892 539 q 819 796 892 735 q 621 857 747 857 q 358 771 467 857 q 211 531 250 685 q 195 449 200 492 q 190 358 190 406 q 261 157 190 218 q 458 96 332 96 z "},"R":{"ha":1003,"x_min":25,"x_max":943,"o":"m 25 0 l 193 953 l 675 953 q 877 887 811 953 q 943 713 943 821 q 879 522 943 603 q 715 410 815 440 l 861 0 l 719 0 l 582 393 l 226 393 l 157 0 l 25 0 m 247 508 l 604 508 q 747 560 688 508 q 807 706 807 613 q 661 838 807 838 l 304 838 l 247 508 z "},"Ŕ":{"ha":1003,"x_min":25,"x_max":943,"o":"m 25 0 l 193 953 l 675 953 q 877 887 811 953 q 943 713 943 821 q 879 522 943 603 q 715 410 815 440 l 861 0 l 719 0 l 582 393 l 226 393 l 157 0 l 25 0 m 247 508 l 604 508 q 747 560 688 508 q 807 706 807 613 q 661 838 807 838 l 304 838 l 247 508 m 561 1022 l 711 1206 l 851 1206 l 853 1201 l 681 1022 l 561 1022 z "},"Ř":{"ha":1003,"x_min":25,"x_max":943,"o":"m 25 0 l 193 953 l 675 953 q 877 887 811 953 q 943 713 943 821 q 879 522 943 603 q 715 410 815 440 l 861 0 l 719 0 l 582 393 l 226 393 l 157 0 l 25 0 m 247 508 l 604 508 q 747 560 688 508 q 807 706 807 613 q 661 838 807 838 l 304 838 l 247 508 m 499 1018 l 385 1206 l 504 1206 l 567 1096 l 664 1206 l 794 1206 l 615 1018 l 499 1018 z "},"Ŗ":{"ha":1003,"x_min":25,"x_max":943,"o":"m 25 0 l 193 953 l 675 953 q 877 887 811 953 q 943 713 943 821 q 879 522 943 603 q 715 410 815 440 l 861 0 l 719 0 l 582 393 l 226 393 l 157 0 l 25 0 m 247 508 l 604 508 q 747 560 688 508 q 807 706 807 613 q 661 838 807 838 l 304 838 l 247 508 m 318 -319 l 390 -207 l 342 -207 l 364 -81 l 486 -81 l 465 -197 l 383 -319 l 318 -319 z "},"Ȑ":{"ha":1003,"x_min":25,"x_max":943,"o":"m 25 0 l 193 953 l 675 953 q 877 887 811 953 q 943 713 943 821 q 879 522 943 603 q 715 410 815 440 l 861 0 l 719 0 l 582 393 l 226 393 l 157 0 l 25 0 m 247 508 l 604 508 q 747 560 688 508 q 807 706 807 613 q 661 838 807 838 l 304 838 l 247 508 m 621 1022 l 536 1201 l 539 1206 l 674 1206 l 726 1022 l 621 1022 m 428 1022 l 343 1201 l 346 1206 l 481 1206 l 533 1022 l 428 1022 z "},"Ṛ":{"ha":1003,"x_min":25,"x_max":943,"o":"m 25 0 l 193 953 l 675 953 q 877 887 811 953 q 943 713 943 821 q 879 522 943 603 q 715 410 815 440 l 861 0 l 719 0 l 582 393 l 226 393 l 157 0 l 25 0 m 247 508 l 604 508 q 747 560 688 508 q 807 706 807 613 q 661 838 807 838 l 304 838 l 247 508 z "},"Ȓ":{"ha":1003,"x_min":25,"x_max":943,"o":"m 25 0 l 193 953 l 675 953 q 877 887 811 953 q 943 713 943 821 q 879 522 943 603 q 715 410 815 440 l 861 0 l 719 0 l 582 393 l 226 393 l 157 0 l 25 0 m 247 508 l 604 508 q 747 560 688 508 q 807 706 807 613 q 661 838 807 838 l 304 838 l 247 508 m 358 1043 q 417 1153 369 1100 q 589 1206 464 1206 q 726 1163 686 1206 q 765 1068 765 1121 q 763 1043 765 1060 l 678 1043 q 660 1091 679 1065 q 574 1117 640 1117 q 480 1091 507 1117 q 443 1043 453 1065 l 358 1043 z "},"S":{"ha":926,"x_min":26,"x_max":871,"o":"m 401 -17 q 135 36 244 -17 q 26 215 26 89 q 38 297 26 264 l 168 297 q 161 269 165 286 q 157 238 157 253 q 220 131 157 165 q 386 96 283 96 q 603 141 522 96 q 685 271 685 186 q 628 370 685 336 q 490 426 572 404 q 324 475 407 447 q 185 553 242 503 q 129 694 129 603 q 185 849 129 789 q 332 940 242 910 q 521 969 422 969 q 771 918 671 969 q 871 753 871 867 q 869 723 871 740 q 864 685 868 706 l 735 685 q 740 711 739 700 q 740 728 740 722 q 683 824 740 790 q 533 857 625 857 q 344 822 422 857 q 267 710 267 786 q 323 616 267 649 q 462 561 379 583 q 628 511 544 539 q 767 433 711 483 q 824 290 824 382 q 763 113 824 181 q 605 14 701 44 q 401 -17 508 -17 z "},"Ś":{"ha":926,"x_min":26,"x_max":871,"o":"m 401 -17 q 135 36 244 -17 q 26 215 26 89 q 38 297 26 264 l 168 297 q 161 269 165 286 q 157 238 157 253 q 220 131 157 165 q 386 96 283 96 q 603 141 522 96 q 685 271 685 186 q 628 370 685 336 q 490 426 572 404 q 324 475 407 447 q 185 553 242 503 q 129 694 129 603 q 185 849 129 789 q 332 940 242 910 q 521 969 422 969 q 771 918 671 969 q 871 753 871 867 q 869 723 871 740 q 864 685 868 706 l 735 685 q 740 711 739 700 q 740 728 740 722 q 683 824 740 790 q 533 857 625 857 q 344 822 422 857 q 267 710 267 786 q 323 616 267 649 q 462 561 379 583 q 628 511 544 539 q 767 433 711 483 q 824 290 824 382 q 763 113 824 181 q 605 14 701 44 q 401 -17 508 -17 m 524 1022 l 674 1206 l 814 1206 l 815 1201 l 643 1022 l 524 1022 z "},"Ꞌ":{"ha":238,"x_min":35,"x_max":290,"o":"m 35 289 l 151 953 l 290 953 l 267 815 l 101 289 l 35 289 z "},"Š":{"ha":926,"x_min":26,"x_max":871,"o":"m 401 -17 q 135 36 244 -17 q 26 215 26 89 q 38 297 26 264 l 168 297 q 161 269 165 286 q 157 238 157 253 q 220 131 157 165 q 386 96 283 96 q 603 141 522 96 q 685 271 685 186 q 628 370 685 336 q 490 426 572 404 q 324 475 407 447 q 185 553 242 503 q 129 694 129 603 q 185 849 129 789 q 332 940 242 910 q 521 969 422 969 q 771 918 671 969 q 871 753 871 867 q 869 723 871 740 q 864 685 868 706 l 735 685 q 740 711 739 700 q 740 728 740 722 q 683 824 740 790 q 533 857 625 857 q 344 822 422 857 q 267 710 267 786 q 323 616 267 649 q 462 561 379 583 q 628 511 544 539 q 767 433 711 483 q 824 290 824 382 q 763 113 824 181 q 605 14 701 44 q 401 -17 508 -17 m 525 1018 l 411 1206 l 531 1206 l 593 1096 l 690 1206 l 821 1206 l 642 1018 l 525 1018 z "},"Ş":{"ha":926,"x_min":26,"x_max":871,"o":"m 365 -253 q 222 -242 285 -253 l 235 -174 l 374 -174 q 436 -132 436 -174 q 388 -107 436 -107 l 317 -107 l 350 -15 q 119 45 211 -8 q 26 215 26 99 q 38 297 26 264 l 168 297 q 161 269 165 286 q 157 238 157 253 q 220 131 157 165 q 386 96 283 96 q 603 141 522 96 q 685 271 685 186 q 628 370 685 336 q 490 426 572 404 q 324 475 407 447 q 185 553 242 503 q 129 694 129 603 q 185 849 129 789 q 332 940 242 910 q 521 969 422 969 q 771 918 671 969 q 871 753 871 867 q 869 723 871 740 q 864 685 868 706 l 735 685 q 740 711 739 700 q 740 728 740 722 q 683 824 740 790 q 533 857 625 857 q 344 822 422 857 q 267 710 267 786 q 323 616 267 649 q 462 561 379 583 q 628 511 544 539 q 767 433 711 483 q 824 290 824 382 q 705 63 824 133 q 436 -15 586 -8 l 424 -50 q 504 -69 471 -50 q 538 -131 538 -87 q 511 -208 538 -182 q 445 -244 485 -235 q 365 -253 406 -253 z "},"Ŝ":{"ha":926,"x_min":26,"x_max":871,"o":"m 401 -17 q 135 36 244 -17 q 26 215 26 89 q 38 297 26 264 l 168 297 q 161 269 165 286 q 157 238 157 253 q 220 131 157 165 q 386 96 283 96 q 603 141 522 96 q 685 271 685 186 q 628 370 685 336 q 490 426 572 404 q 324 475 407 447 q 185 553 242 503 q 129 694 129 603 q 185 849 129 789 q 332 940 242 910 q 521 969 422 969 q 771 918 671 969 q 871 753 871 867 q 869 723 871 740 q 864 685 868 706 l 735 685 q 740 711 739 700 q 740 728 740 722 q 683 824 740 790 q 533 857 625 857 q 344 822 422 857 q 267 710 267 786 q 323 616 267 649 q 462 561 379 583 q 628 511 544 539 q 767 433 711 483 q 824 290 824 382 q 763 113 824 181 q 605 14 701 44 q 401 -17 508 -17 m 331 1018 l 510 1206 l 626 1206 l 740 1018 l 621 1018 l 561 1128 l 461 1018 l 331 1018 z "},"Ș":{"ha":926,"x_min":26,"x_max":871,"o":"m 401 -17 q 135 36 244 -17 q 26 215 26 89 q 38 297 26 264 l 168 297 q 161 269 165 286 q 157 238 157 253 q 220 131 157 165 q 386 96 283 96 q 603 141 522 96 q 685 271 685 186 q 628 370 685 336 q 490 426 572 404 q 324 475 407 447 q 185 553 242 503 q 129 694 129 603 q 185 849 129 789 q 332 940 242 910 q 521 969 422 969 q 771 918 671 969 q 871 753 871 867 q 869 723 871 740 q 864 685 868 706 l 735 685 q 740 711 739 700 q 740 728 740 722 q 683 824 740 790 q 533 857 625 857 q 344 822 422 857 q 267 710 267 786 q 323 616 267 649 q 462 561 379 583 q 628 511 544 539 q 767 433 711 483 q 824 290 824 382 q 763 113 824 181 q 605 14 701 44 q 401 -17 508 -17 m 281 -319 l 353 -207 l 304 -207 l 326 -81 l 449 -81 l 428 -197 l 346 -319 l 281 -319 z "},"Ṣ":{"ha":926,"x_min":26,"x_max":871,"o":"m 401 -17 q 135 36 244 -17 q 26 215 26 89 q 38 297 26 264 l 168 297 q 161 269 165 286 q 157 238 157 253 q 220 131 157 165 q 386 96 283 96 q 603 141 522 96 q 685 271 685 186 q 628 370 685 336 q 490 426 572 404 q 324 475 407 447 q 185 553 242 503 q 129 694 129 603 q 185 849 129 789 q 332 940 242 910 q 521 969 422 969 q 771 918 671 969 q 871 753 871 867 q 869 723 871 740 q 864 685 868 706 l 735 685 q 740 711 739 700 q 740 728 740 722 q 683 824 740 790 q 533 857 625 857 q 344 822 422 857 q 267 710 267 786 q 323 616 267 649 q 462 561 379 583 q 628 511 544 539 q 767 433 711 483 q 824 290 824 382 q 763 113 824 181 q 605 14 701 44 q 401 -17 508 -17 z "},"ẞ":{"ha":1108,"x_min":25,"x_max":981,"o":"m 25 0 l 129 585 q 294 873 161 776 q 618 969 428 969 q 883 904 786 969 q 981 728 981 839 q 931 579 981 647 q 813 488 881 511 l 813 482 q 950 303 950 442 q 859 83 950 167 q 625 0 768 0 l 310 0 l 331 115 l 628 115 q 765 172 714 115 q 815 293 815 229 q 772 381 815 347 q 646 414 728 414 l 383 414 l 404 529 l 663 529 q 790 580 736 529 q 843 708 843 631 q 788 817 843 776 q 610 857 733 857 q 375 788 467 857 q 258 575 283 719 l 157 0 l 25 0 z "},"Ə":{"ha":1053,"x_min":60,"x_max":1008,"o":"m 457 -17 q 163 72 267 -17 q 60 321 60 161 q 71 429 60 369 l 86 515 l 868 515 q 875 597 875 564 q 797 795 875 733 q 582 857 718 857 q 340 801 426 857 q 233 631 253 744 l 107 631 q 290 904 140 821 q 603 969 410 969 q 899 870 790 969 q 1008 590 1008 771 q 963 336 1008 472 q 836 119 917 200 q 457 -17 700 -17 m 475 96 q 710 165 622 96 q 842 393 797 233 l 200 393 q 193 318 193 349 q 270 147 193 199 q 475 96 347 96 z "},"T":{"ha":849,"x_min":93,"x_max":901,"o":"m 274 0 l 421 838 l 93 838 l 114 953 l 901 953 l 881 838 l 553 838 l 406 0 l 274 0 z "},"Ŧ":{"ha":849,"x_min":93,"x_max":901,"o":"m 274 0 l 367 529 l 221 529 l 239 629 l 385 629 l 421 838 l 93 838 l 114 953 l 901 953 l 881 838 l 553 838 l 517 629 l 663 629 l 644 529 l 499 529 l 406 0 l 274 0 z "},"Ť":{"ha":849,"x_min":93,"x_max":901,"o":"m 274 0 l 421 838 l 93 838 l 114 953 l 901 953 l 881 838 l 553 838 l 406 0 l 274 0 m 458 1018 l 344 1206 l 464 1206 l 526 1096 l 624 1206 l 754 1206 l 575 1018 l 458 1018 z "},"Ţ":{"ha":849,"x_min":93,"x_max":901,"o":"m 274 0 l 421 838 l 93 838 l 114 953 l 901 953 l 881 838 l 553 838 l 406 0 l 274 0 m 304 -253 q 161 -242 224 -253 l 174 -174 l 313 -174 q 375 -132 375 -174 q 326 -107 375 -107 l 256 -107 l 300 15 l 386 15 l 363 -50 q 443 -69 410 -50 q 476 -131 476 -87 q 450 -208 476 -182 q 384 -244 424 -235 q 304 -253 344 -253 z "},"Ț":{"ha":849,"x_min":93,"x_max":901,"o":"m 274 0 l 421 838 l 93 838 l 114 953 l 901 953 l 881 838 l 553 838 l 406 0 l 274 0 m 221 -319 l 293 -207 l 244 -207 l 267 -81 l 389 -81 l 368 -197 l 286 -319 l 221 -319 z "},"Ṭ":{"ha":849,"x_min":93,"x_max":901,"o":"m 274 0 l 421 838 l 93 838 l 114 953 l 901 953 l 881 838 l 553 838 l 406 0 l 274 0 z "},"U":{"ha":1003,"x_min":83,"x_max":978,"o":"m 442 -17 q 176 58 269 -17 q 83 275 83 132 q 92 363 83 317 l 194 953 l 326 953 l 222 356 q 217 319 219 336 q 215 288 215 303 q 438 96 215 96 q 638 159 560 96 q 739 344 717 222 l 846 953 l 978 953 l 872 351 q 726 71 838 158 q 442 -17 615 -17 z "},"Ú":{"ha":1003,"x_min":83,"x_max":978,"o":"m 442 -17 q 176 58 269 -17 q 83 275 83 132 q 92 363 83 317 l 194 953 l 326 953 l 222 356 q 217 319 219 336 q 215 288 215 303 q 438 96 215 96 q 638 159 560 96 q 739 344 717 222 l 846 953 l 978 953 l 872 351 q 726 71 838 158 q 442 -17 615 -17 m 538 1022 l 688 1206 l 828 1206 l 829 1201 l 657 1022 l 538 1022 z "},"Ŭ":{"ha":1003,"x_min":83,"x_max":978,"o":"m 442 -17 q 176 58 269 -17 q 83 275 83 132 q 92 363 83 317 l 194 953 l 326 953 l 222 356 q 217 319 219 336 q 215 288 215 303 q 438 96 215 96 q 638 159 560 96 q 739 344 717 222 l 846 953 l 978 953 l 872 351 q 726 71 838 158 q 442 -17 615 -17 m 599 1043 q 452 1083 492 1043 q 413 1174 413 1124 q 415 1206 413 1194 l 500 1206 q 517 1157 501 1182 q 597 1132 533 1132 q 695 1157 663 1132 q 735 1206 728 1182 l 819 1206 q 797 1144 814 1175 q 749 1090 779 1113 q 685 1056 722 1069 q 599 1043 647 1043 z "},"Ǔ":{"ha":1003,"x_min":83,"x_max":978,"o":"m 442 -17 q 176 58 269 -17 q 83 275 83 132 q 92 363 83 317 l 194 953 l 326 953 l 222 356 q 217 319 219 336 q 215 288 215 303 q 438 96 215 96 q 638 159 560 96 q 739 344 717 222 l 846 953 l 978 953 l 872 351 q 726 71 838 158 q 442 -17 615 -17 m 539 1018 l 425 1206 l 544 1206 l 607 1096 l 704 1206 l 835 1206 l 656 1018 l 539 1018 z "},"Û":{"ha":1003,"x_min":83,"x_max":978,"o":"m 442 -17 q 176 58 269 -17 q 83 275 83 132 q 92 363 83 317 l 194 953 l 326 953 l 222 356 q 217 319 219 336 q 215 288 215 303 q 438 96 215 96 q 638 159 560 96 q 739 344 717 222 l 846 953 l 978 953 l 872 351 q 726 71 838 158 q 442 -17 615 -17 m 386 1018 l 565 1206 l 682 1206 l 796 1018 l 676 1018 l 617 1128 l 517 1018 l 386 1018 z "},"Ȕ":{"ha":1003,"x_min":83,"x_max":978,"o":"m 442 -17 q 176 58 269 -17 q 83 275 83 132 q 92 363 83 317 l 194 953 l 326 953 l 222 356 q 217 319 219 336 q 215 288 215 303 q 438 96 215 96 q 638 159 560 96 q 739 344 717 222 l 846 953 l 978 953 l 872 351 q 726 71 838 158 q 442 -17 615 -17 m 661 1022 l 576 1201 l 579 1206 l 714 1206 l 767 1022 l 661 1022 m 468 1022 l 383 1201 l 386 1206 l 521 1206 l 574 1022 l 468 1022 z "},"Ü":{"ha":1003,"x_min":83,"x_max":978,"o":"m 442 -17 q 176 58 269 -17 q 83 275 83 132 q 92 363 83 317 l 194 953 l 326 953 l 222 356 q 217 319 219 336 q 215 288 215 303 q 438 96 215 96 q 638 159 560 96 q 739 344 717 222 l 846 953 l 978 953 l 872 351 q 726 71 838 158 q 442 -17 615 -17 m 676 1074 l 700 1206 l 821 1206 l 797 1074 l 676 1074 m 417 1074 l 440 1206 l 561 1206 l 538 1074 l 417 1074 z "},"Ǘ":{"ha":1003,"x_min":83,"x_max":978,"o":"m 442 -17 q 176 58 269 -17 q 83 275 83 132 q 92 363 83 317 l 194 953 l 326 953 l 222 356 q 217 319 219 336 q 215 288 215 303 q 438 96 215 96 q 638 159 560 96 q 739 344 717 222 l 846 953 l 978 953 l 872 351 q 726 71 838 158 q 442 -17 615 -17 m 676 1074 l 700 1206 l 821 1206 l 797 1074 l 676 1074 m 417 1074 l 440 1206 l 561 1206 l 538 1074 l 417 1074 m 579 1254 l 729 1438 l 869 1438 l 871 1433 l 699 1254 l 579 1254 z "},"Ǚ":{"ha":1003,"x_min":83,"x_max":978,"o":"m 442 -17 q 176 58 269 -17 q 83 275 83 132 q 92 363 83 317 l 194 953 l 326 953 l 222 356 q 217 319 219 336 q 215 288 215 303 q 438 96 215 96 q 638 159 560 96 q 739 344 717 222 l 846 953 l 978 953 l 872 351 q 726 71 838 158 q 442 -17 615 -17 m 676 1074 l 700 1206 l 821 1206 l 797 1074 l 676 1074 m 417 1074 l 440 1206 l 561 1206 l 538 1074 l 417 1074 m 581 1250 l 467 1438 l 586 1438 l 649 1328 l 746 1438 l 876 1438 l 697 1250 l 581 1250 z "},"Ǜ":{"ha":1003,"x_min":83,"x_max":978,"o":"m 442 -17 q 176 58 269 -17 q 83 275 83 132 q 92 363 83 317 l 194 953 l 326 953 l 222 356 q 217 319 219 336 q 215 288 215 303 q 438 96 215 96 q 638 159 560 96 q 739 344 717 222 l 846 953 l 978 953 l 872 351 q 726 71 838 158 q 442 -17 615 -17 m 676 1074 l 700 1206 l 821 1206 l 797 1074 l 676 1074 m 417 1074 l 440 1206 l 561 1206 l 538 1074 l 417 1074 m 588 1254 l 469 1433 l 471 1438 l 604 1438 l 692 1254 l 588 1254 z "},"Ǖ":{"ha":1003,"x_min":83,"x_max":978,"o":"m 442 -17 q 176 58 269 -17 q 83 275 83 132 q 92 363 83 317 l 194 953 l 326 953 l 222 356 q 217 319 219 336 q 215 288 215 303 q 438 96 215 96 q 638 159 560 96 q 739 344 717 222 l 846 953 l 978 953 l 872 351 q 726 71 838 158 q 442 -17 615 -17 m 676 1074 l 700 1206 l 821 1206 l 797 1074 l 676 1074 m 417 1074 l 440 1206 l 561 1206 l 538 1074 l 417 1074 m 438 1304 l 456 1404 l 879 1404 l 861 1304 l 438 1304 z "},"Ụ":{"ha":1003,"x_min":83,"x_max":978,"o":"m 442 -17 q 176 58 269 -17 q 83 275 83 132 q 92 363 83 317 l 194 953 l 326 953 l 222 356 q 217 319 219 336 q 215 288 215 303 q 438 96 215 96 q 638 159 560 96 q 739 344 717 222 l 846 953 l 978 953 l 872 351 q 726 71 838 158 q 442 -17 615 -17 z "},"Ù":{"ha":1003,"x_min":83,"x_max":978,"o":"m 442 -17 q 176 58 269 -17 q 83 275 83 132 q 92 363 83 317 l 194 953 l 326 953 l 222 356 q 217 319 219 336 q 215 288 215 303 q 438 96 215 96 q 638 159 560 96 q 739 344 717 222 l 846 953 l 978 953 l 872 351 q 726 71 838 158 q 442 -17 615 -17 m 546 1022 l 428 1201 l 429 1206 l 563 1206 l 650 1022 l 546 1022 z "},"Ủ":{"ha":1003,"x_min":83,"x_max":978,"o":"m 442 -17 q 176 58 269 -17 q 83 275 83 132 q 92 363 83 317 l 194 953 l 326 953 l 222 356 q 217 319 219 336 q 215 288 215 303 q 438 96 215 96 q 638 159 560 96 q 739 344 717 222 l 846 953 l 978 953 l 872 351 q 726 71 838 158 q 442 -17 615 -17 m 560 1022 l 575 1107 l 593 1107 q 638 1138 638 1107 q 599 1157 638 1157 l 515 1157 l 525 1211 q 628 1222 574 1222 q 703 1209 665 1222 q 740 1154 740 1196 q 710 1086 740 1108 q 644 1061 681 1064 l 638 1022 l 560 1022 z "},"Ư":{"ha":1003,"x_min":83,"x_max":1163,"o":"m 442 -17 q 176 58 269 -17 q 83 275 83 132 q 92 363 83 317 l 194 953 l 326 953 l 222 356 q 217 319 219 336 q 215 288 215 303 q 438 96 215 96 q 638 159 560 96 q 739 344 717 222 l 846 953 l 978 953 l 872 351 q 726 71 838 158 q 442 -17 615 -17 m 851 854 l 851 932 q 1060 1111 1033 951 l 1150 1131 q 1057 940 1132 1011 q 851 854 982 868 m 983 1056 l 1010 1206 l 1163 1206 l 1150 1131 l 1079 1056 l 983 1056 z "},"Ứ":{"ha":1003,"x_min":83,"x_max":1163,"o":"m 442 -17 q 176 58 269 -17 q 83 275 83 132 q 92 363 83 317 l 194 953 l 326 953 l 222 356 q 217 319 219 336 q 215 288 215 303 q 438 96 215 96 q 638 159 560 96 q 739 344 717 222 l 846 953 l 978 953 l 872 351 q 726 71 838 158 q 442 -17 615 -17 m 851 854 l 851 932 q 1060 1111 1033 951 l 1150 1131 q 1057 940 1132 1011 q 851 854 982 868 m 983 1056 l 1010 1206 l 1163 1206 l 1150 1131 l 1079 1056 l 983 1056 m 538 1022 l 688 1206 l 828 1206 l 829 1201 l 657 1022 l 538 1022 z "},"Ự":{"ha":1003,"x_min":83,"x_max":1163,"o":"m 442 -17 q 176 58 269 -17 q 83 275 83 132 q 92 363 83 317 l 194 953 l 326 953 l 222 356 q 217 319 219 336 q 215 288 215 303 q 438 96 215 96 q 638 159 560 96 q 739 344 717 222 l 846 953 l 978 953 l 872 351 q 726 71 838 158 q 442 -17 615 -17 m 851 854 l 851 932 q 1060 1111 1033 951 l 1150 1131 q 1057 940 1132 1011 q 851 854 982 868 m 983 1056 l 1010 1206 l 1163 1206 l 1150 1131 l 1079 1056 l 983 1056 z "},"Ừ":{"ha":1003,"x_min":83,"x_max":1163,"o":"m 442 -17 q 176 58 269 -17 q 83 275 83 132 q 92 363 83 317 l 194 953 l 326 953 l 222 356 q 217 319 219 336 q 215 288 215 303 q 438 96 215 96 q 638 159 560 96 q 739 344 717 222 l 846 953 l 978 953 l 872 351 q 726 71 838 158 q 442 -17 615 -17 m 851 854 l 851 932 q 1060 1111 1033 951 l 1150 1131 q 1057 940 1132 1011 q 851 854 982 868 m 983 1056 l 1010 1206 l 1163 1206 l 1150 1131 l 1079 1056 l 983 1056 m 546 1022 l 428 1201 l 429 1206 l 563 1206 l 650 1022 l 546 1022 z "},"Ử":{"ha":1003,"x_min":83,"x_max":1163,"o":"m 442 -17 q 176 58 269 -17 q 83 275 83 132 q 92 363 83 317 l 194 953 l 326 953 l 222 356 q 217 319 219 336 q 215 288 215 303 q 438 96 215 96 q 638 159 560 96 q 739 344 717 222 l 846 953 l 978 953 l 872 351 q 726 71 838 158 q 442 -17 615 -17 m 851 854 l 851 932 q 1060 1111 1033 951 l 1150 1131 q 1057 940 1132 1011 q 851 854 982 868 m 983 1056 l 1010 1206 l 1163 1206 l 1150 1131 l 1079 1056 l 983 1056 m 560 1022 l 575 1107 l 593 1107 q 638 1138 638 1107 q 599 1157 638 1157 l 515 1157 l 525 1211 q 628 1222 574 1222 q 703 1209 665 1222 q 740 1154 740 1196 q 710 1086 740 1108 q 644 1061 681 1064 l 638 1022 l 560 1022 z "},"Ữ":{"ha":1003,"x_min":83,"x_max":1163,"o":"m 442 -17 q 176 58 269 -17 q 83 275 83 132 q 92 363 83 317 l 194 953 l 326 953 l 222 356 q 217 319 219 336 q 215 288 215 303 q 438 96 215 96 q 638 159 560 96 q 739 344 717 222 l 846 953 l 978 953 l 872 351 q 726 71 838 158 q 442 -17 615 -17 m 851 854 l 851 932 q 1060 1111 1033 951 l 1150 1131 q 1057 940 1132 1011 q 851 854 982 868 m 983 1056 l 1010 1206 l 1163 1206 l 1150 1131 l 1079 1056 l 983 1056 m 378 1061 q 423 1163 388 1119 q 521 1206 458 1206 q 623 1184 579 1206 q 719 1163 667 1163 q 767 1206 756 1163 l 857 1206 q 811 1104 847 1147 q 713 1061 775 1061 q 610 1083 654 1061 q 514 1104 567 1104 q 467 1061 478 1104 l 378 1061 z "},"Ű":{"ha":1003,"x_min":83,"x_max":978,"o":"m 442 -17 q 176 58 269 -17 q 83 275 83 132 q 92 363 83 317 l 194 953 l 326 953 l 222 356 q 217 319 219 336 q 215 288 215 303 q 438 96 215 96 q 638 159 560 96 q 739 344 717 222 l 846 953 l 978 953 l 872 351 q 726 71 838 158 q 442 -17 615 -17 m 642 1022 l 760 1206 l 900 1206 l 901 1201 l 753 1022 l 642 1022 m 443 1022 l 561 1206 l 701 1206 l 703 1201 l 554 1022 l 443 1022 z "},"Ȗ":{"ha":1003,"x_min":83,"x_max":978,"o":"m 442 -17 q 176 58 269 -17 q 83 275 83 132 q 92 363 83 317 l 194 953 l 326 953 l 222 356 q 217 319 219 336 q 215 288 215 303 q 438 96 215 96 q 638 159 560 96 q 739 344 717 222 l 846 953 l 978 953 l 872 351 q 726 71 838 158 q 442 -17 615 -17 m 399 1043 q 457 1153 410 1100 q 629 1206 504 1206 q 766 1163 726 1206 q 806 1068 806 1121 q 803 1043 806 1060 l 718 1043 q 700 1091 719 1065 q 614 1117 681 1117 q 520 1091 547 1117 q 483 1043 493 1065 l 399 1043 z "},"Ū":{"ha":1003,"x_min":83,"x_max":978,"o":"m 442 -17 q 176 58 269 -17 q 83 275 83 132 q 92 363 83 317 l 194 953 l 326 953 l 222 356 q 217 319 219 336 q 215 288 215 303 q 438 96 215 96 q 638 159 560 96 q 739 344 717 222 l 846 953 l 978 953 l 872 351 q 726 71 838 158 q 442 -17 615 -17 m 396 1072 l 414 1172 l 838 1172 l 819 1072 l 396 1072 z "},"Ų":{"ha":1003,"x_min":83,"x_max":978,"o":"m 458 -253 q 375 -231 414 -253 q 336 -150 336 -208 q 356 -73 336 -106 q 403 -15 375 -40 q 166 67 249 -7 q 83 275 83 140 q 92 363 83 317 l 194 953 l 326 953 l 222 356 q 217 319 219 336 q 215 288 215 303 q 438 96 215 96 q 638 159 560 96 q 739 344 717 222 l 846 953 l 978 953 l 872 351 q 744 87 842 175 q 497 -14 647 -1 q 467 -56 479 -32 q 454 -106 454 -79 q 467 -145 454 -128 q 515 -162 481 -162 l 560 -162 l 547 -233 q 458 -253 497 -253 z "},"Ů":{"ha":1003,"x_min":83,"x_max":978,"o":"m 442 -17 q 176 58 269 -17 q 83 275 83 132 q 92 363 83 317 l 194 953 l 326 953 l 222 356 q 217 319 219 336 q 215 288 215 303 q 438 96 215 96 q 638 159 560 96 q 739 344 717 222 l 846 953 l 978 953 l 872 351 q 726 71 838 158 q 442 -17 615 -17 m 592 988 q 508 1019 540 988 q 475 1097 475 1050 q 515 1210 475 1165 q 629 1254 556 1254 q 713 1222 681 1254 q 746 1143 746 1190 q 706 1031 746 1075 q 592 988 665 988 m 600 1050 q 660 1075 639 1050 q 682 1133 682 1100 q 621 1192 682 1192 q 560 1166 581 1192 q 539 1107 539 1140 q 600 1050 539 1050 z "},"Ũ":{"ha":1003,"x_min":83,"x_max":978,"o":"m 442 -17 q 176 58 269 -17 q 83 275 83 132 q 92 363 83 317 l 194 953 l 326 953 l 222 356 q 217 319 219 336 q 215 288 215 303 q 438 96 215 96 q 638 159 560 96 q 739 344 717 222 l 846 953 l 978 953 l 872 351 q 726 71 838 158 q 442 -17 615 -17 m 378 1061 q 423 1163 388 1119 q 521 1206 458 1206 q 623 1184 579 1206 q 719 1163 667 1163 q 767 1206 756 1163 l 857 1206 q 811 1104 847 1147 q 713 1061 775 1061 q 610 1083 654 1061 q 514 1104 567 1104 q 467 1061 478 1104 l 378 1061 z "},"V":{"ha":926,"x_min":106,"x_max":988,"o":"m 292 0 l 106 953 l 244 953 l 376 251 q 384 211 381 231 q 391 172 388 192 q 399 132 394 153 l 406 132 q 426 169 415 150 q 446 206 436 188 q 465 243 456 225 l 847 953 l 988 953 l 465 0 l 292 0 z "},"W":{"ha":1311,"x_min":99,"x_max":1379,"o":"m 206 0 l 99 953 l 232 953 l 306 281 q 310 229 308 264 q 314 165 313 194 q 315 135 315 135 l 322 135 q 334 167 322 135 q 359 235 346 200 q 376 281 372 271 l 642 953 l 836 953 l 871 281 q 873 190 872 246 q 874 135 874 135 l 881 135 q 893 165 881 135 q 921 229 906 194 q 944 281 936 264 l 1247 953 l 1379 953 l 936 0 l 754 0 l 722 668 q 719 769 719 714 q 718 824 718 824 l 711 824 q 691 766 711 824 q 656 668 671 708 l 388 0 l 206 0 z "},"Ẃ":{"ha":1311,"x_min":99,"x_max":1379,"o":"m 206 0 l 99 953 l 232 953 l 306 281 q 310 229 308 264 q 314 165 313 194 q 315 135 315 135 l 322 135 q 334 167 322 135 q 359 235 346 200 q 376 281 372 271 l 642 953 l 836 953 l 871 281 q 873 190 872 246 q 874 135 874 135 l 881 135 q 893 165 881 135 q 921 229 906 194 q 944 281 936 264 l 1247 953 l 1379 953 l 936 0 l 754 0 l 722 668 q 719 769 719 714 q 718 824 718 824 l 711 824 q 691 766 711 824 q 656 668 671 708 l 388 0 l 206 0 m 715 1022 l 865 1206 l 1006 1206 l 1007 1201 l 835 1022 l 715 1022 z "},"Ŵ":{"ha":1311,"x_min":99,"x_max":1379,"o":"m 206 0 l 99 953 l 232 953 l 306 281 q 310 229 308 264 q 314 165 313 194 q 315 135 315 135 l 322 135 q 334 167 322 135 q 359 235 346 200 q 376 281 372 271 l 642 953 l 836 953 l 871 281 q 873 190 872 246 q 874 135 874 135 l 881 135 q 893 165 881 135 q 921 229 906 194 q 944 281 936 264 l 1247 953 l 1379 953 l 936 0 l 754 0 l 722 668 q 719 769 719 714 q 718 824 718 824 l 711 824 q 691 766 711 824 q 656 668 671 708 l 388 0 l 206 0 m 564 1018 l 743 1206 l 860 1206 l 974 1018 l 854 1018 l 794 1128 l 694 1018 l 564 1018 z "},"Ẅ":{"ha":1311,"x_min":99,"x_max":1379,"o":"m 206 0 l 99 953 l 232 953 l 306 281 q 310 229 308 264 q 314 165 313 194 q 315 135 315 135 l 322 135 q 334 167 322 135 q 359 235 346 200 q 376 281 372 271 l 642 953 l 836 953 l 871 281 q 873 190 872 246 q 874 135 874 135 l 881 135 q 893 165 881 135 q 921 229 906 194 q 944 281 936 264 l 1247 953 l 1379 953 l 936 0 l 754 0 l 722 668 q 719 769 719 714 q 718 824 718 824 l 711 824 q 691 766 711 824 q 656 668 671 708 l 388 0 l 206 0 m 829 1074 l 853 1206 l 974 1206 l 950 1074 l 829 1074 m 569 1074 l 593 1206 l 714 1206 l 690 1074 l 569 1074 z "},"Ẁ":{"ha":1311,"x_min":99,"x_max":1379,"o":"m 206 0 l 99 953 l 232 953 l 306 281 q 310 229 308 264 q 314 165 313 194 q 315 135 315 135 l 322 135 q 334 167 322 135 q 359 235 346 200 q 376 281 372 271 l 642 953 l 836 953 l 871 281 q 873 190 872 246 q 874 135 874 135 l 881 135 q 893 165 881 135 q 921 229 906 194 q 944 281 936 264 l 1247 953 l 1379 953 l 936 0 l 754 0 l 722 668 q 719 769 719 714 q 718 824 718 824 l 711 824 q 691 766 711 824 q 656 668 671 708 l 388 0 l 206 0 m 699 1022 l 581 1201 l 582 1206 l 715 1206 l 803 1022 l 699 1022 z "},"X":{"ha":926,"x_min":-76,"x_max":965,"o":"m -76 0 l 386 503 l 124 953 l 278 953 l 481 601 l 488 601 l 803 953 l 965 953 l 544 496 l 835 0 l 681 0 l 456 396 l 447 396 l 85 0 l -76 0 z "},"Y":{"ha":926,"x_min":106,"x_max":989,"o":"m 314 0 l 383 394 l 106 953 l 250 953 l 467 513 l 474 513 l 838 953 l 989 953 l 515 394 l 446 0 l 314 0 z "},"Ý":{"ha":926,"x_min":106,"x_max":989,"o":"m 314 0 l 383 394 l 106 953 l 250 953 l 467 513 l 474 513 l 838 953 l 989 953 l 515 394 l 446 0 l 314 0 m 524 1022 l 674 1206 l 814 1206 l 815 1201 l 643 1022 l 524 1022 z "},"Ŷ":{"ha":926,"x_min":106,"x_max":989,"o":"m 314 0 l 383 394 l 106 953 l 250 953 l 467 513 l 474 513 l 838 953 l 989 953 l 515 394 l 446 0 l 314 0 m 372 1018 l 551 1206 l 668 1206 l 782 1018 l 663 1018 l 603 1128 l 503 1018 l 372 1018 z "},"Ÿ":{"ha":926,"x_min":106,"x_max":989,"o":"m 314 0 l 383 394 l 106 953 l 250 953 l 467 513 l 474 513 l 838 953 l 989 953 l 515 394 l 446 0 l 314 0 m 635 1074 l 658 1206 l 779 1206 l 756 1074 l 635 1074 m 375 1074 l 399 1206 l 519 1206 l 496 1074 l 375 1074 z "},"Ỵ":{"ha":926,"x_min":106,"x_max":989,"o":"m 314 0 l 383 394 l 106 953 l 250 953 l 467 513 l 474 513 l 838 953 l 989 953 l 515 394 l 446 0 l 314 0 z "},"Ỳ":{"ha":926,"x_min":106,"x_max":989,"o":"m 314 0 l 383 394 l 106 953 l 250 953 l 467 513 l 474 513 l 838 953 l 989 953 l 515 394 l 446 0 l 314 0 m 504 1022 l 386 1201 l 388 1206 l 521 1206 l 608 1022 l 504 1022 z "},"Ỷ":{"ha":926,"x_min":106,"x_max":989,"o":"m 314 0 l 383 394 l 106 953 l 250 953 l 467 513 l 474 513 l 838 953 l 989 953 l 515 394 l 446 0 l 314 0 m 518 1022 l 533 1107 l 551 1107 q 596 1138 596 1107 q 557 1157 596 1157 l 474 1157 l 483 1211 q 586 1222 532 1222 q 661 1209 624 1222 q 699 1154 699 1196 q 669 1086 699 1108 q 603 1061 639 1064 l 596 1022 l 518 1022 z "},"Ȳ":{"ha":926,"x_min":106,"x_max":989,"o":"m 314 0 l 383 394 l 106 953 l 250 953 l 467 513 l 474 513 l 838 953 l 989 953 l 515 394 l 446 0 l 314 0 m 354 1072 l 372 1172 l 796 1172 l 778 1072 l 354 1072 z "},"Ỹ":{"ha":926,"x_min":106,"x_max":989,"o":"m 314 0 l 383 394 l 106 953 l 250 953 l 467 513 l 474 513 l 838 953 l 989 953 l 515 394 l 446 0 l 314 0 m 336 1061 q 381 1163 346 1119 q 479 1206 417 1206 q 581 1184 538 1206 q 678 1163 625 1163 q 725 1206 714 1163 l 815 1206 q 769 1104 806 1147 q 671 1061 733 1061 q 569 1083 613 1061 q 472 1104 525 1104 q 425 1061 436 1104 l 336 1061 z "},"Z":{"ha":849,"x_min":-51,"x_max":889,"o":"m -51 0 l -39 68 l 660 838 l 131 838 l 151 953 l 889 953 l 876 885 l 175 115 l 754 115 l 733 0 l -51 0 z "},"Ź":{"ha":849,"x_min":-51,"x_max":889,"o":"m -51 0 l -39 68 l 660 838 l 131 838 l 151 953 l 889 953 l 876 885 l 175 115 l 754 115 l 733 0 l -51 0 m 485 1022 l 635 1206 l 775 1206 l 776 1201 l 604 1022 l 485 1022 z "},"Ž":{"ha":849,"x_min":-51,"x_max":889,"o":"m -51 0 l -39 68 l 660 838 l 131 838 l 151 953 l 889 953 l 876 885 l 175 115 l 754 115 l 733 0 l -51 0 m 486 1018 l 372 1206 l 492 1206 l 554 1096 l 651 1206 l 782 1206 l 603 1018 l 486 1018 z "},"Ż":{"ha":849,"x_min":-51,"x_max":889,"o":"m -51 0 l -39 68 l 660 838 l 131 838 l 151 953 l 889 953 l 876 885 l 175 115 l 754 115 l 733 0 l -51 0 m 493 1074 l 517 1206 l 638 1206 l 614 1074 l 493 1074 z "},"Ẓ":{"ha":849,"x_min":-51,"x_max":889,"o":"m -51 0 l -39 68 l 660 838 l 131 838 l 151 953 l 889 953 l 876 885 l 175 115 l 754 115 l 733 0 l -51 0 z "},"a":{"ha":772,"x_min":29,"x_max":721,"o":"m 258 -17 q 92 49 154 -17 q 29 249 29 114 q 76 513 29 400 q 201 686 122 625 q 379 747 281 747 q 502 724 454 747 q 576 647 550 700 l 585 647 l 628 731 l 721 731 q 710 671 721 731 q 683 522 699 611 q 650 344 667 433 q 622 191 633 254 q 611 122 611 128 q 653 85 611 85 l 708 85 l 694 6 q 659 -9 683 -1 q 603 -17 635 -17 q 530 6 558 -17 q 501 82 501 29 q 507 172 501 106 l 560 115 l 496 115 q 392 17 457 50 q 258 -17 328 -17 m 289 85 q 439 151 383 85 q 519 308 494 217 q 544 474 544 399 q 396 646 544 646 q 263 592 317 646 q 183 449 210 538 q 157 256 157 360 q 289 85 157 85 z "},"á":{"ha":772,"x_min":29,"x_max":721,"o":"m 258 -17 q 92 49 154 -17 q 29 249 29 114 q 76 513 29 400 q 201 686 122 625 q 379 747 281 747 q 502 724 454 747 q 576 647 550 700 l 585 647 l 628 731 l 721 731 q 710 671 721 731 q 683 522 699 611 q 650 344 667 433 q 622 191 633 254 q 611 122 611 128 q 653 85 611 85 l 708 85 l 694 6 q 659 -9 683 -1 q 603 -17 635 -17 q 530 6 558 -17 q 501 82 501 29 q 507 172 501 106 l 560 115 l 496 115 q 392 17 457 50 q 258 -17 328 -17 m 289 85 q 439 151 383 85 q 519 308 494 217 q 544 474 544 399 q 396 646 544 646 q 263 592 317 646 q 183 449 210 538 q 157 256 157 360 q 289 85 157 85 m 379 821 l 529 1004 l 669 1004 l 671 1000 l 499 821 l 379 821 z "},"ă":{"ha":772,"x_min":29,"x_max":721,"o":"m 258 -17 q 92 49 154 -17 q 29 249 29 114 q 76 513 29 400 q 201 686 122 625 q 379 747 281 747 q 502 724 454 747 q 576 647 550 700 l 585 647 l 628 731 l 721 731 q 710 671 721 731 q 683 522 699 611 q 650 344 667 433 q 622 191 633 254 q 611 122 611 128 q 653 85 611 85 l 708 85 l 694 6 q 659 -9 683 -1 q 603 -17 635 -17 q 530 6 558 -17 q 501 82 501 29 q 507 172 501 106 l 560 115 l 496 115 q 392 17 457 50 q 258 -17 328 -17 m 289 85 q 439 151 383 85 q 519 308 494 217 q 544 474 544 399 q 396 646 544 646 q 263 592 317 646 q 183 449 210 538 q 157 256 157 360 q 289 85 157 85 m 440 842 q 294 882 333 842 q 254 972 254 922 q 257 1004 254 993 l 342 1004 q 359 956 343 981 q 439 931 375 931 q 537 956 504 931 q 576 1004 569 981 l 661 1004 q 638 942 656 974 q 590 889 621 911 q 526 855 564 868 q 440 842 489 842 z "},"ắ":{"ha":772,"x_min":29,"x_max":721,"o":"m 258 -17 q 92 49 154 -17 q 29 249 29 114 q 76 513 29 400 q 201 686 122 625 q 379 747 281 747 q 502 724 454 747 q 576 647 550 700 l 585 647 l 628 731 l 721 731 q 710 671 721 731 q 683 522 699 611 q 650 344 667 433 q 622 191 633 254 q 611 122 611 128 q 653 85 611 85 l 708 85 l 694 6 q 659 -9 683 -1 q 603 -17 635 -17 q 530 6 558 -17 q 501 82 501 29 q 507 172 501 106 l 560 115 l 496 115 q 392 17 457 50 q 258 -17 328 -17 m 289 85 q 439 151 383 85 q 519 308 494 217 q 544 474 544 399 q 396 646 544 646 q 263 592 317 646 q 183 449 210 538 q 157 256 157 360 q 289 85 157 85 m 440 842 q 294 882 333 842 q 254 972 254 922 q 257 1004 254 993 l 342 1004 q 359 956 343 981 q 439 931 375 931 q 537 956 504 931 q 576 1004 569 981 l 661 1004 q 638 942 656 974 q 590 889 621 911 q 526 855 564 868 q 440 842 489 842 m 388 1004 l 538 1188 l 678 1188 l 679 1183 l 507 1004 l 388 1004 z "},"ặ":{"ha":772,"x_min":29,"x_max":721,"o":"m 258 -17 q 92 49 154 -17 q 29 249 29 114 q 76 513 29 400 q 201 686 122 625 q 379 747 281 747 q 502 724 454 747 q 576 647 550 700 l 585 647 l 628 731 l 721 731 q 710 671 721 731 q 683 522 699 611 q 650 344 667 433 q 622 191 633 254 q 611 122 611 128 q 653 85 611 85 l 708 85 l 694 6 q 659 -9 683 -1 q 603 -17 635 -17 q 530 6 558 -17 q 501 82 501 29 q 507 172 501 106 l 560 115 l 496 115 q 392 17 457 50 q 258 -17 328 -17 m 289 85 q 439 151 383 85 q 519 308 494 217 q 544 474 544 399 q 396 646 544 646 q 263 592 317 646 q 183 449 210 538 q 157 256 157 360 q 289 85 157 85 m 440 842 q 294 882 333 842 q 254 972 254 922 q 257 1004 254 993 l 342 1004 q 359 956 343 981 q 439 931 375 931 q 537 956 504 931 q 576 1004 569 981 l 661 1004 q 638 942 656 974 q 590 889 621 911 q 526 855 564 868 q 440 842 489 842 z "},"ằ":{"ha":772,"x_min":29,"x_max":721,"o":"m 258 -17 q 92 49 154 -17 q 29 249 29 114 q 76 513 29 400 q 201 686 122 625 q 379 747 281 747 q 502 724 454 747 q 576 647 550 700 l 585 647 l 628 731 l 721 731 q 710 671 721 731 q 683 522 699 611 q 650 344 667 433 q 622 191 633 254 q 611 122 611 128 q 653 85 611 85 l 708 85 l 694 6 q 659 -9 683 -1 q 603 -17 635 -17 q 530 6 558 -17 q 501 82 501 29 q 507 172 501 106 l 560 115 l 496 115 q 392 17 457 50 q 258 -17 328 -17 m 289 85 q 439 151 383 85 q 519 308 494 217 q 544 474 544 399 q 396 646 544 646 q 263 592 317 646 q 183 449 210 538 q 157 256 157 360 q 289 85 157 85 m 440 842 q 294 882 333 842 q 254 972 254 922 q 257 1004 254 993 l 342 1004 q 359 956 343 981 q 439 931 375 931 q 537 956 504 931 q 576 1004 569 981 l 661 1004 q 638 942 656 974 q 590 889 621 911 q 526 855 564 868 q 440 842 489 842 m 411 1004 l 293 1183 l 294 1188 l 428 1188 l 515 1004 l 411 1004 z "},"ẳ":{"ha":772,"x_min":29,"x_max":721,"o":"m 258 -17 q 92 49 154 -17 q 29 249 29 114 q 76 513 29 400 q 201 686 122 625 q 379 747 281 747 q 502 724 454 747 q 576 647 550 700 l 585 647 l 628 731 l 721 731 q 710 671 721 731 q 683 522 699 611 q 650 344 667 433 q 622 191 633 254 q 611 122 611 128 q 653 85 611 85 l 708 85 l 694 6 q 659 -9 683 -1 q 603 -17 635 -17 q 530 6 558 -17 q 501 82 501 29 q 507 172 501 106 l 560 115 l 496 115 q 392 17 457 50 q 258 -17 328 -17 m 289 85 q 439 151 383 85 q 519 308 494 217 q 544 474 544 399 q 396 646 544 646 q 263 592 317 646 q 183 449 210 538 q 157 256 157 360 q 289 85 157 85 m 440 842 q 294 882 333 842 q 254 972 254 922 q 257 1004 254 993 l 342 1004 q 359 956 343 981 q 439 931 375 931 q 537 956 504 931 q 576 1004 569 981 l 661 1004 q 638 942 656 974 q 590 889 621 911 q 526 855 564 868 q 440 842 489 842 m 408 1004 l 424 1089 l 442 1089 q 486 1119 486 1089 q 447 1139 486 1139 l 364 1139 l 374 1193 q 476 1204 422 1204 q 551 1191 514 1204 q 589 1136 589 1178 q 559 1068 589 1090 q 493 1043 529 1046 l 486 1004 l 408 1004 z "},"ẵ":{"ha":772,"x_min":29,"x_max":721,"o":"m 258 -17 q 92 49 154 -17 q 29 249 29 114 q 76 513 29 400 q 201 686 122 625 q 379 747 281 747 q 502 724 454 747 q 576 647 550 700 l 585 647 l 628 731 l 721 731 q 710 671 721 731 q 683 522 699 611 q 650 344 667 433 q 622 191 633 254 q 611 122 611 128 q 653 85 611 85 l 708 85 l 694 6 q 659 -9 683 -1 q 603 -17 635 -17 q 530 6 558 -17 q 501 82 501 29 q 507 172 501 106 l 560 115 l 496 115 q 392 17 457 50 q 258 -17 328 -17 m 289 85 q 439 151 383 85 q 519 308 494 217 q 544 474 544 399 q 396 646 544 646 q 263 592 317 646 q 183 449 210 538 q 157 256 157 360 q 289 85 157 85 m 440 842 q 294 882 333 842 q 254 972 254 922 q 257 1004 254 993 l 342 1004 q 359 956 343 981 q 439 931 375 931 q 537 956 504 931 q 576 1004 569 981 l 661 1004 q 638 942 656 974 q 590 889 621 911 q 526 855 564 868 q 440 842 489 842 m 236 1082 q 281 1183 246 1140 q 379 1226 317 1226 q 481 1205 438 1226 q 578 1183 525 1183 q 625 1226 614 1183 l 715 1226 q 669 1125 706 1168 q 571 1082 633 1082 q 469 1103 513 1082 q 372 1125 425 1125 q 325 1082 336 1125 l 236 1082 z "},"ǎ":{"ha":772,"x_min":29,"x_max":721,"o":"m 258 -17 q 92 49 154 -17 q 29 249 29 114 q 76 513 29 400 q 201 686 122 625 q 379 747 281 747 q 502 724 454 747 q 576 647 550 700 l 585 647 l 628 731 l 721 731 q 710 671 721 731 q 683 522 699 611 q 650 344 667 433 q 622 191 633 254 q 611 122 611 128 q 653 85 611 85 l 708 85 l 694 6 q 659 -9 683 -1 q 603 -17 635 -17 q 530 6 558 -17 q 501 82 501 29 q 507 172 501 106 l 560 115 l 496 115 q 392 17 457 50 q 258 -17 328 -17 m 289 85 q 439 151 383 85 q 519 308 494 217 q 544 474 544 399 q 396 646 544 646 q 263 592 317 646 q 183 449 210 538 q 157 256 157 360 q 289 85 157 85 m 381 817 l 267 1004 l 386 1004 l 449 894 l 546 1004 l 676 1004 l 497 817 l 381 817 z "},"â":{"ha":772,"x_min":29,"x_max":721,"o":"m 258 -17 q 92 49 154 -17 q 29 249 29 114 q 76 513 29 400 q 201 686 122 625 q 379 747 281 747 q 502 724 454 747 q 576 647 550 700 l 585 647 l 628 731 l 721 731 q 710 671 721 731 q 683 522 699 611 q 650 344 667 433 q 622 191 633 254 q 611 122 611 128 q 653 85 611 85 l 708 85 l 694 6 q 659 -9 683 -1 q 603 -17 635 -17 q 530 6 558 -17 q 501 82 501 29 q 507 172 501 106 l 560 115 l 496 115 q 392 17 457 50 q 258 -17 328 -17 m 289 85 q 439 151 383 85 q 519 308 494 217 q 544 474 544 399 q 396 646 544 646 q 263 592 317 646 q 183 449 210 538 q 157 256 157 360 q 289 85 157 85 m 228 817 l 407 1004 l 524 1004 l 638 817 l 518 817 l 458 926 l 358 817 l 228 817 z "},"ấ":{"ha":772,"x_min":29,"x_max":867,"o":"m 258 -17 q 92 49 154 -17 q 29 249 29 114 q 76 513 29 400 q 201 686 122 625 q 379 747 281 747 q 502 724 454 747 q 576 647 550 700 l 585 647 l 628 731 l 721 731 q 710 671 721 731 q 683 522 699 611 q 650 344 667 433 q 622 191 633 254 q 611 122 611 128 q 653 85 611 85 l 708 85 l 694 6 q 659 -9 683 -1 q 603 -17 635 -17 q 530 6 558 -17 q 501 82 501 29 q 507 172 501 106 l 560 115 l 496 115 q 392 17 457 50 q 258 -17 328 -17 m 289 85 q 439 151 383 85 q 519 308 494 217 q 544 474 544 399 q 396 646 544 646 q 263 592 317 646 q 183 449 210 538 q 157 256 157 360 q 289 85 157 85 m 228 817 l 407 1004 l 524 1004 l 638 817 l 518 817 l 458 926 l 358 817 l 228 817 m 575 953 l 725 1136 l 865 1136 l 867 1132 l 694 953 l 575 953 z "},"ậ":{"ha":772,"x_min":29,"x_max":721,"o":"m 258 -17 q 92 49 154 -17 q 29 249 29 114 q 76 513 29 400 q 201 686 122 625 q 379 747 281 747 q 502 724 454 747 q 576 647 550 700 l 585 647 l 628 731 l 721 731 q 710 671 721 731 q 683 522 699 611 q 650 344 667 433 q 622 191 633 254 q 611 122 611 128 q 653 85 611 85 l 708 85 l 694 6 q 659 -9 683 -1 q 603 -17 635 -17 q 530 6 558 -17 q 501 82 501 29 q 507 172 501 106 l 560 115 l 496 115 q 392 17 457 50 q 258 -17 328 -17 m 289 85 q 439 151 383 85 q 519 308 494 217 q 544 474 544 399 q 396 646 544 646 q 263 592 317 646 q 183 449 210 538 q 157 256 157 360 q 289 85 157 85 m 228 817 l 407 1004 l 524 1004 l 638 817 l 518 817 l 458 926 l 358 817 l 228 817 z "},"ầ":{"ha":772,"x_min":29,"x_max":742,"o":"m 258 -17 q 92 49 154 -17 q 29 249 29 114 q 76 513 29 400 q 201 686 122 625 q 379 747 281 747 q 502 724 454 747 q 576 647 550 700 l 585 647 l 628 731 l 721 731 q 710 671 721 731 q 683 522 699 611 q 650 344 667 433 q 622 191 633 254 q 611 122 611 128 q 653 85 611 85 l 708 85 l 694 6 q 659 -9 683 -1 q 603 -17 635 -17 q 530 6 558 -17 q 501 82 501 29 q 507 172 501 106 l 560 115 l 496 115 q 392 17 457 50 q 258 -17 328 -17 m 289 85 q 439 151 383 85 q 519 308 494 217 q 544 474 544 399 q 396 646 544 646 q 263 592 317 646 q 183 449 210 538 q 157 256 157 360 q 289 85 157 85 m 228 817 l 407 1004 l 524 1004 l 638 817 l 518 817 l 458 926 l 358 817 l 228 817 m 638 953 l 519 1132 l 521 1136 l 654 1136 l 742 953 l 638 953 z "},"ẩ":{"ha":772,"x_min":29,"x_max":776,"o":"m 258 -17 q 92 49 154 -17 q 29 249 29 114 q 76 513 29 400 q 201 686 122 625 q 379 747 281 747 q 502 724 454 747 q 576 647 550 700 l 585 647 l 628 731 l 721 731 q 710 671 721 731 q 683 522 699 611 q 650 344 667 433 q 622 191 633 254 q 611 122 611 128 q 653 85 611 85 l 708 85 l 694 6 q 659 -9 683 -1 q 603 -17 635 -17 q 530 6 558 -17 q 501 82 501 29 q 507 172 501 106 l 560 115 l 496 115 q 392 17 457 50 q 258 -17 328 -17 m 289 85 q 439 151 383 85 q 519 308 494 217 q 544 474 544 399 q 396 646 544 646 q 263 592 317 646 q 183 449 210 538 q 157 256 157 360 q 289 85 157 85 m 228 817 l 407 1004 l 524 1004 l 638 817 l 518 817 l 458 926 l 358 817 l 228 817 m 596 953 l 611 1038 l 629 1038 q 674 1068 674 1038 q 635 1088 674 1088 l 551 1088 l 561 1142 q 664 1153 610 1153 q 739 1140 701 1153 q 776 1085 776 1126 q 747 1017 776 1039 q 681 992 717 994 l 674 953 l 596 953 z "},"ẫ":{"ha":772,"x_min":29,"x_max":733,"o":"m 258 -17 q 92 49 154 -17 q 29 249 29 114 q 76 513 29 400 q 201 686 122 625 q 379 747 281 747 q 502 724 454 747 q 576 647 550 700 l 585 647 l 628 731 l 721 731 q 710 671 721 731 q 683 522 699 611 q 650 344 667 433 q 622 191 633 254 q 611 122 611 128 q 653 85 611 85 l 708 85 l 694 6 q 659 -9 683 -1 q 603 -17 635 -17 q 530 6 558 -17 q 501 82 501 29 q 507 172 501 106 l 560 115 l 496 115 q 392 17 457 50 q 258 -17 328 -17 m 289 85 q 439 151 383 85 q 519 308 494 217 q 544 474 544 399 q 396 646 544 646 q 263 592 317 646 q 183 449 210 538 q 157 256 157 360 q 289 85 157 85 m 228 817 l 407 1004 l 524 1004 l 638 817 l 518 817 l 458 926 l 358 817 l 228 817 m 254 1082 q 299 1183 264 1140 q 397 1226 335 1226 q 499 1205 456 1226 q 596 1183 543 1183 q 643 1226 632 1183 l 733 1226 q 688 1125 724 1168 q 589 1082 651 1082 q 487 1103 531 1082 q 390 1125 443 1125 q 343 1082 354 1125 l 254 1082 z "},"ȁ":{"ha":772,"x_min":29,"x_max":721,"o":"m 258 -17 q 92 49 154 -17 q 29 249 29 114 q 76 513 29 400 q 201 686 122 625 q 379 747 281 747 q 502 724 454 747 q 576 647 550 700 l 585 647 l 628 731 l 721 731 q 710 671 721 731 q 683 522 699 611 q 650 344 667 433 q 622 191 633 254 q 611 122 611 128 q 653 85 611 85 l 708 85 l 694 6 q 659 -9 683 -1 q 603 -17 635 -17 q 530 6 558 -17 q 501 82 501 29 q 507 172 501 106 l 560 115 l 496 115 q 392 17 457 50 q 258 -17 328 -17 m 289 85 q 439 151 383 85 q 519 308 494 217 q 544 474 544 399 q 396 646 544 646 q 263 592 317 646 q 183 449 210 538 q 157 256 157 360 q 289 85 157 85 m 503 821 l 418 1000 l 421 1004 l 556 1004 l 608 821 l 503 821 m 310 821 l 225 1000 l 228 1004 l 363 1004 l 415 821 l 310 821 z "},"ä":{"ha":772,"x_min":29,"x_max":721,"o":"m 258 -17 q 92 49 154 -17 q 29 249 29 114 q 76 513 29 400 q 201 686 122 625 q 379 747 281 747 q 502 724 454 747 q 576 647 550 700 l 585 647 l 628 731 l 721 731 q 710 671 721 731 q 683 522 699 611 q 650 344 667 433 q 622 191 633 254 q 611 122 611 128 q 653 85 611 85 l 708 85 l 694 6 q 659 -9 683 -1 q 603 -17 635 -17 q 530 6 558 -17 q 501 82 501 29 q 507 172 501 106 l 560 115 l 496 115 q 392 17 457 50 q 258 -17 328 -17 m 289 85 q 439 151 383 85 q 519 308 494 217 q 544 474 544 399 q 396 646 544 646 q 263 592 317 646 q 183 449 210 538 q 157 256 157 360 q 289 85 157 85 m 518 872 l 542 1004 l 663 1004 l 639 872 l 518 872 m 258 872 l 282 1004 l 403 1004 l 379 872 l 258 872 z "},"ạ":{"ha":772,"x_min":29,"x_max":721,"o":"m 258 -17 q 92 49 154 -17 q 29 249 29 114 q 76 513 29 400 q 201 686 122 625 q 379 747 281 747 q 502 724 454 747 q 576 647 550 700 l 585 647 l 628 731 l 721 731 q 710 671 721 731 q 683 522 699 611 q 650 344 667 433 q 622 191 633 254 q 611 122 611 128 q 653 85 611 85 l 708 85 l 694 6 q 659 -9 683 -1 q 603 -17 635 -17 q 530 6 558 -17 q 501 82 501 29 q 507 172 501 106 l 560 115 l 496 115 q 392 17 457 50 q 258 -17 328 -17 m 289 85 q 439 151 383 85 q 519 308 494 217 q 544 474 544 399 q 396 646 544 646 q 263 592 317 646 q 183 449 210 538 q 157 256 157 360 q 289 85 157 85 z "},"à":{"ha":772,"x_min":29,"x_max":721,"o":"m 258 -17 q 92 49 154 -17 q 29 249 29 114 q 76 513 29 400 q 201 686 122 625 q 379 747 281 747 q 502 724 454 747 q 576 647 550 700 l 585 647 l 628 731 l 721 731 q 710 671 721 731 q 683 522 699 611 q 650 344 667 433 q 622 191 633 254 q 611 122 611 128 q 653 85 611 85 l 708 85 l 694 6 q 659 -9 683 -1 q 603 -17 635 -17 q 530 6 558 -17 q 501 82 501 29 q 507 172 501 106 l 560 115 l 496 115 q 392 17 457 50 q 258 -17 328 -17 m 289 85 q 439 151 383 85 q 519 308 494 217 q 544 474 544 399 q 396 646 544 646 q 263 592 317 646 q 183 449 210 538 q 157 256 157 360 q 289 85 157 85 m 388 821 l 269 1000 l 271 1004 l 404 1004 l 492 821 l 388 821 z "},"ả":{"ha":772,"x_min":29,"x_max":721,"o":"m 258 -17 q 92 49 154 -17 q 29 249 29 114 q 76 513 29 400 q 201 686 122 625 q 379 747 281 747 q 502 724 454 747 q 576 647 550 700 l 585 647 l 628 731 l 721 731 q 710 671 721 731 q 683 522 699 611 q 650 344 667 433 q 622 191 633 254 q 611 122 611 128 q 653 85 611 85 l 708 85 l 694 6 q 659 -9 683 -1 q 603 -17 635 -17 q 530 6 558 -17 q 501 82 501 29 q 507 172 501 106 l 560 115 l 496 115 q 392 17 457 50 q 258 -17 328 -17 m 289 85 q 439 151 383 85 q 519 308 494 217 q 544 474 544 399 q 396 646 544 646 q 263 592 317 646 q 183 449 210 538 q 157 256 157 360 q 289 85 157 85 m 401 821 l 417 906 l 435 906 q 479 936 479 906 q 440 956 479 956 l 357 956 l 367 1010 q 469 1021 415 1021 q 544 1008 507 1021 q 582 953 582 994 q 552 885 582 907 q 486 860 522 863 l 479 821 l 401 821 z "},"ȃ":{"ha":772,"x_min":29,"x_max":721,"o":"m 258 -17 q 92 49 154 -17 q 29 249 29 114 q 76 513 29 400 q 201 686 122 625 q 379 747 281 747 q 502 724 454 747 q 576 647 550 700 l 585 647 l 628 731 l 721 731 q 710 671 721 731 q 683 522 699 611 q 650 344 667 433 q 622 191 633 254 q 611 122 611 128 q 653 85 611 85 l 708 85 l 694 6 q 659 -9 683 -1 q 603 -17 635 -17 q 530 6 558 -17 q 501 82 501 29 q 507 172 501 106 l 560 115 l 496 115 q 392 17 457 50 q 258 -17 328 -17 m 289 85 q 439 151 383 85 q 519 308 494 217 q 544 474 544 399 q 396 646 544 646 q 263 592 317 646 q 183 449 210 538 q 157 256 157 360 q 289 85 157 85 m 240 842 q 299 951 251 899 q 471 1004 346 1004 q 608 962 568 1004 q 647 867 647 919 q 644 842 647 858 l 560 842 q 542 890 561 864 q 456 915 522 915 q 362 890 389 915 q 325 842 335 864 l 240 842 z "},"ā":{"ha":772,"x_min":29,"x_max":721,"o":"m 258 -17 q 92 49 154 -17 q 29 249 29 114 q 76 513 29 400 q 201 686 122 625 q 379 747 281 747 q 502 724 454 747 q 576 647 550 700 l 585 647 l 628 731 l 721 731 q 710 671 721 731 q 683 522 699 611 q 650 344 667 433 q 622 191 633 254 q 611 122 611 128 q 653 85 611 85 l 708 85 l 694 6 q 659 -9 683 -1 q 603 -17 635 -17 q 530 6 558 -17 q 501 82 501 29 q 507 172 501 106 l 560 115 l 496 115 q 392 17 457 50 q 258 -17 328 -17 m 289 85 q 439 151 383 85 q 519 308 494 217 q 544 474 544 399 q 396 646 544 646 q 263 592 317 646 q 183 449 210 538 q 157 256 157 360 q 289 85 157 85 m 238 871 l 256 971 l 679 971 l 661 871 l 238 871 z "},"ą":{"ha":772,"x_min":29,"x_max":721,"o":"m 557 -253 q 474 -231 514 -253 q 435 -150 435 -208 q 465 -65 435 -99 q 542 -6 494 -31 q 494 82 494 15 q 497 118 494 100 q 508 172 499 136 l 553 115 l 489 115 q 389 17 451 50 q 258 -17 326 -17 q 92 49 154 -17 q 29 249 29 114 q 76 513 29 400 q 201 686 122 625 q 379 747 281 747 q 502 724 454 747 q 576 647 550 700 l 585 647 l 628 731 l 721 731 q 709 671 721 731 q 680 522 697 611 q 645 344 663 433 q 616 191 628 254 q 604 122 604 128 q 646 85 604 85 l 701 85 l 688 6 q 604 -28 656 -4 q 553 -106 553 -53 q 565 -145 553 -128 q 614 -162 576 -162 l 658 -162 l 646 -233 q 557 -253 596 -253 m 289 85 q 408 129 360 85 q 487 239 457 174 q 531 369 517 304 q 544 474 544 433 q 396 646 544 646 q 263 592 317 646 q 183 449 210 538 q 157 256 157 360 q 289 85 157 85 z "},"å":{"ha":772,"x_min":29,"x_max":721,"o":"m 258 -17 q 92 49 154 -17 q 29 249 29 114 q 76 513 29 400 q 201 686 122 625 q 379 747 281 747 q 502 724 454 747 q 576 647 550 700 l 585 647 l 628 731 l 721 731 q 710 671 721 731 q 683 522 699 611 q 650 344 667 433 q 622 191 633 254 q 611 122 611 128 q 653 85 611 85 l 708 85 l 694 6 q 659 -9 683 -1 q 603 -17 635 -17 q 530 6 558 -17 q 501 82 501 29 q 507 172 501 106 l 560 115 l 496 115 q 392 17 457 50 q 258 -17 328 -17 m 289 85 q 439 151 383 85 q 519 308 494 217 q 544 474 544 399 q 396 646 544 646 q 263 592 317 646 q 183 449 210 538 q 157 256 157 360 q 289 85 157 85 m 433 786 q 349 817 382 786 q 317 896 317 849 q 357 1008 317 964 q 471 1053 397 1053 q 555 1021 522 1053 q 588 942 588 989 q 547 830 588 874 q 433 786 507 786 m 442 849 q 502 874 481 849 q 524 932 524 899 q 463 990 524 990 q 401 965 422 990 q 381 906 381 939 q 442 849 381 849 z "},"ǻ":{"ha":772,"x_min":29,"x_max":721,"o":"m 258 -17 q 92 49 154 -17 q 29 249 29 114 q 76 513 29 400 q 201 686 122 625 q 379 747 281 747 q 502 724 454 747 q 576 647 550 700 l 585 647 l 628 731 l 721 731 q 710 671 721 731 q 683 522 699 611 q 650 344 667 433 q 622 191 633 254 q 611 122 611 128 q 653 85 611 85 l 708 85 l 694 6 q 659 -9 683 -1 q 603 -17 635 -17 q 530 6 558 -17 q 501 82 501 29 q 507 172 501 106 l 560 115 l 496 115 q 392 17 457 50 q 258 -17 328 -17 m 289 85 q 439 151 383 85 q 519 308 494 217 q 544 474 544 399 q 396 646 544 646 q 263 592 317 646 q 183 449 210 538 q 157 256 157 360 q 289 85 157 85 m 433 786 q 349 817 382 786 q 317 896 317 849 q 357 1008 317 964 q 471 1053 397 1053 q 555 1021 522 1053 q 588 942 588 989 q 547 830 588 874 q 433 786 507 786 m 442 849 q 502 874 481 849 q 524 932 524 899 q 463 990 524 990 q 401 965 422 990 q 381 906 381 939 q 442 849 381 849 m 419 1085 l 569 1268 l 710 1268 l 711 1264 l 539 1085 l 419 1085 z "},"ã":{"ha":772,"x_min":29,"x_max":721,"o":"m 258 -17 q 92 49 154 -17 q 29 249 29 114 q 76 513 29 400 q 201 686 122 625 q 379 747 281 747 q 502 724 454 747 q 576 647 550 700 l 585 647 l 628 731 l 721 731 q 710 671 721 731 q 683 522 699 611 q 650 344 667 433 q 622 191 633 254 q 611 122 611 128 q 653 85 611 85 l 708 85 l 694 6 q 659 -9 683 -1 q 603 -17 635 -17 q 530 6 558 -17 q 501 82 501 29 q 507 172 501 106 l 560 115 l 496 115 q 392 17 457 50 q 258 -17 328 -17 m 289 85 q 439 151 383 85 q 519 308 494 217 q 544 474 544 399 q 396 646 544 646 q 263 592 317 646 q 183 449 210 538 q 157 256 157 360 q 289 85 157 85 m 219 860 q 265 961 229 918 q 363 1004 300 1004 q 465 983 421 1004 q 561 961 508 961 q 608 1004 597 961 l 699 1004 q 653 903 689 946 q 554 860 617 860 q 452 881 496 860 q 356 903 408 903 q 308 860 319 903 l 219 860 z "},"æ":{"ha":1235,"x_min":-7,"x_max":1176,"o":"m 231 -17 q 125 -4 181 -17 q 31 47 69 8 q -7 161 -7 85 q 68 333 -7 274 q 265 413 143 392 q 529 433 386 433 l 543 514 q 546 549 546 539 q 515 619 546 592 q 397 646 483 646 q 260 609 300 646 q 211 531 219 572 l 208 514 l 90 514 q 186 688 90 628 q 413 747 282 747 q 643 654 585 747 q 752 722 689 697 q 897 747 815 747 q 1176 496 1176 747 q 1165 393 1176 453 l 1154 332 l 639 332 q 635 304 636 317 q 635 279 635 292 q 822 85 635 85 q 949 122 892 85 q 1021 249 1007 160 l 1140 249 q 1029 49 1119 115 q 825 -17 939 -17 q 542 113 607 -17 q 397 14 478 44 q 231 -17 317 -17 m 253 85 q 408 135 328 85 q 503 279 489 185 l 511 332 q 231 301 339 332 q 124 168 124 271 q 253 85 124 85 m 657 433 l 1047 433 q 1052 461 1051 447 q 1053 488 1053 475 q 1009 609 1053 572 q 893 646 965 646 q 657 433 707 646 z "},"ǽ":{"ha":1235,"x_min":-7,"x_max":1176,"o":"m 231 -17 q 125 -4 181 -17 q 31 47 69 8 q -7 161 -7 85 q 68 333 -7 274 q 265 413 143 392 q 529 433 386 433 l 543 514 q 546 549 546 539 q 515 619 546 592 q 397 646 483 646 q 260 609 300 646 q 211 531 219 572 l 208 514 l 90 514 q 186 688 90 628 q 413 747 282 747 q 643 654 585 747 q 752 722 689 697 q 897 747 815 747 q 1176 496 1176 747 q 1165 393 1176 453 l 1154 332 l 639 332 q 635 304 636 317 q 635 279 635 292 q 822 85 635 85 q 949 122 892 85 q 1021 249 1007 160 l 1140 249 q 1029 49 1119 115 q 825 -17 939 -17 q 542 113 607 -17 q 397 14 478 44 q 231 -17 317 -17 m 253 85 q 408 135 328 85 q 503 279 489 185 l 511 332 q 231 301 339 332 q 124 168 124 271 q 253 85 124 85 m 657 433 l 1047 433 q 1052 461 1051 447 q 1053 488 1053 475 q 1009 609 1053 572 q 893 646 965 646 q 657 433 707 646 m 638 821 l 788 1004 l 928 1004 l 929 1000 l 757 821 l 638 821 z "},"b":{"ha":772,"x_min":18,"x_max":719,"o":"m 371 -17 q 150 99 208 -17 l 142 99 l 110 0 l 18 0 l 194 1004 l 317 1004 l 254 647 l 263 647 q 361 721 306 694 q 489 747 417 747 q 657 683 594 747 q 719 482 719 619 q 676 221 719 333 q 553 46 632 108 q 371 -17 475 -17 m 344 85 q 483 138 428 85 q 566 281 539 192 q 593 478 593 369 q 556 608 593 569 q 443 646 519 646 q 306 591 361 646 q 222 450 250 536 q 194 269 194 364 q 344 85 194 85 z "},"c":{"ha":694,"x_min":29,"x_max":661,"o":"m 311 -17 q 97 53 164 -17 q 29 268 29 124 q 65 494 29 383 q 179 676 100 604 q 393 747 258 747 q 601 681 542 747 q 661 511 661 614 q 660 485 661 499 q 658 460 660 472 l 533 460 q 535 500 535 474 q 508 603 535 560 q 397 646 482 646 q 235 567 288 646 q 167 394 183 489 q 159 333 161 364 q 157 275 157 303 q 195 128 157 171 q 307 85 233 85 q 447 143 400 85 q 508 271 494 201 l 626 271 q 532 69 608 154 q 311 -17 456 -17 z "},"ć":{"ha":694,"x_min":29,"x_max":661,"o":"m 311 -17 q 97 53 164 -17 q 29 268 29 124 q 65 494 29 383 q 179 676 100 604 q 393 747 258 747 q 601 681 542 747 q 661 511 661 614 q 660 485 661 499 q 658 460 660 472 l 533 460 q 535 500 535 474 q 508 603 535 560 q 397 646 482 646 q 235 567 288 646 q 167 394 183 489 q 159 333 161 364 q 157 275 157 303 q 195 128 157 171 q 307 85 233 85 q 447 143 400 85 q 508 271 494 201 l 626 271 q 532 69 608 154 q 311 -17 456 -17 m 367 821 l 517 1004 l 657 1004 l 658 1000 l 486 821 l 367 821 z "},"č":{"ha":694,"x_min":29,"x_max":664,"o":"m 311 -17 q 97 53 164 -17 q 29 268 29 124 q 65 494 29 383 q 179 676 100 604 q 393 747 258 747 q 601 681 542 747 q 661 511 661 614 q 660 485 661 499 q 658 460 660 472 l 533 460 q 535 500 535 474 q 508 603 535 560 q 397 646 482 646 q 235 567 288 646 q 167 394 183 489 q 159 333 161 364 q 157 275 157 303 q 195 128 157 171 q 307 85 233 85 q 447 143 400 85 q 508 271 494 201 l 626 271 q 532 69 608 154 q 311 -17 456 -17 m 368 817 l 254 1004 l 374 1004 l 436 894 l 533 1004 l 664 1004 l 485 817 l 368 817 z "},"ç":{"ha":694,"x_min":29,"x_max":661,"o":"m 311 -17 q 97 53 164 -17 q 29 268 29 124 q 65 494 29 383 q 179 676 100 604 q 393 747 258 747 q 601 681 542 747 q 661 511 661 614 q 660 485 661 499 q 658 460 660 472 l 533 460 q 535 500 535 474 q 508 603 535 560 q 397 646 482 646 q 235 567 288 646 q 167 394 183 489 q 159 333 161 364 q 157 275 157 303 q 195 128 157 171 q 307 85 233 85 q 447 143 400 85 q 508 271 494 201 l 626 271 q 532 69 608 154 q 311 -17 456 -17 m 247 -253 q 104 -242 167 -253 l 117 -174 l 256 -174 q 318 -132 318 -174 q 269 -107 318 -107 l 199 -107 l 243 15 l 329 15 l 306 -50 q 386 -69 353 -50 q 419 -131 419 -87 q 393 -208 419 -182 q 327 -244 367 -235 q 247 -253 288 -253 z "},"ĉ":{"ha":694,"x_min":29,"x_max":661,"o":"m 311 -17 q 97 53 164 -17 q 29 268 29 124 q 65 494 29 383 q 179 676 100 604 q 393 747 258 747 q 601 681 542 747 q 661 511 661 614 q 660 485 661 499 q 658 460 660 472 l 533 460 q 535 500 535 474 q 508 603 535 560 q 397 646 482 646 q 235 567 288 646 q 167 394 183 489 q 159 333 161 364 q 157 275 157 303 q 195 128 157 171 q 307 85 233 85 q 447 143 400 85 q 508 271 494 201 l 626 271 q 532 69 608 154 q 311 -17 456 -17 m 215 817 l 394 1004 l 511 1004 l 625 817 l 506 817 l 446 926 l 346 817 l 215 817 z "},"ċ":{"ha":694,"x_min":29,"x_max":661,"o":"m 311 -17 q 97 53 164 -17 q 29 268 29 124 q 65 494 29 383 q 179 676 100 604 q 393 747 258 747 q 601 681 542 747 q 661 511 661 614 q 660 485 661 499 q 658 460 660 472 l 533 460 q 535 500 535 474 q 508 603 535 560 q 397 646 482 646 q 235 567 288 646 q 167 394 183 489 q 159 333 161 364 q 157 275 157 303 q 195 128 157 171 q 307 85 233 85 q 447 143 400 85 q 508 271 494 201 l 626 271 q 532 69 608 154 q 311 -17 456 -17 m 375 872 l 399 1004 l 519 1004 l 496 872 l 375 872 z "},"d":{"ha":772,"x_min":29,"x_max":781,"o":"m 276 -17 q 95 51 161 -17 q 29 272 29 119 q 76 524 29 417 q 201 689 122 631 q 379 747 281 747 q 509 721 458 747 q 588 647 560 694 l 596 647 l 658 1004 l 781 1004 l 604 0 l 514 0 l 514 99 l 506 99 q 276 -17 418 -17 m 311 85 q 449 142 394 85 q 529 288 503 199 q 556 474 556 376 q 396 646 556 646 q 264 594 317 646 q 184 458 211 543 q 157 267 157 372 q 195 126 157 167 q 311 85 233 85 z "},"ð":{"ha":772,"x_min":29,"x_max":725,"o":"m 333 -17 q 29 257 29 -17 q 56 463 29 363 q 144 633 83 563 q 256 717 190 686 q 413 747 322 747 q 519 731 472 747 l 522 733 q 488 792 507 764 q 446 850 468 821 l 232 833 l 246 917 l 386 928 q 346 963 367 946 q 304 999 325 981 l 307 1004 l 443 1004 q 478 972 461 988 q 511 938 496 956 l 725 951 l 710 868 l 579 860 q 679 679 642 778 q 717 471 717 581 q 680 238 717 350 q 559 55 643 126 q 333 -17 475 -17 m 338 85 q 501 156 444 85 q 576 324 557 226 q 589 460 589 390 q 408 646 589 646 q 242 570 299 646 q 168 394 186 494 q 159 332 161 364 q 157 268 157 300 q 338 85 157 85 z "},"ď":{"ha":868,"x_min":29,"x_max":978,"o":"m 808 681 l 882 826 l 838 826 l 860 953 l 978 953 l 957 836 l 872 681 l 808 681 m 276 -17 q 95 51 161 -17 q 29 272 29 119 q 76 524 29 417 q 201 689 122 631 q 379 747 281 747 q 509 721 458 747 q 588 647 560 694 l 596 647 l 658 1004 l 781 1004 l 604 0 l 514 0 l 514 99 l 506 99 q 276 -17 418 -17 m 311 85 q 449 142 394 85 q 529 288 503 199 q 556 474 556 376 q 396 646 556 646 q 264 594 317 646 q 184 458 211 543 q 157 267 157 372 q 195 126 157 167 q 311 85 233 85 z "},"đ":{"ha":772,"x_min":29,"x_max":861,"o":"m 276 -17 q 95 51 161 -17 q 29 272 29 119 q 76 524 29 417 q 201 689 122 631 q 379 747 281 747 q 509 721 458 747 q 588 647 560 694 l 596 647 l 628 828 l 438 828 l 453 914 l 642 914 l 658 1004 l 781 1004 l 764 914 l 861 914 l 846 828 l 749 828 l 604 0 l 514 0 l 514 99 l 506 99 q 276 -17 418 -17 m 311 85 q 449 142 394 85 q 529 288 503 199 q 556 474 556 376 q 396 646 556 646 q 264 594 317 646 q 184 458 211 543 q 157 267 157 372 q 195 126 157 167 q 311 85 233 85 z "},"ḍ":{"ha":772,"x_min":29,"x_max":781,"o":"m 276 -17 q 95 51 161 -17 q 29 272 29 119 q 76 524 29 417 q 201 689 122 631 q 379 747 281 747 q 509 721 458 747 q 588 647 560 694 l 596 647 l 658 1004 l 781 1004 l 604 0 l 514 0 l 514 99 l 506 99 q 276 -17 418 -17 m 311 85 q 449 142 394 85 q 529 288 503 199 q 556 474 556 376 q 396 646 556 646 q 264 594 317 646 q 184 458 211 543 q 157 267 157 372 q 195 126 157 167 q 311 85 233 85 z "},"ǳ":{"ha":1467,"x_min":29,"x_max":1467,"o":"m 276 -17 q 95 51 161 -17 q 29 272 29 119 q 76 524 29 417 q 201 689 122 631 q 379 747 281 747 q 509 721 458 747 q 588 647 560 694 l 596 647 l 658 1004 l 781 1004 l 604 0 l 514 0 l 514 99 l 506 99 q 276 -17 418 -17 m 311 85 q 449 142 394 85 q 529 288 503 199 q 556 474 556 376 q 396 646 556 646 q 264 594 317 646 q 184 458 211 543 q 157 267 157 372 q 195 126 157 167 q 311 85 233 85 m 736 0 l 747 65 l 1261 629 l 875 629 l 893 731 l 1467 731 l 1456 667 l 939 101 l 1379 101 l 1361 0 l 736 0 z "},"ǆ":{"ha":1467,"x_min":29,"x_max":1467,"o":"m 276 -17 q 95 51 161 -17 q 29 272 29 119 q 76 524 29 417 q 201 689 122 631 q 379 747 281 747 q 509 721 458 747 q 588 647 560 694 l 596 647 l 658 1004 l 781 1004 l 604 0 l 514 0 l 514 99 l 506 99 q 276 -17 418 -17 m 311 85 q 449 142 394 85 q 529 288 503 199 q 556 474 556 376 q 396 646 556 646 q 264 594 317 646 q 184 458 211 543 q 157 267 157 372 q 195 126 157 167 q 311 85 233 85 z "},"e":{"ha":772,"x_min":29,"x_max":710,"o":"m 351 -17 q 29 272 29 -17 q 70 510 29 403 q 198 683 111 618 q 424 747 285 747 q 710 496 710 747 q 699 393 710 453 l 688 332 l 158 332 q 155 304 156 317 q 154 279 154 292 q 349 85 154 85 q 481 122 422 85 q 554 249 539 160 l 674 249 q 560 49 651 115 q 351 -17 469 -17 m 176 433 l 581 433 q 585 461 585 447 q 586 488 586 475 q 540 609 586 572 q 419 646 494 646 q 176 433 228 646 z "},"é":{"ha":772,"x_min":29,"x_max":710,"o":"m 351 -17 q 29 272 29 -17 q 70 510 29 403 q 198 683 111 618 q 424 747 285 747 q 710 496 710 747 q 699 393 710 453 l 688 332 l 158 332 q 155 304 156 317 q 154 279 154 292 q 349 85 154 85 q 481 122 422 85 q 554 249 539 160 l 674 249 q 560 49 651 115 q 351 -17 469 -17 m 176 433 l 581 433 q 585 461 585 447 q 586 488 586 475 q 540 609 586 572 q 419 646 494 646 q 176 433 228 646 m 378 821 l 528 1004 l 668 1004 l 669 1000 l 497 821 l 378 821 z "},"ĕ":{"ha":772,"x_min":29,"x_max":710,"o":"m 351 -17 q 29 272 29 -17 q 70 510 29 403 q 198 683 111 618 q 424 747 285 747 q 710 496 710 747 q 699 393 710 453 l 688 332 l 158 332 q 155 304 156 317 q 154 279 154 292 q 349 85 154 85 q 481 122 422 85 q 554 249 539 160 l 674 249 q 560 49 651 115 q 351 -17 469 -17 m 176 433 l 581 433 q 585 461 585 447 q 586 488 586 475 q 540 609 586 572 q 419 646 494 646 q 176 433 228 646 m 439 842 q 292 882 332 842 q 253 972 253 922 q 256 1004 253 993 l 340 1004 q 358 956 342 981 q 438 931 374 931 q 535 956 503 931 q 575 1004 568 981 l 660 1004 q 637 942 654 974 q 589 889 619 911 q 525 855 563 868 q 439 842 488 842 z "},"ě":{"ha":772,"x_min":29,"x_max":710,"o":"m 351 -17 q 29 272 29 -17 q 70 510 29 403 q 198 683 111 618 q 424 747 285 747 q 710 496 710 747 q 699 393 710 453 l 688 332 l 158 332 q 155 304 156 317 q 154 279 154 292 q 349 85 154 85 q 481 122 422 85 q 554 249 539 160 l 674 249 q 560 49 651 115 q 351 -17 469 -17 m 176 433 l 581 433 q 585 461 585 447 q 586 488 586 475 q 540 609 586 572 q 419 646 494 646 q 176 433 228 646 m 379 817 l 265 1004 l 385 1004 l 447 894 l 544 1004 l 675 1004 l 496 817 l 379 817 z "},"ê":{"ha":772,"x_min":29,"x_max":710,"o":"m 351 -17 q 29 272 29 -17 q 70 510 29 403 q 198 683 111 618 q 424 747 285 747 q 710 496 710 747 q 699 393 710 453 l 688 332 l 158 332 q 155 304 156 317 q 154 279 154 292 q 349 85 154 85 q 481 122 422 85 q 554 249 539 160 l 674 249 q 560 49 651 115 q 351 -17 469 -17 m 176 433 l 581 433 q 585 461 585 447 q 586 488 586 475 q 540 609 586 572 q 419 646 494 646 q 176 433 228 646 m 226 817 l 406 1004 l 522 1004 l 636 817 l 517 817 l 457 926 l 357 817 l 226 817 z "},"ế":{"ha":772,"x_min":29,"x_max":865,"o":"m 351 -17 q 29 272 29 -17 q 70 510 29 403 q 198 683 111 618 q 424 747 285 747 q 710 496 710 747 q 699 393 710 453 l 688 332 l 158 332 q 155 304 156 317 q 154 279 154 292 q 349 85 154 85 q 481 122 422 85 q 554 249 539 160 l 674 249 q 560 49 651 115 q 351 -17 469 -17 m 176 433 l 581 433 q 585 461 585 447 q 586 488 586 475 q 540 609 586 572 q 419 646 494 646 q 176 433 228 646 m 226 817 l 406 1004 l 522 1004 l 636 817 l 517 817 l 457 926 l 357 817 l 226 817 m 574 953 l 724 1136 l 864 1136 l 865 1132 l 693 953 l 574 953 z "},"ệ":{"ha":772,"x_min":29,"x_max":710,"o":"m 351 -17 q 29 272 29 -17 q 70 510 29 403 q 198 683 111 618 q 424 747 285 747 q 710 496 710 747 q 699 393 710 453 l 688 332 l 158 332 q 155 304 156 317 q 154 279 154 292 q 349 85 154 85 q 481 122 422 85 q 554 249 539 160 l 674 249 q 560 49 651 115 q 351 -17 469 -17 m 176 433 l 581 433 q 585 461 585 447 q 586 488 586 475 q 540 609 586 572 q 419 646 494 646 q 176 433 228 646 m 226 817 l 406 1004 l 522 1004 l 636 817 l 517 817 l 457 926 l 357 817 l 226 817 z "},"ề":{"ha":772,"x_min":29,"x_max":740,"o":"m 351 -17 q 29 272 29 -17 q 70 510 29 403 q 198 683 111 618 q 424 747 285 747 q 710 496 710 747 q 699 393 710 453 l 688 332 l 158 332 q 155 304 156 317 q 154 279 154 292 q 349 85 154 85 q 481 122 422 85 q 554 249 539 160 l 674 249 q 560 49 651 115 q 351 -17 469 -17 m 176 433 l 581 433 q 585 461 585 447 q 586 488 586 475 q 540 609 586 572 q 419 646 494 646 q 176 433 228 646 m 226 817 l 406 1004 l 522 1004 l 636 817 l 517 817 l 457 926 l 357 817 l 226 817 m 636 953 l 518 1132 l 519 1136 l 653 1136 l 740 953 l 636 953 z "},"ể":{"ha":772,"x_min":29,"x_max":775,"o":"m 351 -17 q 29 272 29 -17 q 70 510 29 403 q 198 683 111 618 q 424 747 285 747 q 710 496 710 747 q 699 393 710 453 l 688 332 l 158 332 q 155 304 156 317 q 154 279 154 292 q 349 85 154 85 q 481 122 422 85 q 554 249 539 160 l 674 249 q 560 49 651 115 q 351 -17 469 -17 m 176 433 l 581 433 q 585 461 585 447 q 586 488 586 475 q 540 609 586 572 q 419 646 494 646 q 176 433 228 646 m 226 817 l 406 1004 l 522 1004 l 636 817 l 517 817 l 457 926 l 357 817 l 226 817 m 594 953 l 610 1038 l 628 1038 q 672 1068 672 1038 q 633 1088 672 1088 l 550 1088 l 560 1142 q 663 1153 608 1153 q 738 1140 700 1153 q 775 1085 775 1126 q 745 1017 775 1039 q 679 992 715 994 l 672 953 l 594 953 z "},"ễ":{"ha":772,"x_min":29,"x_max":732,"o":"m 351 -17 q 29 272 29 -17 q 70 510 29 403 q 198 683 111 618 q 424 747 285 747 q 710 496 710 747 q 699 393 710 453 l 688 332 l 158 332 q 155 304 156 317 q 154 279 154 292 q 349 85 154 85 q 481 122 422 85 q 554 249 539 160 l 674 249 q 560 49 651 115 q 351 -17 469 -17 m 176 433 l 581 433 q 585 461 585 447 q 586 488 586 475 q 540 609 586 572 q 419 646 494 646 q 176 433 228 646 m 226 817 l 406 1004 l 522 1004 l 636 817 l 517 817 l 457 926 l 357 817 l 226 817 m 253 1082 q 298 1183 263 1140 q 396 1226 333 1226 q 498 1205 454 1226 q 594 1183 542 1183 q 642 1226 631 1183 l 732 1226 q 686 1125 722 1168 q 588 1082 650 1082 q 485 1103 529 1082 q 389 1125 442 1125 q 342 1082 353 1125 l 253 1082 z "},"ȅ":{"ha":772,"x_min":29,"x_max":710,"o":"m 351 -17 q 29 272 29 -17 q 70 510 29 403 q 198 683 111 618 q 424 747 285 747 q 710 496 710 747 q 699 393 710 453 l 688 332 l 158 332 q 155 304 156 317 q 154 279 154 292 q 349 85 154 85 q 481 122 422 85 q 554 249 539 160 l 674 249 q 560 49 651 115 q 351 -17 469 -17 m 176 433 l 581 433 q 585 461 585 447 q 586 488 586 475 q 540 609 586 572 q 419 646 494 646 q 176 433 228 646 m 501 821 l 417 1000 l 419 1004 l 554 1004 l 607 821 l 501 821 m 308 821 l 224 1000 l 226 1004 l 361 1004 l 414 821 l 308 821 z "},"ë":{"ha":772,"x_min":29,"x_max":710,"o":"m 351 -17 q 29 272 29 -17 q 70 510 29 403 q 198 683 111 618 q 424 747 285 747 q 710 496 710 747 q 699 393 710 453 l 688 332 l 158 332 q 155 304 156 317 q 154 279 154 292 q 349 85 154 85 q 481 122 422 85 q 554 249 539 160 l 674 249 q 560 49 651 115 q 351 -17 469 -17 m 176 433 l 581 433 q 585 461 585 447 q 586 488 586 475 q 540 609 586 572 q 419 646 494 646 q 176 433 228 646 m 517 872 l 540 1004 l 661 1004 l 638 872 l 517 872 m 257 872 l 281 1004 l 401 1004 l 378 872 l 257 872 z "},"ė":{"ha":772,"x_min":29,"x_max":710,"o":"m 351 -17 q 29 272 29 -17 q 70 510 29 403 q 198 683 111 618 q 424 747 285 747 q 710 496 710 747 q 699 393 710 453 l 688 332 l 158 332 q 155 304 156 317 q 154 279 154 292 q 349 85 154 85 q 481 122 422 85 q 554 249 539 160 l 674 249 q 560 49 651 115 q 351 -17 469 -17 m 176 433 l 581 433 q 585 461 585 447 q 586 488 586 475 q 540 609 586 572 q 419 646 494 646 q 176 433 228 646 m 386 872 l 410 1004 l 531 1004 l 507 872 l 386 872 z "},"ẹ":{"ha":772,"x_min":29,"x_max":710,"o":"m 351 -17 q 29 272 29 -17 q 70 510 29 403 q 198 683 111 618 q 424 747 285 747 q 710 496 710 747 q 699 393 710 453 l 688 332 l 158 332 q 155 304 156 317 q 154 279 154 292 q 349 85 154 85 q 481 122 422 85 q 554 249 539 160 l 674 249 q 560 49 651 115 q 351 -17 469 -17 m 176 433 l 581 433 q 585 461 585 447 q 586 488 586 475 q 540 609 586 572 q 419 646 494 646 q 176 433 228 646 z "},"è":{"ha":772,"x_min":29,"x_max":710,"o":"m 351 -17 q 29 272 29 -17 q 70 510 29 403 q 198 683 111 618 q 424 747 285 747 q 710 496 710 747 q 699 393 710 453 l 688 332 l 158 332 q 155 304 156 317 q 154 279 154 292 q 349 85 154 85 q 481 122 422 85 q 554 249 539 160 l 674 249 q 560 49 651 115 q 351 -17 469 -17 m 176 433 l 581 433 q 585 461 585 447 q 586 488 586 475 q 540 609 586 572 q 419 646 494 646 q 176 433 228 646 m 386 821 l 268 1000 l 269 1004 l 403 1004 l 490 821 l 386 821 z "},"ẻ":{"ha":772,"x_min":29,"x_max":710,"o":"m 351 -17 q 29 272 29 -17 q 70 510 29 403 q 198 683 111 618 q 424 747 285 747 q 710 496 710 747 q 699 393 710 453 l 688 332 l 158 332 q 155 304 156 317 q 154 279 154 292 q 349 85 154 85 q 481 122 422 85 q 554 249 539 160 l 674 249 q 560 49 651 115 q 351 -17 469 -17 m 176 433 l 581 433 q 585 461 585 447 q 586 488 586 475 q 540 609 586 572 q 419 646 494 646 q 176 433 228 646 m 400 821 l 415 906 l 433 906 q 478 936 478 906 q 439 956 478 956 l 356 956 l 365 1010 q 468 1021 414 1021 q 543 1008 506 1021 q 581 953 581 994 q 551 885 581 907 q 485 860 521 863 l 478 821 l 400 821 z "},"ȇ":{"ha":772,"x_min":29,"x_max":710,"o":"m 351 -17 q 29 272 29 -17 q 70 510 29 403 q 198 683 111 618 q 424 747 285 747 q 710 496 710 747 q 699 393 710 453 l 688 332 l 158 332 q 155 304 156 317 q 154 279 154 292 q 349 85 154 85 q 481 122 422 85 q 554 249 539 160 l 674 249 q 560 49 651 115 q 351 -17 469 -17 m 176 433 l 581 433 q 585 461 585 447 q 586 488 586 475 q 540 609 586 572 q 419 646 494 646 q 176 433 228 646 m 239 842 q 297 951 250 899 q 469 1004 344 1004 q 606 962 567 1004 q 646 867 646 919 q 643 842 646 858 l 558 842 q 540 890 560 864 q 454 915 521 915 q 360 890 388 915 q 324 842 333 864 l 239 842 z "},"ē":{"ha":772,"x_min":29,"x_max":710,"o":"m 351 -17 q 29 272 29 -17 q 70 510 29 403 q 198 683 111 618 q 424 747 285 747 q 710 496 710 747 q 699 393 710 453 l 688 332 l 158 332 q 155 304 156 317 q 154 279 154 292 q 349 85 154 85 q 481 122 422 85 q 554 249 539 160 l 674 249 q 560 49 651 115 q 351 -17 469 -17 m 176 433 l 581 433 q 585 461 585 447 q 586 488 586 475 q 540 609 586 572 q 419 646 494 646 q 176 433 228 646 m 236 871 l 254 971 l 678 971 l 660 871 l 236 871 z "},"ę":{"ha":772,"x_min":29,"x_max":710,"o":"m 500 -253 q 417 -228 456 -253 q 378 -136 378 -203 q 389 -67 378 -97 q 417 -11 400 -36 q 385 -15 401 -14 q 351 -17 368 -17 q 29 272 29 -17 q 70 510 29 403 q 198 683 111 618 q 424 747 285 747 q 710 496 710 747 q 699 393 710 453 l 688 332 l 158 332 q 155 304 156 317 q 154 279 154 292 q 349 85 154 85 q 481 122 422 85 q 554 249 539 160 l 674 249 q 567 54 654 129 q 520 -6 544 36 q 496 -92 496 -47 q 509 -141 496 -119 q 557 -162 522 -162 l 601 -162 l 589 -233 q 500 -253 539 -253 m 176 433 l 581 433 q 585 461 585 447 q 586 488 586 475 q 540 609 586 572 q 419 646 494 646 q 176 433 228 646 z "},"ẽ":{"ha":772,"x_min":29,"x_max":710,"o":"m 351 -17 q 29 272 29 -17 q 70 510 29 403 q 198 683 111 618 q 424 747 285 747 q 710 496 710 747 q 699 393 710 453 l 688 332 l 158 332 q 155 304 156 317 q 154 279 154 292 q 349 85 154 85 q 481 122 422 85 q 554 249 539 160 l 674 249 q 560 49 651 115 q 351 -17 469 -17 m 176 433 l 581 433 q 585 461 585 447 q 586 488 586 475 q 540 609 586 572 q 419 646 494 646 q 176 433 228 646 m 218 860 q 263 961 228 918 q 361 1004 299 1004 q 463 983 419 1004 q 560 961 507 961 q 607 1004 596 961 l 697 1004 q 651 903 688 946 q 553 860 615 860 q 451 881 494 860 q 354 903 407 903 q 307 860 318 903 l 218 860 z "},"f":{"ha":386,"x_min":-140,"x_max":479,"o":"m -39 -253 q -94 -248 -67 -253 q -140 -236 -122 -243 l -125 -151 l -53 -151 q 25 -85 14 -151 l 151 629 l 44 629 l 63 731 l 169 731 l 190 847 q 238 963 200 910 q 378 1015 275 1015 q 433 1010 406 1015 q 479 999 461 1006 l 464 914 l 392 914 q 313 847 324 914 l 292 731 l 432 731 l 414 629 l 274 629 l 147 -85 q 100 -200 136 -147 q -39 -253 64 -253 z "},"g":{"ha":772,"x_min":-6,"x_max":731,"o":"m 264 -253 q 68 -201 142 -253 q -6 -49 -6 -150 l -6 -35 l 114 -35 q 261 -153 118 -153 q 494 82 449 -153 l 500 111 l 492 111 q 394 38 449 64 q 265 11 339 11 q 93 72 157 11 q 29 263 29 132 q 73 517 29 408 q 196 687 117 626 q 378 747 275 747 q 599 632 540 747 l 607 632 l 639 731 l 731 731 l 617 88 q 499 -168 586 -83 q 264 -253 413 -253 m 311 113 q 446 165 392 113 q 527 301 500 218 q 554 475 554 385 q 404 646 554 646 q 265 594 319 646 q 183 457 210 543 q 156 267 156 371 q 193 147 156 182 q 311 113 231 113 z "},"ǵ":{"ha":772,"x_min":-6,"x_max":731,"o":"m 264 -253 q 68 -201 142 -253 q -6 -49 -6 -150 l -6 -35 l 114 -35 q 261 -153 118 -153 q 494 82 449 -153 l 500 111 l 492 111 q 394 38 449 64 q 265 11 339 11 q 93 72 157 11 q 29 263 29 132 q 73 517 29 408 q 196 687 117 626 q 378 747 275 747 q 599 632 540 747 l 607 632 l 639 731 l 731 731 l 617 88 q 499 -168 586 -83 q 264 -253 413 -253 m 311 113 q 446 165 392 113 q 527 301 500 218 q 554 475 554 385 q 404 646 554 646 q 265 594 319 646 q 183 457 210 543 q 156 267 156 371 q 193 147 156 182 q 311 113 231 113 m 372 821 l 522 1004 l 663 1004 l 664 1000 l 492 821 l 372 821 z "},"ğ":{"ha":772,"x_min":-6,"x_max":731,"o":"m 264 -253 q 68 -201 142 -253 q -6 -49 -6 -150 l -6 -35 l 114 -35 q 261 -153 118 -153 q 494 82 449 -153 l 500 111 l 492 111 q 394 38 449 64 q 265 11 339 11 q 93 72 157 11 q 29 263 29 132 q 73 517 29 408 q 196 687 117 626 q 378 747 275 747 q 599 632 540 747 l 607 632 l 639 731 l 731 731 l 617 88 q 499 -168 586 -83 q 264 -253 413 -253 m 311 113 q 446 165 392 113 q 527 301 500 218 q 554 475 554 385 q 404 646 554 646 q 265 594 319 646 q 183 457 210 543 q 156 267 156 371 q 193 147 156 182 q 311 113 231 113 m 433 842 q 287 882 326 842 q 247 972 247 922 q 250 1004 247 993 l 335 1004 q 352 956 336 981 q 432 931 368 931 q 530 956 497 931 q 569 1004 563 981 l 654 1004 q 631 942 649 974 q 583 889 614 911 q 519 855 557 868 q 433 842 482 842 z "},"ǧ":{"ha":772,"x_min":-6,"x_max":731,"o":"m 264 -253 q 68 -201 142 -253 q -6 -49 -6 -150 l -6 -35 l 114 -35 q 261 -153 118 -153 q 494 82 449 -153 l 500 111 l 492 111 q 394 38 449 64 q 265 11 339 11 q 93 72 157 11 q 29 263 29 132 q 73 517 29 408 q 196 687 117 626 q 378 747 275 747 q 599 632 540 747 l 607 632 l 639 731 l 731 731 l 617 88 q 499 -168 586 -83 q 264 -253 413 -253 m 311 113 q 446 165 392 113 q 527 301 500 218 q 554 475 554 385 q 404 646 554 646 q 265 594 319 646 q 183 457 210 543 q 156 267 156 371 q 193 147 156 182 q 311 113 231 113 m 374 817 l 260 1004 l 379 1004 l 442 894 l 539 1004 l 669 1004 l 490 817 l 374 817 z "},"ĝ":{"ha":772,"x_min":-6,"x_max":731,"o":"m 264 -253 q 68 -201 142 -253 q -6 -49 -6 -150 l -6 -35 l 114 -35 q 261 -153 118 -153 q 494 82 449 -153 l 500 111 l 492 111 q 394 38 449 64 q 265 11 339 11 q 93 72 157 11 q 29 263 29 132 q 73 517 29 408 q 196 687 117 626 q 378 747 275 747 q 599 632 540 747 l 607 632 l 639 731 l 731 731 l 617 88 q 499 -168 586 -83 q 264 -253 413 -253 m 311 113 q 446 165 392 113 q 527 301 500 218 q 554 475 554 385 q 404 646 554 646 q 265 594 319 646 q 183 457 210 543 q 156 267 156 371 q 193 147 156 182 q 311 113 231 113 m 221 817 l 400 1004 l 517 1004 l 631 817 l 511 817 l 451 926 l 351 817 l 221 817 z "},"ģ":{"ha":772,"x_min":-6,"x_max":731,"o":"m 264 -253 q 68 -201 142 -253 q -6 -49 -6 -150 l -6 -35 l 114 -35 q 261 -153 118 -153 q 494 82 449 -153 l 500 111 l 492 111 q 394 38 449 64 q 265 11 339 11 q 93 72 157 11 q 29 263 29 132 q 73 517 29 408 q 196 687 117 626 q 378 747 275 747 q 599 632 540 747 l 607 632 l 639 731 l 731 731 l 617 88 q 499 -168 586 -83 q 264 -253 413 -253 m 311 113 q 446 165 392 113 q 527 301 500 218 q 554 475 554 385 q 404 646 554 646 q 265 594 319 646 q 183 457 210 543 q 156 267 156 371 q 193 147 156 182 q 311 113 231 113 m 369 844 l 390 961 l 472 1083 l 538 1083 l 465 971 l 514 971 l 492 844 l 369 844 z "},"ġ":{"ha":772,"x_min":-6,"x_max":731,"o":"m 264 -253 q 68 -201 142 -253 q -6 -49 -6 -150 l -6 -35 l 114 -35 q 261 -153 118 -153 q 494 82 449 -153 l 500 111 l 492 111 q 394 38 449 64 q 265 11 339 11 q 93 72 157 11 q 29 263 29 132 q 73 517 29 408 q 196 687 117 626 q 378 747 275 747 q 599 632 540 747 l 607 632 l 639 731 l 731 731 l 617 88 q 499 -168 586 -83 q 264 -253 413 -253 m 311 113 q 446 165 392 113 q 527 301 500 218 q 554 475 554 385 q 404 646 554 646 q 265 594 319 646 q 183 457 210 543 q 156 267 156 371 q 193 147 156 182 q 311 113 231 113 m 381 872 l 404 1004 l 525 1004 l 501 872 l 381 872 z "},"h":{"ha":772,"x_min":18,"x_max":703,"o":"m 18 0 l 194 1004 l 317 1004 l 254 649 l 260 649 q 363 719 303 692 q 485 747 424 747 q 644 708 586 747 q 703 575 703 669 q 700 532 703 556 q 693 485 697 508 l 608 0 l 486 0 l 569 476 q 574 517 572 497 q 576 550 576 536 q 546 626 576 606 q 468 646 515 646 q 309 585 385 646 q 214 418 233 525 l 140 0 l 18 0 z "},"ħ":{"ha":772,"x_min":18,"x_max":703,"o":"m 18 0 l 163 828 l 71 828 l 86 914 l 178 914 l 194 1004 l 317 1004 l 300 914 l 494 914 l 479 828 l 285 828 l 254 649 l 260 649 q 363 719 303 692 q 485 747 424 747 q 644 708 586 747 q 703 575 703 669 q 700 532 703 556 q 693 485 697 508 l 608 0 l 486 0 l 569 476 q 574 517 572 497 q 576 550 576 536 q 546 626 576 606 q 468 646 515 646 q 309 585 385 646 q 214 418 233 525 l 140 0 l 18 0 z "},"ĥ":{"ha":772,"x_min":18,"x_max":703,"o":"m 18 0 l 194 1004 l 317 1004 l 254 649 l 260 649 q 363 719 303 692 q 485 747 424 747 q 644 708 586 747 q 703 575 703 669 q 700 532 703 556 q 693 485 697 508 l 608 0 l 486 0 l 569 476 q 574 517 572 497 q 576 550 576 536 q 546 626 576 606 q 468 646 515 646 q 309 585 385 646 q 214 418 233 525 l 140 0 l 18 0 m 50 1039 l 229 1226 l 346 1226 l 460 1039 l 340 1039 l 281 1149 l 181 1039 l 50 1039 z "},"ḥ":{"ha":772,"x_min":18,"x_max":703,"o":"m 18 0 l 194 1004 l 317 1004 l 254 649 l 260 649 q 363 719 303 692 q 485 747 424 747 q 644 708 586 747 q 703 575 703 669 q 700 532 703 556 q 693 485 697 508 l 608 0 l 486 0 l 569 476 q 574 517 572 497 q 576 550 576 536 q 546 626 576 606 q 468 646 515 646 q 309 585 385 646 q 214 418 233 525 l 140 0 l 18 0 z "},"i":{"ha":308,"x_min":18,"x_max":317,"o":"m 18 0 l 147 731 l 269 731 l 140 0 l 18 0 m 171 868 l 194 1004 l 317 1004 l 293 868 l 171 868 z "},"ı":{"ha":386,"x_min":49,"x_max":300,"o":"m 49 0 l 178 731 l 300 731 l 171 0 l 49 0 z "},"í":{"ha":386,"x_min":49,"x_max":474,"o":"m 49 0 l 178 731 l 300 731 l 171 0 l 49 0 m 182 821 l 333 1004 l 472 1004 l 474 1000 l 292 821 l 182 821 z "},"ĭ":{"ha":386,"x_min":49,"x_max":476,"o":"m 49 0 l 178 731 l 300 731 l 171 0 l 49 0 m 256 842 q 109 882 149 842 q 69 972 69 922 q 72 1004 69 993 l 157 1004 q 174 956 158 981 q 254 931 190 931 q 352 956 319 931 q 392 1004 385 981 l 476 1004 q 453 942 471 974 q 406 889 436 911 q 342 855 379 868 q 256 842 304 842 z "},"ǐ":{"ha":386,"x_min":49,"x_max":492,"o":"m 49 0 l 178 731 l 300 731 l 171 0 l 49 0 m 196 817 l 82 1004 l 201 1004 l 264 894 l 361 1004 l 492 1004 l 313 817 l 196 817 z "},"î":{"ha":386,"x_min":38,"x_max":447,"o":"m 49 0 l 178 731 l 300 731 l 171 0 l 49 0 m 38 817 l 217 1004 l 333 1004 l 447 817 l 328 817 l 268 926 l 168 817 l 38 817 z "},"ȉ":{"ha":386,"x_min":40,"x_max":424,"o":"m 49 0 l 178 731 l 300 731 l 171 0 l 49 0 m 318 821 l 233 1000 l 236 1004 l 371 1004 l 424 821 l 318 821 m 125 821 l 40 1000 l 43 1004 l 178 1004 l 231 821 l 125 821 z "},"ï":{"ha":386,"x_min":49,"x_max":468,"o":"m 49 0 l 178 731 l 300 731 l 171 0 l 49 0 m 64 872 l 88 1004 l 208 1004 l 185 872 l 64 872 m 324 872 l 347 1004 l 468 1004 l 444 872 l 324 872 z "},"ị":{"ha":308,"x_min":-24,"x_max":317,"o":"m 18 0 l 147 731 l 269 731 l 140 0 l 18 0 m 171 868 l 194 1004 l 317 1004 l 293 868 l 171 868 z "},"ì":{"ha":386,"x_min":49,"x_max":307,"o":"m 49 0 l 178 731 l 300 731 l 171 0 l 49 0 m 203 821 l 85 1000 l 86 1004 l 219 1004 l 307 821 l 203 821 z "},"ỉ":{"ha":386,"x_min":49,"x_max":397,"o":"m 49 0 l 178 731 l 300 731 l 171 0 l 49 0 m 217 821 l 232 906 l 250 906 q 294 936 294 906 q 256 956 294 956 l 172 956 l 182 1010 q 285 1021 231 1021 q 360 1008 322 1021 q 397 953 397 994 q 367 885 397 907 q 301 860 338 863 l 294 821 l 217 821 z "},"ȋ":{"ha":386,"x_min":49,"x_max":463,"o":"m 49 0 l 178 731 l 300 731 l 171 0 l 49 0 m 56 842 q 114 951 67 899 q 286 1004 161 1004 q 423 962 383 1004 q 463 867 463 919 q 460 842 463 858 l 375 842 q 357 890 376 864 q 271 915 338 915 q 177 890 204 915 q 140 842 150 864 l 56 842 z "},"ĳ":{"ha":617,"x_min":18,"x_max":625,"o":"m 18 0 l 147 731 l 269 731 l 140 0 l 18 0 m 171 868 l 194 1004 l 317 1004 l 293 868 l 171 868 m 253 -253 q 202 -247 228 -253 q 160 -236 176 -242 l 174 -157 l 235 -157 q 310 -90 299 -157 l 456 731 l 578 731 l 433 -85 q 387 -200 422 -147 q 253 -253 351 -253 m 479 868 l 503 1004 l 625 1004 l 601 868 l 479 868 z "},"ī":{"ha":386,"x_min":43,"x_max":485,"o":"m 49 0 l 178 731 l 300 731 l 171 0 l 49 0 m 43 888 l 61 988 l 485 988 l 467 888 l 43 888 z "},"į":{"ha":386,"x_min":-49,"x_max":347,"o":"m 49 0 l 178 731 l 300 731 l 171 0 l 49 0 m 203 872 l 226 1004 l 347 1004 l 324 872 l 203 872 z "},"ĩ":{"ha":386,"x_min":24,"x_max":503,"o":"m 49 0 l 178 731 l 300 731 l 171 0 l 49 0 m 24 860 q 69 961 33 918 q 167 1004 104 1004 q 269 983 225 1004 q 365 961 314 961 q 413 1004 401 961 l 503 1004 q 456 903 492 946 q 358 860 421 860 q 256 881 300 860 q 160 903 211 903 q 113 860 124 903 l 24 860 z "},"j":{"ha":308,"x_min":-149,"x_max":317,"o":"m -56 -253 q -106 -247 -81 -253 q -149 -236 -132 -242 l -135 -157 l -74 -157 q 1 -90 -10 -157 l 147 731 l 269 731 l 125 -85 q 78 -200 114 -147 q -56 -253 43 -253 m 171 868 l 194 1004 l 317 1004 l 293 868 l 171 868 z "},"ȷ":{"ha":308,"x_min":-149,"x_max":269,"o":"m -56 -253 q -106 -247 -81 -253 q -149 -236 -132 -242 l -135 -157 l -74 -157 q 1 -90 -10 -157 l 147 731 l 269 731 l 125 -85 q 78 -200 114 -147 q -56 -253 43 -253 z "},"ĵ":{"ha":308,"x_min":-149,"x_max":417,"o":"m -56 -253 q -106 -247 -81 -253 q -149 -236 -132 -242 l -135 -157 l -74 -157 q 1 -90 -10 -157 l 147 731 l 269 731 l 125 -85 q 78 -200 114 -147 q -56 -253 43 -253 m 7 817 l 186 1004 l 303 1004 l 417 817 l 297 817 l 238 926 l 138 817 l 7 817 z "},"k":{"ha":694,"x_min":18,"x_max":731,"o":"m 18 0 l 194 1004 l 317 1004 l 207 379 l 579 731 l 731 731 l 428 443 l 615 0 l 481 0 l 342 360 l 181 229 l 140 0 l 18 0 z "},"ķ":{"ha":694,"x_min":18,"x_max":731,"o":"m 18 0 l 194 1004 l 317 1004 l 207 379 l 579 731 l 731 731 l 428 443 l 615 0 l 481 0 l 342 360 l 181 229 l 140 0 l 18 0 m 192 -319 l 264 -207 l 215 -207 l 238 -81 l 360 -81 l 339 -197 l 257 -319 l 192 -319 z "},"ĸ":{"ha":694,"x_min":18,"x_max":731,"o":"m 18 0 l 146 731 l 268 731 l 207 379 l 579 731 l 731 731 l 428 443 l 615 0 l 481 0 l 342 360 l 181 229 l 140 0 l 18 0 z "},"l":{"ha":308,"x_min":18,"x_max":317,"o":"m 18 0 l 194 1004 l 317 1004 l 140 0 l 18 0 z "},"ĺ":{"ha":308,"x_min":18,"x_max":499,"o":"m 18 0 l 194 1004 l 317 1004 l 140 0 l 18 0 m 207 1043 l 357 1226 l 497 1226 l 499 1222 l 326 1043 l 207 1043 z "},"ľ":{"ha":406,"x_min":18,"x_max":510,"o":"m 340 681 l 414 826 l 369 826 l 392 953 l 510 953 l 489 836 l 404 681 l 340 681 m 18 0 l 194 1004 l 317 1004 l 140 0 l 18 0 z "},"ļ":{"ha":308,"x_min":-40,"x_max":317,"o":"m 18 0 l 194 1004 l 317 1004 l 140 0 l 18 0 m -40 -319 l 32 -207 l -17 -207 l 6 -81 l 128 -81 l 107 -197 l 25 -319 l -40 -319 z "},"ŀ":{"ha":393,"x_min":18,"x_max":451,"o":"m 18 0 l 194 1004 l 317 1004 l 140 0 l 18 0 m 286 421 l 313 571 l 451 571 l 425 421 l 286 421 z "},"ǉ":{"ha":617,"x_min":18,"x_max":625,"o":"m 18 0 l 194 1004 l 317 1004 l 140 0 l 18 0 m 253 -253 q 202 -247 228 -253 q 160 -236 176 -242 l 174 -157 l 235 -157 q 310 -90 299 -157 l 456 731 l 578 731 l 433 -85 q 387 -200 422 -147 q 253 -253 351 -253 m 479 868 l 503 1004 l 625 1004 l 601 868 l 479 868 z "},"ł":{"ha":308,"x_min":-12,"x_max":357,"o":"m 24 0 l 93 393 l -12 315 l 6 422 l 111 500 l 200 1004 l 322 1004 l 251 601 l 357 678 l 338 571 l 233 494 l 146 0 l 24 0 z "},"m":{"ha":1157,"x_min":18,"x_max":1092,"o":"m 18 0 l 147 731 l 236 731 l 236 632 l 246 632 q 351 719 293 692 q 475 747 410 747 q 592 720 544 747 q 654 632 639 693 l 663 632 q 772 718 710 689 q 899 747 835 747 q 1039 711 986 747 q 1092 589 1092 675 q 1090 559 1092 575 q 1086 526 1089 543 l 993 0 l 871 0 l 960 504 q 963 527 961 517 q 965 547 965 538 q 936 626 965 606 q 865 646 907 646 q 724 587 790 646 q 640 421 658 528 l 567 0 l 444 0 l 533 504 q 537 528 536 517 q 538 549 538 539 q 510 626 538 606 q 442 646 483 646 q 301 587 368 646 q 214 421 233 528 l 140 0 l 18 0 z "},"n":{"ha":772,"x_min":18,"x_max":703,"o":"m 18 0 l 147 731 l 236 731 l 236 632 l 246 632 q 353 715 288 683 q 485 747 418 747 q 644 708 586 747 q 703 575 703 669 q 700 532 703 556 q 693 485 697 508 l 608 0 l 486 0 l 569 476 q 574 517 572 497 q 576 550 576 536 q 546 626 576 606 q 468 646 515 646 q 309 585 385 646 q 214 418 233 525 l 140 0 l 18 0 z "},"ń":{"ha":772,"x_min":18,"x_max":703,"o":"m 18 0 l 147 731 l 236 731 l 236 632 l 246 632 q 353 715 288 683 q 485 747 418 747 q 644 708 586 747 q 703 575 703 669 q 700 532 703 556 q 693 485 697 508 l 608 0 l 486 0 l 569 476 q 574 517 572 497 q 576 550 576 536 q 546 626 576 606 q 468 646 515 646 q 309 585 385 646 q 214 418 233 525 l 140 0 l 18 0 m 406 821 l 556 1004 l 696 1004 l 697 1000 l 525 821 l 406 821 z "},"ŉ":{"ha":839,"x_min":42,"x_max":769,"o":"m 85 0 l 214 731 l 303 731 l 303 632 l 313 632 q 419 715 354 683 q 551 747 485 747 q 711 708 653 747 q 769 575 769 669 q 767 532 769 556 q 760 485 764 508 l 675 0 l 553 0 l 636 476 q 641 517 639 497 q 643 550 643 536 q 613 626 643 606 q 535 646 582 646 q 376 585 451 646 q 281 418 300 525 l 207 0 l 85 0 m 42 681 l 114 826 l 69 826 l 92 953 l 210 953 l 189 836 l 104 681 l 42 681 z "},"ň":{"ha":772,"x_min":18,"x_max":703,"o":"m 18 0 l 147 731 l 236 731 l 236 632 l 246 632 q 353 715 288 683 q 485 747 418 747 q 644 708 586 747 q 703 575 703 669 q 700 532 703 556 q 693 485 697 508 l 608 0 l 486 0 l 569 476 q 574 517 572 497 q 576 550 576 536 q 546 626 576 606 q 468 646 515 646 q 309 585 385 646 q 214 418 233 525 l 140 0 l 18 0 m 407 817 l 293 1004 l 413 1004 l 475 894 l 572 1004 l 703 1004 l 524 817 l 407 817 z "},"ņ":{"ha":772,"x_min":18,"x_max":703,"o":"m 18 0 l 147 731 l 236 731 l 236 632 l 246 632 q 353 715 288 683 q 485 747 418 747 q 644 708 586 747 q 703 575 703 669 q 700 532 703 556 q 693 485 697 508 l 608 0 l 486 0 l 569 476 q 574 517 572 497 q 576 550 576 536 q 546 626 576 606 q 468 646 515 646 q 309 585 385 646 q 214 418 233 525 l 140 0 l 18 0 m 203 -319 l 275 -207 l 226 -207 l 249 -81 l 371 -81 l 350 -197 l 268 -319 l 203 -319 z "},"ṅ":{"ha":772,"x_min":18,"x_max":703,"o":"m 18 0 l 147 731 l 236 731 l 236 632 l 246 632 q 353 715 288 683 q 485 747 418 747 q 644 708 586 747 q 703 575 703 669 q 700 532 703 556 q 693 485 697 508 l 608 0 l 486 0 l 569 476 q 574 517 572 497 q 576 550 576 536 q 546 626 576 606 q 468 646 515 646 q 309 585 385 646 q 214 418 233 525 l 140 0 l 18 0 m 414 872 l 438 1004 l 558 1004 l 535 872 l 414 872 z "},"ŋ":{"ha":772,"x_min":18,"x_max":703,"o":"m 413 -253 q 362 -247 388 -253 q 319 -236 336 -242 l 333 -157 l 394 -157 q 471 -90 460 -157 l 569 476 q 574 517 572 497 q 576 550 576 536 q 546 626 576 606 q 468 646 515 646 q 309 585 385 646 q 214 418 233 525 l 140 0 l 18 0 l 147 731 l 236 731 l 236 632 l 246 632 q 353 715 288 683 q 485 747 418 747 q 644 708 586 747 q 703 575 703 669 q 700 532 703 556 q 693 485 697 508 l 593 -85 q 547 -200 582 -147 q 413 -253 511 -253 z "},"ɲ":{"ha":772,"x_min":-149,"x_max":703,"o":"m -56 -253 q -106 -247 -81 -253 q -149 -236 -132 -242 l -135 -157 l -74 -157 q 3 -90 -8 -157 l 147 731 l 236 731 l 236 632 l 246 632 q 353 715 288 683 q 485 747 418 747 q 644 708 586 747 q 703 575 703 669 q 700 532 703 556 q 693 485 697 508 l 608 0 l 486 0 l 569 476 q 574 517 572 497 q 576 550 576 536 q 546 626 576 606 q 468 646 515 646 q 309 585 385 646 q 214 418 233 525 l 125 -85 q 78 -200 114 -147 q -56 -253 43 -253 z "},"ǌ":{"ha":1081,"x_min":18,"x_max":1089,"o":"m 18 0 l 147 731 l 236 731 l 236 632 l 246 632 q 353 715 288 683 q 485 747 418 747 q 644 708 586 747 q 703 575 703 669 q 700 532 703 556 q 693 485 697 508 l 608 0 l 486 0 l 569 476 q 574 517 572 497 q 576 550 576 536 q 546 626 576 606 q 468 646 515 646 q 309 585 385 646 q 214 418 233 525 l 140 0 l 18 0 m 717 -253 q 666 -247 692 -253 q 624 -236 640 -242 l 638 -157 l 699 -157 q 774 -90 763 -157 l 919 731 l 1042 731 l 897 -85 q 851 -200 886 -147 q 717 -253 815 -253 m 943 868 l 967 1004 l 1089 1004 l 1065 868 l 943 868 z "},"ñ":{"ha":772,"x_min":18,"x_max":725,"o":"m 18 0 l 147 731 l 236 731 l 236 632 l 246 632 q 353 715 288 683 q 485 747 418 747 q 644 708 586 747 q 703 575 703 669 q 700 532 703 556 q 693 485 697 508 l 608 0 l 486 0 l 569 476 q 574 517 572 497 q 576 550 576 536 q 546 626 576 606 q 468 646 515 646 q 309 585 385 646 q 214 418 233 525 l 140 0 l 18 0 m 246 860 q 291 961 256 918 q 389 1004 326 1004 q 491 983 447 1004 q 588 961 535 961 q 635 1004 624 961 l 725 1004 q 679 903 715 946 q 581 860 643 860 q 478 881 522 860 q 382 903 435 903 q 335 860 346 903 l 246 860 z "},"o":{"ha":772,"x_min":31,"x_max":715,"o":"m 328 -17 q 109 60 188 -17 q 31 272 31 136 q 38 374 31 308 q 160 655 65 563 q 417 747 254 747 q 637 672 558 747 q 715 463 715 597 q 713 414 715 439 q 707 357 710 389 q 585 76 679 168 q 328 -17 490 -17 m 333 86 q 503 154 443 86 q 585 374 563 222 q 593 476 593 432 q 546 602 592 558 q 411 646 500 646 q 242 577 301 646 q 160 357 182 508 q 154 301 156 328 q 153 254 153 275 q 200 129 156 172 q 333 86 244 86 z "},"ó":{"ha":772,"x_min":31,"x_max":715,"o":"m 328 -17 q 109 60 188 -17 q 31 272 31 136 q 38 374 31 308 q 160 655 65 563 q 417 747 254 747 q 637 672 558 747 q 715 463 715 597 q 713 414 715 439 q 707 357 710 389 q 585 76 679 168 q 328 -17 490 -17 m 333 86 q 503 154 443 86 q 585 374 563 222 q 593 476 593 432 q 546 602 592 558 q 411 646 500 646 q 242 577 301 646 q 160 357 182 508 q 154 301 156 328 q 153 254 153 275 q 200 129 156 172 q 333 86 244 86 m 375 821 l 525 1004 l 665 1004 l 667 1000 l 494 821 l 375 821 z "},"ŏ":{"ha":772,"x_min":31,"x_max":715,"o":"m 328 -17 q 109 60 188 -17 q 31 272 31 136 q 38 374 31 308 q 160 655 65 563 q 417 747 254 747 q 637 672 558 747 q 715 463 715 597 q 713 414 715 439 q 707 357 710 389 q 585 76 679 168 q 328 -17 490 -17 m 333 86 q 503 154 443 86 q 585 374 563 222 q 593 476 593 432 q 546 602 592 558 q 411 646 500 646 q 242 577 301 646 q 160 357 182 508 q 154 301 156 328 q 153 254 153 275 q 200 129 156 172 q 333 86 244 86 m 436 842 q 290 882 329 842 q 250 972 250 922 q 253 1004 250 993 l 338 1004 q 355 956 339 981 q 435 931 371 931 q 533 956 500 931 q 572 1004 565 981 l 657 1004 q 634 942 651 974 q 586 889 617 911 q 522 855 560 868 q 436 842 485 842 z "},"ǒ":{"ha":772,"x_min":31,"x_max":715,"o":"m 328 -17 q 109 60 188 -17 q 31 272 31 136 q 38 374 31 308 q 160 655 65 563 q 417 747 254 747 q 637 672 558 747 q 715 463 715 597 q 713 414 715 439 q 707 357 710 389 q 585 76 679 168 q 328 -17 490 -17 m 333 86 q 503 154 443 86 q 585 374 563 222 q 593 476 593 432 q 546 602 592 558 q 411 646 500 646 q 242 577 301 646 q 160 357 182 508 q 154 301 156 328 q 153 254 153 275 q 200 129 156 172 q 333 86 244 86 m 376 817 l 263 1004 l 382 1004 l 444 894 l 542 1004 l 672 1004 l 493 817 l 376 817 z "},"ô":{"ha":772,"x_min":31,"x_max":715,"o":"m 328 -17 q 109 60 188 -17 q 31 272 31 136 q 38 374 31 308 q 160 655 65 563 q 417 747 254 747 q 637 672 558 747 q 715 463 715 597 q 713 414 715 439 q 707 357 710 389 q 585 76 679 168 q 328 -17 490 -17 m 333 86 q 503 154 443 86 q 585 374 563 222 q 593 476 593 432 q 546 602 592 558 q 411 646 500 646 q 242 577 301 646 q 160 357 182 508 q 154 301 156 328 q 153 254 153 275 q 200 129 156 172 q 333 86 244 86 m 224 817 l 403 1004 l 519 1004 l 633 817 l 514 817 l 454 926 l 354 817 l 224 817 z "},"ố":{"ha":772,"x_min":31,"x_max":863,"o":"m 328 -17 q 109 60 188 -17 q 31 272 31 136 q 38 374 31 308 q 160 655 65 563 q 417 747 254 747 q 637 672 558 747 q 715 463 715 597 q 713 414 715 439 q 707 357 710 389 q 585 76 679 168 q 328 -17 490 -17 m 333 86 q 503 154 443 86 q 585 374 563 222 q 593 476 593 432 q 546 602 592 558 q 411 646 500 646 q 242 577 301 646 q 160 357 182 508 q 154 301 156 328 q 153 254 153 275 q 200 129 156 172 q 333 86 244 86 m 224 817 l 403 1004 l 519 1004 l 633 817 l 514 817 l 454 926 l 354 817 l 224 817 m 571 953 l 721 1136 l 861 1136 l 863 1132 l 690 953 l 571 953 z "},"ộ":{"ha":772,"x_min":31,"x_max":715,"o":"m 328 -17 q 109 60 188 -17 q 31 272 31 136 q 38 374 31 308 q 160 655 65 563 q 417 747 254 747 q 637 672 558 747 q 715 463 715 597 q 713 414 715 439 q 707 357 710 389 q 585 76 679 168 q 328 -17 490 -17 m 333 86 q 503 154 443 86 q 585 374 563 222 q 593 476 593 432 q 546 602 592 558 q 411 646 500 646 q 242 577 301 646 q 160 357 182 508 q 154 301 156 328 q 153 254 153 275 q 200 129 156 172 q 333 86 244 86 m 224 817 l 403 1004 l 519 1004 l 633 817 l 514 817 l 454 926 l 354 817 l 224 817 z "},"ồ":{"ha":772,"x_min":31,"x_max":738,"o":"m 328 -17 q 109 60 188 -17 q 31 272 31 136 q 38 374 31 308 q 160 655 65 563 q 417 747 254 747 q 637 672 558 747 q 715 463 715 597 q 713 414 715 439 q 707 357 710 389 q 585 76 679 168 q 328 -17 490 -17 m 333 86 q 503 154 443 86 q 585 374 563 222 q 593 476 593 432 q 546 602 592 558 q 411 646 500 646 q 242 577 301 646 q 160 357 182 508 q 154 301 156 328 q 153 254 153 275 q 200 129 156 172 q 333 86 244 86 m 224 817 l 403 1004 l 519 1004 l 633 817 l 514 817 l 454 926 l 354 817 l 224 817 m 633 953 l 515 1132 l 517 1136 l 650 1136 l 738 953 l 633 953 z "},"ổ":{"ha":772,"x_min":31,"x_max":772,"o":"m 328 -17 q 109 60 188 -17 q 31 272 31 136 q 38 374 31 308 q 160 655 65 563 q 417 747 254 747 q 637 672 558 747 q 715 463 715 597 q 713 414 715 439 q 707 357 710 389 q 585 76 679 168 q 328 -17 490 -17 m 333 86 q 503 154 443 86 q 585 374 563 222 q 593 476 593 432 q 546 602 592 558 q 411 646 500 646 q 242 577 301 646 q 160 357 182 508 q 154 301 156 328 q 153 254 153 275 q 200 129 156 172 q 333 86 244 86 m 224 817 l 403 1004 l 519 1004 l 633 817 l 514 817 l 454 926 l 354 817 l 224 817 m 592 953 l 607 1038 l 625 1038 q 669 1068 669 1038 q 631 1088 669 1088 l 547 1088 l 557 1142 q 660 1153 606 1153 q 735 1140 697 1153 q 772 1085 772 1126 q 742 1017 772 1039 q 676 992 713 994 l 669 953 l 592 953 z "},"ỗ":{"ha":772,"x_min":31,"x_max":729,"o":"m 328 -17 q 109 60 188 -17 q 31 272 31 136 q 38 374 31 308 q 160 655 65 563 q 417 747 254 747 q 637 672 558 747 q 715 463 715 597 q 713 414 715 439 q 707 357 710 389 q 585 76 679 168 q 328 -17 490 -17 m 333 86 q 503 154 443 86 q 585 374 563 222 q 593 476 593 432 q 546 602 592 558 q 411 646 500 646 q 242 577 301 646 q 160 357 182 508 q 154 301 156 328 q 153 254 153 275 q 200 129 156 172 q 333 86 244 86 m 224 817 l 403 1004 l 519 1004 l 633 817 l 514 817 l 454 926 l 354 817 l 224 817 m 250 1082 q 295 1183 260 1140 q 393 1226 331 1226 q 495 1205 451 1226 q 592 1183 539 1183 q 639 1226 628 1183 l 729 1226 q 683 1125 719 1168 q 585 1082 647 1082 q 483 1103 526 1082 q 386 1125 439 1125 q 339 1082 350 1125 l 250 1082 z "},"ȍ":{"ha":772,"x_min":31,"x_max":715,"o":"m 328 -17 q 109 60 188 -17 q 31 272 31 136 q 38 374 31 308 q 160 655 65 563 q 417 747 254 747 q 637 672 558 747 q 715 463 715 597 q 713 414 715 439 q 707 357 710 389 q 585 76 679 168 q 328 -17 490 -17 m 333 86 q 503 154 443 86 q 585 374 563 222 q 593 476 593 432 q 546 602 592 558 q 411 646 500 646 q 242 577 301 646 q 160 357 182 508 q 154 301 156 328 q 153 254 153 275 q 200 129 156 172 q 333 86 244 86 m 499 821 l 414 1000 l 417 1004 l 551 1004 l 604 821 l 499 821 m 306 821 l 221 1000 l 224 1004 l 358 1004 l 411 821 l 306 821 z "},"ö":{"ha":772,"x_min":31,"x_max":715,"o":"m 328 -17 q 109 60 188 -17 q 31 272 31 136 q 38 374 31 308 q 160 655 65 563 q 417 747 254 747 q 637 672 558 747 q 715 463 715 597 q 713 414 715 439 q 707 357 710 389 q 585 76 679 168 q 328 -17 490 -17 m 333 86 q 503 154 443 86 q 585 374 563 222 q 593 476 593 432 q 546 602 592 558 q 411 646 500 646 q 242 577 301 646 q 160 357 182 508 q 154 301 156 328 q 153 254 153 275 q 200 129 156 172 q 333 86 244 86 m 514 872 l 538 1004 l 658 1004 l 635 872 l 514 872 m 254 872 l 278 1004 l 399 1004 l 375 872 l 254 872 z "},"ọ":{"ha":772,"x_min":31,"x_max":715,"o":"m 328 -17 q 109 60 188 -17 q 31 272 31 136 q 38 374 31 308 q 160 655 65 563 q 417 747 254 747 q 637 672 558 747 q 715 463 715 597 q 713 414 715 439 q 707 357 710 389 q 585 76 679 168 q 328 -17 490 -17 m 333 86 q 503 154 443 86 q 585 374 563 222 q 593 476 593 432 q 546 602 592 558 q 411 646 500 646 q 242 577 301 646 q 160 357 182 508 q 154 301 156 328 q 153 254 153 275 q 200 129 156 172 q 333 86 244 86 z "},"ò":{"ha":772,"x_min":31,"x_max":715,"o":"m 328 -17 q 109 60 188 -17 q 31 272 31 136 q 38 374 31 308 q 160 655 65 563 q 417 747 254 747 q 637 672 558 747 q 715 463 715 597 q 713 414 715 439 q 707 357 710 389 q 585 76 679 168 q 328 -17 490 -17 m 333 86 q 503 154 443 86 q 585 374 563 222 q 593 476 593 432 q 546 602 592 558 q 411 646 500 646 q 242 577 301 646 q 160 357 182 508 q 154 301 156 328 q 153 254 153 275 q 200 129 156 172 q 333 86 244 86 m 383 821 l 265 1000 l 267 1004 l 400 1004 l 488 821 l 383 821 z "},"ỏ":{"ha":772,"x_min":31,"x_max":715,"o":"m 328 -17 q 109 60 188 -17 q 31 272 31 136 q 38 374 31 308 q 160 655 65 563 q 417 747 254 747 q 637 672 558 747 q 715 463 715 597 q 713 414 715 439 q 707 357 710 389 q 585 76 679 168 q 328 -17 490 -17 m 333 86 q 503 154 443 86 q 585 374 563 222 q 593 476 593 432 q 546 602 592 558 q 411 646 500 646 q 242 577 301 646 q 160 357 182 508 q 154 301 156 328 q 153 254 153 275 q 200 129 156 172 q 333 86 244 86 m 397 821 l 413 906 l 431 906 q 475 936 475 906 q 436 956 475 956 l 353 956 l 363 1010 q 465 1021 411 1021 q 540 1008 503 1021 q 578 953 578 994 q 548 885 578 907 q 482 860 518 863 l 475 821 l 397 821 z "},"ơ":{"ha":772,"x_min":31,"x_max":885,"o":"m 328 -17 q 109 60 188 -17 q 31 272 31 136 q 38 374 31 308 q 160 655 65 563 q 417 747 254 747 q 637 672 558 747 q 715 463 715 597 q 713 414 715 439 q 707 357 710 389 q 585 76 679 168 q 328 -17 490 -17 m 333 86 q 503 154 443 86 q 585 374 563 222 q 593 476 593 432 q 546 602 592 558 q 411 646 500 646 q 242 577 301 646 q 160 357 182 508 q 154 301 156 328 q 153 254 153 275 q 200 129 156 172 q 333 86 244 86 m 574 601 l 574 679 q 782 858 756 699 l 872 878 q 779 687 854 758 q 574 601 704 615 m 706 803 l 732 953 l 885 953 l 872 878 l 801 803 l 706 803 z "},"ớ":{"ha":772,"x_min":31,"x_max":885,"o":"m 328 -17 q 109 60 188 -17 q 31 272 31 136 q 38 374 31 308 q 160 655 65 563 q 417 747 254 747 q 637 672 558 747 q 715 463 715 597 q 713 414 715 439 q 707 357 710 389 q 585 76 679 168 q 328 -17 490 -17 m 333 86 q 503 154 443 86 q 585 374 563 222 q 593 476 593 432 q 546 602 592 558 q 411 646 500 646 q 242 577 301 646 q 160 357 182 508 q 154 301 156 328 q 153 254 153 275 q 200 129 156 172 q 333 86 244 86 m 574 601 l 574 679 q 782 858 756 699 l 872 878 q 779 687 854 758 q 574 601 704 615 m 706 803 l 732 953 l 885 953 l 872 878 l 801 803 l 706 803 m 375 821 l 525 1004 l 665 1004 l 667 1000 l 494 821 l 375 821 z "},"ợ":{"ha":772,"x_min":31,"x_max":885,"o":"m 328 -17 q 109 60 188 -17 q 31 272 31 136 q 38 374 31 308 q 160 655 65 563 q 417 747 254 747 q 637 672 558 747 q 715 463 715 597 q 713 414 715 439 q 707 357 710 389 q 585 76 679 168 q 328 -17 490 -17 m 333 86 q 503 154 443 86 q 585 374 563 222 q 593 476 593 432 q 546 602 592 558 q 411 646 500 646 q 242 577 301 646 q 160 357 182 508 q 154 301 156 328 q 153 254 153 275 q 200 129 156 172 q 333 86 244 86 m 574 601 l 574 679 q 782 858 756 699 l 872 878 q 779 687 854 758 q 574 601 704 615 m 706 803 l 732 953 l 885 953 l 872 878 l 801 803 l 706 803 z "},"ờ":{"ha":772,"x_min":31,"x_max":885,"o":"m 328 -17 q 109 60 188 -17 q 31 272 31 136 q 38 374 31 308 q 160 655 65 563 q 417 747 254 747 q 637 672 558 747 q 715 463 715 597 q 713 414 715 439 q 707 357 710 389 q 585 76 679 168 q 328 -17 490 -17 m 333 86 q 503 154 443 86 q 585 374 563 222 q 593 476 593 432 q 546 602 592 558 q 411 646 500 646 q 242 577 301 646 q 160 357 182 508 q 154 301 156 328 q 153 254 153 275 q 200 129 156 172 q 333 86 244 86 m 574 601 l 574 679 q 782 858 756 699 l 872 878 q 779 687 854 758 q 574 601 704 615 m 706 803 l 732 953 l 885 953 l 872 878 l 801 803 l 706 803 m 383 821 l 265 1000 l 267 1004 l 400 1004 l 488 821 l 383 821 z "},"ở":{"ha":772,"x_min":31,"x_max":885,"o":"m 328 -17 q 109 60 188 -17 q 31 272 31 136 q 38 374 31 308 q 160 655 65 563 q 417 747 254 747 q 637 672 558 747 q 715 463 715 597 q 713 414 715 439 q 707 357 710 389 q 585 76 679 168 q 328 -17 490 -17 m 333 86 q 503 154 443 86 q 585 374 563 222 q 593 476 593 432 q 546 602 592 558 q 411 646 500 646 q 242 577 301 646 q 160 357 182 508 q 154 301 156 328 q 153 254 153 275 q 200 129 156 172 q 333 86 244 86 m 574 601 l 574 679 q 782 858 756 699 l 872 878 q 779 687 854 758 q 574 601 704 615 m 706 803 l 732 953 l 885 953 l 872 878 l 801 803 l 706 803 m 397 821 l 413 906 l 431 906 q 475 936 475 906 q 436 956 475 956 l 353 956 l 363 1010 q 465 1021 411 1021 q 540 1008 503 1021 q 578 953 578 994 q 548 885 578 907 q 482 860 518 863 l 475 821 l 397 821 z "},"ỡ":{"ha":772,"x_min":31,"x_max":885,"o":"m 328 -17 q 109 60 188 -17 q 31 272 31 136 q 38 374 31 308 q 160 655 65 563 q 417 747 254 747 q 637 672 558 747 q 715 463 715 597 q 713 414 715 439 q 707 357 710 389 q 585 76 679 168 q 328 -17 490 -17 m 333 86 q 503 154 443 86 q 585 374 563 222 q 593 476 593 432 q 546 602 592 558 q 411 646 500 646 q 242 577 301 646 q 160 357 182 508 q 154 301 156 328 q 153 254 153 275 q 200 129 156 172 q 333 86 244 86 m 574 601 l 574 679 q 782 858 756 699 l 872 878 q 779 687 854 758 q 574 601 704 615 m 706 803 l 732 953 l 885 953 l 872 878 l 801 803 l 706 803 m 215 860 q 260 961 225 918 q 358 1004 296 1004 q 460 983 417 1004 q 557 961 504 961 q 604 1004 593 961 l 694 1004 q 649 903 685 946 q 550 860 613 860 q 448 881 492 860 q 351 903 404 903 q 304 860 315 903 l 215 860 z "},"ő":{"ha":772,"x_min":31,"x_max":739,"o":"m 328 -17 q 109 60 188 -17 q 31 272 31 136 q 38 374 31 308 q 160 655 65 563 q 417 747 254 747 q 637 672 558 747 q 715 463 715 597 q 713 414 715 439 q 707 357 710 389 q 585 76 679 168 q 328 -17 490 -17 m 333 86 q 503 154 443 86 q 585 374 563 222 q 593 476 593 432 q 546 602 592 558 q 411 646 500 646 q 242 577 301 646 q 160 357 182 508 q 154 301 156 328 q 153 254 153 275 q 200 129 156 172 q 333 86 244 86 m 479 821 l 597 1004 l 738 1004 l 739 1000 l 590 821 l 479 821 m 281 821 l 399 1004 l 539 1004 l 540 1000 l 392 821 l 281 821 z "},"ȏ":{"ha":772,"x_min":31,"x_max":715,"o":"m 328 -17 q 109 60 188 -17 q 31 272 31 136 q 38 374 31 308 q 160 655 65 563 q 417 747 254 747 q 637 672 558 747 q 715 463 715 597 q 713 414 715 439 q 707 357 710 389 q 585 76 679 168 q 328 -17 490 -17 m 333 86 q 503 154 443 86 q 585 374 563 222 q 593 476 593 432 q 546 602 592 558 q 411 646 500 646 q 242 577 301 646 q 160 357 182 508 q 154 301 156 328 q 153 254 153 275 q 200 129 156 172 q 333 86 244 86 m 236 842 q 294 951 247 899 q 467 1004 342 1004 q 603 962 564 1004 q 643 867 643 919 q 640 842 643 858 l 556 842 q 538 890 557 864 q 451 915 518 915 q 358 890 385 915 q 321 842 331 864 l 236 842 z "},"ō":{"ha":772,"x_min":31,"x_max":715,"o":"m 328 -17 q 109 60 188 -17 q 31 272 31 136 q 38 374 31 308 q 160 655 65 563 q 417 747 254 747 q 637 672 558 747 q 715 463 715 597 q 713 414 715 439 q 707 357 710 389 q 585 76 679 168 q 328 -17 490 -17 m 333 86 q 503 154 443 86 q 585 374 563 222 q 593 476 593 432 q 546 602 592 558 q 411 646 500 646 q 242 577 301 646 q 160 357 182 508 q 154 301 156 328 q 153 254 153 275 q 200 129 156 172 q 333 86 244 86 m 233 871 l 251 971 l 675 971 l 657 871 l 233 871 z "},"ǫ":{"ha":772,"x_min":31,"x_max":715,"o":"m 328 -17 q 109 60 188 -17 q 31 272 31 136 q 38 374 31 308 q 160 655 65 563 q 417 747 254 747 q 637 672 558 747 q 715 463 715 597 q 713 414 715 439 q 707 357 710 389 q 585 76 679 168 q 328 -17 490 -17 m 333 86 q 503 154 443 86 q 585 374 563 222 q 593 476 593 432 q 546 602 592 558 q 411 646 500 646 q 242 577 301 646 q 160 357 182 508 q 154 301 156 328 q 153 254 153 275 q 200 129 156 172 q 333 86 244 86 m 421 -253 q 338 -231 378 -253 q 299 -150 299 -208 q 333 -50 299 -89 q 406 17 367 -11 l 488 17 l 488 11 q 440 -39 464 -8 q 417 -106 417 -69 q 430 -145 417 -128 q 478 -162 443 -162 l 522 -162 l 510 -233 q 421 -253 460 -253 z "},"ø":{"ha":849,"x_min":11,"x_max":804,"o":"m 11 -68 l 121 69 q 63 257 63 136 q 99 490 63 378 q 219 675 136 603 q 446 747 303 747 q 631 710 558 747 l 701 799 l 804 799 l 693 658 q 750 471 750 590 q 713 238 750 350 q 592 55 676 126 q 367 -17 508 -17 q 183 19 256 -17 l 114 -68 l 11 -68 m 371 85 q 513 135 460 85 q 592 261 565 186 q 615 358 608 307 q 622 460 622 410 q 619 510 622 486 q 608 553 615 533 l 256 110 q 371 85 296 85 m 204 175 l 557 618 q 442 646 514 646 q 283 578 339 646 q 207 419 228 511 q 194 344 197 382 q 190 268 190 306 q 204 175 190 211 z "},"ǿ":{"ha":849,"x_min":11,"x_max":804,"o":"m 11 -68 l 121 69 q 63 257 63 136 q 99 490 63 378 q 219 675 136 603 q 446 747 303 747 q 631 710 558 747 l 701 799 l 804 799 l 693 658 q 750 471 750 590 q 713 238 750 350 q 592 55 676 126 q 367 -17 508 -17 q 183 19 256 -17 l 114 -68 l 11 -68 m 371 85 q 513 135 460 85 q 592 261 565 186 q 615 358 608 307 q 622 460 622 410 q 619 510 622 486 q 608 553 615 533 l 256 110 q 371 85 296 85 m 204 175 l 557 618 q 442 646 514 646 q 283 578 339 646 q 207 419 228 511 q 194 344 197 382 q 190 268 190 306 q 204 175 190 211 m 444 821 l 594 1004 l 735 1004 l 736 1000 l 564 821 l 444 821 z "},"õ":{"ha":772,"x_min":31,"x_max":715,"o":"m 328 -17 q 109 60 188 -17 q 31 272 31 136 q 38 374 31 308 q 160 655 65 563 q 417 747 254 747 q 637 672 558 747 q 715 463 715 597 q 713 414 715 439 q 707 357 710 389 q 585 76 679 168 q 328 -17 490 -17 m 333 86 q 503 154 443 86 q 585 374 563 222 q 593 476 593 432 q 546 602 592 558 q 411 646 500 646 q 242 577 301 646 q 160 357 182 508 q 154 301 156 328 q 153 254 153 275 q 200 129 156 172 q 333 86 244 86 m 215 860 q 260 961 225 918 q 358 1004 296 1004 q 460 983 417 1004 q 557 961 504 961 q 604 1004 593 961 l 694 1004 q 649 903 685 946 q 550 860 613 860 q 448 881 492 860 q 351 903 404 903 q 304 860 315 903 l 215 860 z "},"œ":{"ha":1311,"x_min":29,"x_max":1258,"o":"m 333 -17 q 29 257 29 -17 q 66 490 29 378 q 186 675 103 603 q 413 747 269 747 q 683 613 617 747 q 803 710 731 674 q 972 747 875 747 q 1258 496 1258 747 q 1247 393 1258 453 l 1236 332 l 707 332 q 703 304 704 317 q 703 279 703 292 q 897 85 703 85 q 1029 122 969 85 q 1103 249 1089 160 l 1222 249 q 1109 49 1200 115 q 900 -17 1018 -17 q 613 121 682 -17 q 498 21 567 58 q 333 -17 429 -17 m 338 85 q 502 159 446 85 q 578 333 558 233 q 586 396 583 364 q 589 460 589 428 q 408 646 589 646 q 240 567 296 646 q 167 383 183 488 q 159 326 161 356 q 157 268 157 296 q 338 85 157 85 m 725 433 l 1129 433 q 1134 461 1133 447 q 1135 488 1135 475 q 1089 609 1135 572 q 968 646 1043 646 q 725 433 776 646 z "},"p":{"ha":772,"x_min":-29,"x_max":717,"o":"m -29 -240 l 142 731 l 232 731 l 232 632 l 240 632 q 469 747 328 747 q 650 679 583 747 q 717 458 717 611 q 670 207 717 314 q 544 42 624 100 q 367 -17 465 -17 q 237 10 288 -17 q 158 83 186 36 l 150 83 l 93 -240 l -29 -240 m 350 85 q 483 136 429 85 q 563 273 536 188 q 589 464 589 358 q 551 605 589 564 q 435 646 513 646 q 298 589 353 646 q 217 443 243 532 q 190 257 190 354 q 350 85 190 85 z "},"þ":{"ha":772,"x_min":-29,"x_max":717,"o":"m -29 -240 l 189 1004 l 311 1004 l 249 647 l 256 647 q 353 722 299 697 q 469 747 407 747 q 650 679 583 747 q 717 458 717 611 q 670 207 717 314 q 544 42 624 100 q 367 -17 465 -17 q 237 10 288 -17 q 158 83 186 36 l 150 83 l 93 -240 l -29 -240 m 350 85 q 483 136 429 85 q 563 273 536 188 q 589 464 589 358 q 551 605 589 564 q 435 646 513 646 q 298 589 353 646 q 217 443 243 532 q 190 257 190 354 q 350 85 190 85 z "},"q":{"ha":772,"x_min":29,"x_max":731,"o":"m 438 -240 l 494 83 l 486 83 q 388 10 443 36 q 260 -17 333 -17 q 91 47 153 -17 q 29 249 29 111 q 73 510 29 397 q 196 685 117 622 q 378 747 275 747 q 599 632 540 747 l 607 632 l 639 731 l 731 731 l 560 -240 l 438 -240 m 306 85 q 444 140 389 85 q 526 281 499 194 q 554 461 554 367 q 404 646 554 646 q 265 592 319 646 q 183 450 210 539 q 156 253 156 361 q 192 123 156 161 q 306 85 228 85 z "},"r":{"ha":463,"x_min":18,"x_max":501,"o":"m 18 0 l 147 731 l 240 731 l 235 621 l 243 621 q 316 707 269 667 q 438 747 363 747 q 484 742 467 747 q 501 736 501 736 l 481 618 l 429 618 q 297 573 360 618 q 214 418 233 528 l 140 0 l 18 0 z "},"ŕ":{"ha":463,"x_min":18,"x_max":543,"o":"m 18 0 l 147 731 l 240 731 l 235 621 l 243 621 q 316 707 269 667 q 438 747 363 747 q 484 742 467 747 q 501 736 501 736 l 481 618 l 429 618 q 297 573 360 618 q 214 418 233 528 l 140 0 l 18 0 m 251 821 l 401 1004 l 542 1004 l 543 1000 l 371 821 l 251 821 z "},"ř":{"ha":463,"x_min":18,"x_max":549,"o":"m 18 0 l 147 731 l 240 731 l 235 621 l 243 621 q 316 707 269 667 q 438 747 363 747 q 484 742 467 747 q 501 736 501 736 l 481 618 l 429 618 q 297 573 360 618 q 214 418 233 528 l 140 0 l 18 0 m 253 817 l 139 1004 l 258 1004 l 321 894 l 418 1004 l 549 1004 l 369 817 l 253 817 z "},"ŗ":{"ha":463,"x_min":-40,"x_max":501,"o":"m 18 0 l 147 731 l 240 731 l 235 621 l 243 621 q 316 707 269 667 q 438 747 363 747 q 484 742 467 747 q 501 736 501 736 l 481 618 l 429 618 q 297 573 360 618 q 214 418 233 528 l 140 0 l 18 0 m -40 -319 l 32 -207 l -17 -207 l 6 -81 l 128 -81 l 107 -197 l 25 -319 l -40 -319 z "},"ȑ":{"ha":463,"x_min":18,"x_max":501,"o":"m 18 0 l 147 731 l 240 731 l 235 621 l 243 621 q 316 707 269 667 q 438 747 363 747 q 484 742 467 747 q 501 736 501 736 l 481 618 l 429 618 q 297 573 360 618 q 214 418 233 528 l 140 0 l 18 0 m 375 821 l 290 1000 l 293 1004 l 428 1004 l 481 821 l 375 821 m 182 821 l 97 1000 l 100 1004 l 235 1004 l 288 821 l 182 821 z "},"ṛ":{"ha":463,"x_min":-24,"x_max":501,"o":"m 18 0 l 147 731 l 240 731 l 235 621 l 243 621 q 316 707 269 667 q 438 747 363 747 q 484 742 467 747 q 501 736 501 736 l 481 618 l 429 618 q 297 573 360 618 q 214 418 233 528 l 140 0 l 18 0 z "},"ȓ":{"ha":463,"x_min":18,"x_max":519,"o":"m 18 0 l 147 731 l 240 731 l 235 621 l 243 621 q 316 707 269 667 q 438 747 363 747 q 484 742 467 747 q 501 736 501 736 l 481 618 l 429 618 q 297 573 360 618 q 214 418 233 528 l 140 0 l 18 0 m 113 842 q 171 951 124 899 q 343 1004 218 1004 q 480 962 440 1004 q 519 867 519 919 q 517 842 519 858 l 432 842 q 414 890 433 864 q 328 915 394 915 q 234 890 261 915 q 197 842 207 864 l 113 842 z "},"s":{"ha":694,"x_min":1,"x_max":649,"o":"m 294 -17 q 69 38 136 -17 q 1 164 1 92 q 6 207 1 186 q 11 228 11 228 l 132 228 q 126 190 126 207 q 172 108 126 133 q 285 83 217 83 q 418 115 361 83 q 475 204 475 146 q 435 278 475 253 q 337 319 396 303 q 219 354 278 335 q 122 410 161 374 q 82 511 82 446 q 169 683 82 619 q 385 747 256 747 q 583 698 517 747 q 649 578 649 649 q 645 546 649 564 q 639 521 642 528 l 519 521 q 523 537 522 529 q 524 553 524 544 q 494 618 524 590 q 388 646 464 646 q 245 606 278 646 q 213 539 213 567 q 252 476 213 497 q 351 439 292 454 q 469 403 410 424 q 567 345 528 383 q 607 238 607 307 q 512 44 607 104 q 294 -17 417 -17 z "},"ś":{"ha":694,"x_min":1,"x_max":658,"o":"m 294 -17 q 69 38 136 -17 q 1 164 1 92 q 6 207 1 186 q 11 228 11 228 l 132 228 q 126 190 126 207 q 172 108 126 133 q 285 83 217 83 q 418 115 361 83 q 475 204 475 146 q 435 278 475 253 q 337 319 396 303 q 219 354 278 335 q 122 410 161 374 q 82 511 82 446 q 169 683 82 619 q 385 747 256 747 q 583 698 517 747 q 649 578 649 649 q 645 546 649 564 q 639 521 642 528 l 519 521 q 523 537 522 529 q 524 553 524 544 q 494 618 524 590 q 388 646 464 646 q 245 606 278 646 q 213 539 213 567 q 252 476 213 497 q 351 439 292 454 q 469 403 410 424 q 567 345 528 383 q 607 238 607 307 q 512 44 607 104 q 294 -17 417 -17 m 367 821 l 517 1004 l 657 1004 l 658 1000 l 486 821 l 367 821 z "},"ꞌ":{"ha":217,"x_min":54,"x_max":283,"o":"m 54 400 l 158 1004 l 283 1004 l 250 811 l 121 400 l 54 400 z "},"š":{"ha":694,"x_min":1,"x_max":664,"o":"m 294 -17 q 69 38 136 -17 q 1 164 1 92 q 6 207 1 186 q 11 228 11 228 l 132 228 q 126 190 126 207 q 172 108 126 133 q 285 83 217 83 q 418 115 361 83 q 475 204 475 146 q 435 278 475 253 q 337 319 396 303 q 219 354 278 335 q 122 410 161 374 q 82 511 82 446 q 169 683 82 619 q 385 747 256 747 q 583 698 517 747 q 649 578 649 649 q 645 546 649 564 q 639 521 642 528 l 519 521 q 523 537 522 529 q 524 553 524 544 q 494 618 524 590 q 388 646 464 646 q 245 606 278 646 q 213 539 213 567 q 252 476 213 497 q 351 439 292 454 q 469 403 410 424 q 567 345 528 383 q 607 238 607 307 q 512 44 607 104 q 294 -17 417 -17 m 368 817 l 254 1004 l 374 1004 l 436 894 l 533 1004 l 664 1004 l 485 817 l 368 817 z "},"ş":{"ha":694,"x_min":1,"x_max":649,"o":"m 294 -17 q 69 38 136 -17 q 1 164 1 92 q 6 207 1 186 q 11 228 11 228 l 132 228 q 126 190 126 207 q 172 108 126 133 q 285 83 217 83 q 418 115 361 83 q 475 204 475 146 q 435 278 475 253 q 337 319 396 303 q 219 354 278 335 q 122 410 161 374 q 82 511 82 446 q 169 683 82 619 q 385 747 256 747 q 583 698 517 747 q 649 578 649 649 q 645 546 649 564 q 639 521 642 528 l 519 521 q 523 537 522 529 q 524 553 524 544 q 494 618 524 590 q 388 646 464 646 q 245 606 278 646 q 213 539 213 567 q 252 476 213 497 q 351 439 292 454 q 469 403 410 424 q 567 345 528 383 q 607 238 607 307 q 512 44 607 104 q 294 -17 417 -17 m 247 -253 q 104 -242 167 -253 l 117 -174 l 256 -174 q 318 -132 318 -174 q 269 -107 318 -107 l 199 -107 l 243 15 l 329 15 l 306 -50 q 386 -69 353 -50 q 419 -131 419 -87 q 393 -208 419 -182 q 327 -244 367 -235 q 247 -253 288 -253 z "},"ŝ":{"ha":694,"x_min":1,"x_max":649,"o":"m 294 -17 q 69 38 136 -17 q 1 164 1 92 q 6 207 1 186 q 11 228 11 228 l 132 228 q 126 190 126 207 q 172 108 126 133 q 285 83 217 83 q 418 115 361 83 q 475 204 475 146 q 435 278 475 253 q 337 319 396 303 q 219 354 278 335 q 122 410 161 374 q 82 511 82 446 q 169 683 82 619 q 385 747 256 747 q 583 698 517 747 q 649 578 649 649 q 645 546 649 564 q 639 521 642 528 l 519 521 q 523 537 522 529 q 524 553 524 544 q 494 618 524 590 q 388 646 464 646 q 245 606 278 646 q 213 539 213 567 q 252 476 213 497 q 351 439 292 454 q 469 403 410 424 q 567 345 528 383 q 607 238 607 307 q 512 44 607 104 q 294 -17 417 -17 m 215 817 l 394 1004 l 511 1004 l 625 817 l 506 817 l 446 926 l 346 817 l 215 817 z "},"ș":{"ha":694,"x_min":1,"x_max":649,"o":"m 294 -17 q 69 38 136 -17 q 1 164 1 92 q 6 207 1 186 q 11 228 11 228 l 132 228 q 126 190 126 207 q 172 108 126 133 q 285 83 217 83 q 418 115 361 83 q 475 204 475 146 q 435 278 475 253 q 337 319 396 303 q 219 354 278 335 q 122 410 161 374 q 82 511 82 446 q 169 683 82 619 q 385 747 256 747 q 583 698 517 747 q 649 578 649 649 q 645 546 649 564 q 639 521 642 528 l 519 521 q 523 537 522 529 q 524 553 524 544 q 494 618 524 590 q 388 646 464 646 q 245 606 278 646 q 213 539 213 567 q 252 476 213 497 q 351 439 292 454 q 469 403 410 424 q 567 345 528 383 q 607 238 607 307 q 512 44 607 104 q 294 -17 417 -17 m 164 -319 l 236 -207 l 188 -207 l 210 -81 l 332 -81 l 311 -197 l 229 -319 l 164 -319 z "},"ṣ":{"ha":694,"x_min":1,"x_max":649,"o":"m 294 -17 q 69 38 136 -17 q 1 164 1 92 q 6 207 1 186 q 11 228 11 228 l 132 228 q 126 190 126 207 q 172 108 126 133 q 285 83 217 83 q 418 115 361 83 q 475 204 475 146 q 435 278 475 253 q 337 319 396 303 q 219 354 278 335 q 122 410 161 374 q 82 511 82 446 q 169 683 82 619 q 385 747 256 747 q 583 698 517 747 q 649 578 649 649 q 645 546 649 564 q 639 521 642 528 l 519 521 q 523 537 522 529 q 524 553 524 544 q 494 618 524 590 q 388 646 464 646 q 245 606 278 646 q 213 539 213 567 q 252 476 213 497 q 351 439 292 454 q 469 403 410 424 q 567 345 528 383 q 607 238 607 307 q 512 44 607 104 q 294 -17 417 -17 z "},"ß":{"ha":849,"x_min":8,"x_max":826,"o":"m 8 0 l 133 717 q 182 853 147 796 q 267 946 217 910 q 386 1003 319 985 q 526 1021 453 1021 q 743 962 660 1021 q 826 796 826 903 q 770 647 826 718 q 619 549 714 575 l 619 543 q 735 463 692 519 q 779 324 779 406 q 727 155 779 228 q 595 41 675 82 q 433 0 515 0 l 247 0 l 265 103 l 424 103 q 583 167 510 103 q 656 317 656 231 q 606 440 656 393 q 476 486 556 486 l 332 486 l 350 588 l 481 588 q 633 644 567 588 q 700 775 700 701 q 655 880 700 840 q 521 919 610 919 q 344 869 414 919 q 257 719 275 818 l 131 0 l 8 0 z "},"ſ":{"ha":386,"x_min":-140,"x_max":479,"o":"m -39 -253 q -94 -248 -67 -253 q -140 -236 -122 -243 l -125 -151 l -53 -151 q 25 -85 14 -151 l 151 629 l 44 629 l 63 731 l 169 731 l 190 847 q 238 963 200 910 q 378 1015 275 1015 q 433 1010 406 1015 q 479 999 461 1006 l 464 914 l 392 914 q 313 847 324 914 l 147 -85 q 100 -200 136 -147 q -39 -253 64 -253 z "},"ə":{"ha":772,"x_min":42,"x_max":729,"o":"m 307 -17 q 110 52 179 -17 q 42 246 42 121 q 50 338 42 289 l 61 399 l 599 399 q 603 464 603 433 q 424 646 603 646 q 276 608 342 646 q 196 482 211 571 l 76 482 q 215 697 101 629 q 447 747 306 747 q 656 674 583 747 q 729 468 729 601 q 693 254 729 369 q 590 75 657 139 q 307 -17 494 -17 m 328 85 q 485 134 422 85 q 578 297 547 183 l 171 297 q 164 232 164 258 q 208 118 164 151 q 328 85 251 85 z "},"t":{"ha":386,"x_min":57,"x_max":410,"o":"m 188 -15 q 85 19 114 -15 q 57 100 57 53 q 60 138 57 113 q 69 190 64 163 l 146 629 l 57 629 l 75 731 l 164 731 l 200 933 l 333 933 l 286 731 l 410 731 l 392 629 l 268 629 l 183 150 q 182 139 182 144 q 182 132 182 133 q 228 85 182 85 l 296 85 l 282 4 q 237 -10 264 -4 q 188 -15 210 -15 z "},"ŧ":{"ha":386,"x_min":10,"x_max":410,"o":"m 10 365 l 25 451 l 360 451 l 344 365 l 10 365 m 188 -15 q 85 19 114 -15 q 57 100 57 53 q 60 138 57 113 q 69 190 64 163 l 146 629 l 57 629 l 75 731 l 164 731 l 200 933 l 333 933 l 286 731 l 410 731 l 392 629 l 268 629 l 183 150 q 182 139 182 144 q 182 132 182 133 q 228 85 182 85 l 296 85 l 282 4 q 237 -10 264 -4 q 188 -15 210 -15 z "},"ť":{"ha":521,"x_min":57,"x_max":626,"o":"m 460 732 l 533 878 l 486 878 l 508 1004 l 626 1004 l 606 888 l 521 732 l 460 732 m 188 -15 q 85 19 114 -15 q 57 100 57 53 q 60 138 57 113 q 69 190 64 163 l 146 629 l 57 629 l 75 731 l 164 731 l 200 933 l 333 933 l 286 731 l 410 731 l 392 629 l 268 629 l 183 150 q 182 139 182 144 q 182 132 182 133 q 228 85 182 85 l 296 85 l 282 4 q 237 -10 264 -4 q 188 -15 210 -15 z "},"ţ":{"ha":386,"x_min":-50,"x_max":410,"o":"m 188 -15 q 85 19 114 -15 q 57 100 57 53 q 60 138 57 113 q 69 190 64 163 l 146 629 l 57 629 l 75 731 l 164 731 l 200 933 l 333 933 l 286 731 l 410 731 l 392 629 l 268 629 l 183 150 q 182 139 182 144 q 182 132 182 133 q 228 85 182 85 l 296 85 l 282 4 q 237 -10 264 -4 q 188 -15 210 -15 m 93 -253 q -50 -242 13 -253 l -37 -174 l 101 -174 q 164 -132 164 -174 q 115 -107 164 -107 l 44 -107 l 89 15 l 175 15 l 151 -50 q 232 -69 199 -50 q 265 -131 265 -87 q 239 -208 265 -182 q 173 -244 213 -235 q 93 -253 133 -253 z "},"ț":{"ha":386,"x_min":10,"x_max":410,"o":"m 188 -15 q 85 19 114 -15 q 57 100 57 53 q 60 138 57 113 q 69 190 64 163 l 146 629 l 57 629 l 75 731 l 164 731 l 200 933 l 333 933 l 286 731 l 410 731 l 392 629 l 268 629 l 183 150 q 182 139 182 144 q 182 132 182 133 q 228 85 182 85 l 296 85 l 282 4 q 237 -10 264 -4 q 188 -15 210 -15 m 10 -319 l 82 -207 l 33 -207 l 56 -81 l 178 -81 l 157 -197 l 75 -319 l 10 -319 z "},"ṭ":{"ha":386,"x_min":26,"x_max":410,"o":"m 188 -15 q 85 19 114 -15 q 57 100 57 53 q 60 138 57 113 q 69 190 64 163 l 146 629 l 57 629 l 75 731 l 164 731 l 200 933 l 333 933 l 286 731 l 410 731 l 392 629 l 268 629 l 183 150 q 182 139 182 144 q 182 132 182 133 q 228 85 182 85 l 296 85 l 282 4 q 237 -10 264 -4 q 188 -15 210 -15 z "},"u":{"ha":772,"x_min":47,"x_max":732,"o":"m 265 -17 q 106 22 164 -17 q 47 156 47 61 q 50 199 47 175 q 57 246 53 222 l 142 731 l 264 731 l 181 254 q 176 214 178 233 q 174 181 174 194 q 204 105 174 125 q 282 85 235 85 q 441 145 365 85 q 536 313 517 206 l 610 731 l 732 731 l 603 0 l 514 0 l 514 99 l 504 99 q 397 15 463 47 q 265 -17 332 -17 z "},"ú":{"ha":772,"x_min":47,"x_max":732,"o":"m 265 -17 q 106 22 164 -17 q 47 156 47 61 q 50 199 47 175 q 57 246 53 222 l 142 731 l 264 731 l 181 254 q 176 214 178 233 q 174 181 174 194 q 204 105 174 125 q 282 85 235 85 q 441 145 365 85 q 536 313 517 206 l 610 731 l 732 731 l 603 0 l 514 0 l 514 99 l 504 99 q 397 15 463 47 q 265 -17 332 -17 m 393 821 l 543 1004 l 683 1004 l 685 1000 l 513 821 l 393 821 z "},"ŭ":{"ha":772,"x_min":47,"x_max":732,"o":"m 265 -17 q 106 22 164 -17 q 47 156 47 61 q 50 199 47 175 q 57 246 53 222 l 142 731 l 264 731 l 181 254 q 176 214 178 233 q 174 181 174 194 q 204 105 174 125 q 282 85 235 85 q 441 145 365 85 q 536 313 517 206 l 610 731 l 732 731 l 603 0 l 514 0 l 514 99 l 504 99 q 397 15 463 47 q 265 -17 332 -17 m 454 842 q 308 882 347 842 q 268 972 268 922 q 271 1004 268 993 l 356 1004 q 373 956 357 981 q 453 931 389 931 q 551 956 518 931 q 590 1004 583 981 l 675 1004 q 652 942 669 974 q 604 889 635 911 q 540 855 578 868 q 454 842 503 842 z "},"ǔ":{"ha":772,"x_min":47,"x_max":732,"o":"m 265 -17 q 106 22 164 -17 q 47 156 47 61 q 50 199 47 175 q 57 246 53 222 l 142 731 l 264 731 l 181 254 q 176 214 178 233 q 174 181 174 194 q 204 105 174 125 q 282 85 235 85 q 441 145 365 85 q 536 313 517 206 l 610 731 l 732 731 l 603 0 l 514 0 l 514 99 l 504 99 q 397 15 463 47 q 265 -17 332 -17 m 394 817 l 281 1004 l 400 1004 l 463 894 l 560 1004 l 690 1004 l 511 817 l 394 817 z "},"û":{"ha":772,"x_min":47,"x_max":732,"o":"m 265 -17 q 106 22 164 -17 q 47 156 47 61 q 50 199 47 175 q 57 246 53 222 l 142 731 l 264 731 l 181 254 q 176 214 178 233 q 174 181 174 194 q 204 105 174 125 q 282 85 235 85 q 441 145 365 85 q 536 313 517 206 l 610 731 l 732 731 l 603 0 l 514 0 l 514 99 l 504 99 q 397 15 463 47 q 265 -17 332 -17 m 242 817 l 421 1004 l 538 1004 l 651 817 l 532 817 l 472 926 l 372 817 l 242 817 z "},"ȕ":{"ha":772,"x_min":47,"x_max":732,"o":"m 265 -17 q 106 22 164 -17 q 47 156 47 61 q 50 199 47 175 q 57 246 53 222 l 142 731 l 264 731 l 181 254 q 176 214 178 233 q 174 181 174 194 q 204 105 174 125 q 282 85 235 85 q 441 145 365 85 q 536 313 517 206 l 610 731 l 732 731 l 603 0 l 514 0 l 514 99 l 504 99 q 397 15 463 47 q 265 -17 332 -17 m 517 821 l 432 1000 l 435 1004 l 569 1004 l 622 821 l 517 821 m 324 821 l 239 1000 l 242 1004 l 376 1004 l 429 821 l 324 821 z "},"ü":{"ha":772,"x_min":47,"x_max":732,"o":"m 265 -17 q 106 22 164 -17 q 47 156 47 61 q 50 199 47 175 q 57 246 53 222 l 142 731 l 264 731 l 181 254 q 176 214 178 233 q 174 181 174 194 q 204 105 174 125 q 282 85 235 85 q 441 145 365 85 q 536 313 517 206 l 610 731 l 732 731 l 603 0 l 514 0 l 514 99 l 504 99 q 397 15 463 47 q 265 -17 332 -17 m 532 872 l 556 1004 l 676 1004 l 653 872 l 532 872 m 272 872 l 296 1004 l 417 1004 l 393 872 l 272 872 z "},"ǘ":{"ha":772,"x_min":47,"x_max":732,"o":"m 265 -17 q 106 22 164 -17 q 47 156 47 61 q 50 199 47 175 q 57 246 53 222 l 142 731 l 264 731 l 181 254 q 176 214 178 233 q 174 181 174 194 q 204 105 174 125 q 282 85 235 85 q 441 145 365 85 q 536 313 517 206 l 610 731 l 732 731 l 603 0 l 514 0 l 514 99 l 504 99 q 397 15 463 47 q 265 -17 332 -17 m 532 872 l 556 1004 l 676 1004 l 653 872 l 532 872 m 272 872 l 296 1004 l 417 1004 l 393 872 l 272 872 m 435 1053 l 585 1236 l 725 1236 l 726 1232 l 554 1053 l 435 1053 z "},"ǚ":{"ha":772,"x_min":47,"x_max":732,"o":"m 265 -17 q 106 22 164 -17 q 47 156 47 61 q 50 199 47 175 q 57 246 53 222 l 142 731 l 264 731 l 181 254 q 176 214 178 233 q 174 181 174 194 q 204 105 174 125 q 282 85 235 85 q 441 145 365 85 q 536 313 517 206 l 610 731 l 732 731 l 603 0 l 514 0 l 514 99 l 504 99 q 397 15 463 47 q 265 -17 332 -17 m 532 872 l 556 1004 l 676 1004 l 653 872 l 532 872 m 272 872 l 296 1004 l 417 1004 l 393 872 l 272 872 m 436 1049 l 322 1236 l 442 1236 l 504 1126 l 601 1236 l 732 1236 l 553 1049 l 436 1049 z "},"ǜ":{"ha":772,"x_min":47,"x_max":732,"o":"m 265 -17 q 106 22 164 -17 q 47 156 47 61 q 50 199 47 175 q 57 246 53 222 l 142 731 l 264 731 l 181 254 q 176 214 178 233 q 174 181 174 194 q 204 105 174 125 q 282 85 235 85 q 441 145 365 85 q 536 313 517 206 l 610 731 l 732 731 l 603 0 l 514 0 l 514 99 l 504 99 q 397 15 463 47 q 265 -17 332 -17 m 532 872 l 556 1004 l 676 1004 l 653 872 l 532 872 m 272 872 l 296 1004 l 417 1004 l 393 872 l 272 872 m 443 1053 l 325 1232 l 326 1236 l 460 1236 l 547 1053 l 443 1053 z "},"ǖ":{"ha":772,"x_min":47,"x_max":735,"o":"m 265 -17 q 106 22 164 -17 q 47 156 47 61 q 50 199 47 175 q 57 246 53 222 l 142 731 l 264 731 l 181 254 q 176 214 178 233 q 174 181 174 194 q 204 105 174 125 q 282 85 235 85 q 441 145 365 85 q 536 313 517 206 l 610 731 l 732 731 l 603 0 l 514 0 l 514 99 l 504 99 q 397 15 463 47 q 265 -17 332 -17 m 532 872 l 556 1004 l 676 1004 l 653 872 l 532 872 m 272 872 l 296 1004 l 417 1004 l 393 872 l 272 872 m 293 1103 l 311 1203 l 735 1203 l 717 1103 l 293 1103 z "},"ụ":{"ha":772,"x_min":47,"x_max":732,"o":"m 265 -17 q 106 22 164 -17 q 47 156 47 61 q 50 199 47 175 q 57 246 53 222 l 142 731 l 264 731 l 181 254 q 176 214 178 233 q 174 181 174 194 q 204 105 174 125 q 282 85 235 85 q 441 145 365 85 q 536 313 517 206 l 610 731 l 732 731 l 603 0 l 514 0 l 514 99 l 504 99 q 397 15 463 47 q 265 -17 332 -17 z "},"ù":{"ha":772,"x_min":47,"x_max":732,"o":"m 265 -17 q 106 22 164 -17 q 47 156 47 61 q 50 199 47 175 q 57 246 53 222 l 142 731 l 264 731 l 181 254 q 176 214 178 233 q 174 181 174 194 q 204 105 174 125 q 282 85 235 85 q 441 145 365 85 q 536 313 517 206 l 610 731 l 732 731 l 603 0 l 514 0 l 514 99 l 504 99 q 397 15 463 47 q 265 -17 332 -17 m 401 821 l 283 1000 l 285 1004 l 418 1004 l 506 821 l 401 821 z "},"ủ":{"ha":772,"x_min":47,"x_max":732,"o":"m 265 -17 q 106 22 164 -17 q 47 156 47 61 q 50 199 47 175 q 57 246 53 222 l 142 731 l 264 731 l 181 254 q 176 214 178 233 q 174 181 174 194 q 204 105 174 125 q 282 85 235 85 q 441 145 365 85 q 536 313 517 206 l 610 731 l 732 731 l 603 0 l 514 0 l 514 99 l 504 99 q 397 15 463 47 q 265 -17 332 -17 m 415 821 l 431 906 l 449 906 q 493 936 493 906 q 454 956 493 956 l 371 956 l 381 1010 q 483 1021 429 1021 q 558 1008 521 1021 q 596 953 596 994 q 566 885 596 907 q 500 860 536 863 l 493 821 l 415 821 z "},"ư":{"ha":772,"x_min":47,"x_max":922,"o":"m 265 -17 q 106 22 164 -17 q 47 156 47 61 q 50 199 47 175 q 57 246 53 222 l 142 731 l 264 731 l 181 254 q 176 214 178 233 q 174 181 174 194 q 204 105 174 125 q 282 85 235 85 q 441 145 365 85 q 536 313 517 206 l 610 731 l 732 731 l 603 0 l 514 0 l 514 99 l 504 99 q 397 15 463 47 q 265 -17 332 -17 m 611 653 l 611 731 q 819 910 793 750 l 910 929 q 817 738 892 810 q 611 653 742 667 m 743 854 l 769 1004 l 922 1004 l 910 929 l 839 854 l 743 854 z "},"ứ":{"ha":772,"x_min":47,"x_max":922,"o":"m 265 -17 q 106 22 164 -17 q 47 156 47 61 q 50 199 47 175 q 57 246 53 222 l 142 731 l 264 731 l 181 254 q 176 214 178 233 q 174 181 174 194 q 204 105 174 125 q 282 85 235 85 q 441 145 365 85 q 536 313 517 206 l 610 731 l 732 731 l 603 0 l 514 0 l 514 99 l 504 99 q 397 15 463 47 q 265 -17 332 -17 m 611 653 l 611 731 q 819 910 793 750 l 910 929 q 817 738 892 810 q 611 653 742 667 m 743 854 l 769 1004 l 922 1004 l 910 929 l 839 854 l 743 854 m 393 821 l 543 1004 l 683 1004 l 685 1000 l 513 821 l 393 821 z "},"ự":{"ha":772,"x_min":47,"x_max":922,"o":"m 265 -17 q 106 22 164 -17 q 47 156 47 61 q 50 199 47 175 q 57 246 53 222 l 142 731 l 264 731 l 181 254 q 176 214 178 233 q 174 181 174 194 q 204 105 174 125 q 282 85 235 85 q 441 145 365 85 q 536 313 517 206 l 610 731 l 732 731 l 603 0 l 514 0 l 514 99 l 504 99 q 397 15 463 47 q 265 -17 332 -17 m 611 653 l 611 731 q 819 910 793 750 l 910 929 q 817 738 892 810 q 611 653 742 667 m 743 854 l 769 1004 l 922 1004 l 910 929 l 839 854 l 743 854 z "},"ừ":{"ha":772,"x_min":47,"x_max":922,"o":"m 265 -17 q 106 22 164 -17 q 47 156 47 61 q 50 199 47 175 q 57 246 53 222 l 142 731 l 264 731 l 181 254 q 176 214 178 233 q 174 181 174 194 q 204 105 174 125 q 282 85 235 85 q 441 145 365 85 q 536 313 517 206 l 610 731 l 732 731 l 603 0 l 514 0 l 514 99 l 504 99 q 397 15 463 47 q 265 -17 332 -17 m 611 653 l 611 731 q 819 910 793 750 l 910 929 q 817 738 892 810 q 611 653 742 667 m 743 854 l 769 1004 l 922 1004 l 910 929 l 839 854 l 743 854 m 401 821 l 283 1000 l 285 1004 l 418 1004 l 506 821 l 401 821 z "},"ử":{"ha":772,"x_min":47,"x_max":922,"o":"m 265 -17 q 106 22 164 -17 q 47 156 47 61 q 50 199 47 175 q 57 246 53 222 l 142 731 l 264 731 l 181 254 q 176 214 178 233 q 174 181 174 194 q 204 105 174 125 q 282 85 235 85 q 441 145 365 85 q 536 313 517 206 l 610 731 l 732 731 l 603 0 l 514 0 l 514 99 l 504 99 q 397 15 463 47 q 265 -17 332 -17 m 611 653 l 611 731 q 819 910 793 750 l 910 929 q 817 738 892 810 q 611 653 742 667 m 743 854 l 769 1004 l 922 1004 l 910 929 l 839 854 l 743 854 m 415 821 l 431 906 l 449 906 q 493 936 493 906 q 454 956 493 956 l 371 956 l 381 1010 q 483 1021 429 1021 q 558 1008 521 1021 q 596 953 596 994 q 566 885 596 907 q 500 860 536 863 l 493 821 l 415 821 z "},"ữ":{"ha":772,"x_min":47,"x_max":922,"o":"m 265 -17 q 106 22 164 -17 q 47 156 47 61 q 50 199 47 175 q 57 246 53 222 l 142 731 l 264 731 l 181 254 q 176 214 178 233 q 174 181 174 194 q 204 105 174 125 q 282 85 235 85 q 441 145 365 85 q 536 313 517 206 l 610 731 l 732 731 l 603 0 l 514 0 l 514 99 l 504 99 q 397 15 463 47 q 265 -17 332 -17 m 611 653 l 611 731 q 819 910 793 750 l 910 929 q 817 738 892 810 q 611 653 742 667 m 743 854 l 769 1004 l 922 1004 l 910 929 l 839 854 l 743 854 m 233 860 q 278 961 243 918 q 376 1004 314 1004 q 478 983 435 1004 q 575 961 522 961 q 622 1004 611 961 l 713 1004 q 667 903 703 946 q 568 860 631 860 q 466 881 510 860 q 369 903 422 903 q 322 860 333 903 l 233 860 z "},"ű":{"ha":772,"x_min":47,"x_max":757,"o":"m 265 -17 q 106 22 164 -17 q 47 156 47 61 q 50 199 47 175 q 57 246 53 222 l 142 731 l 264 731 l 181 254 q 176 214 178 233 q 174 181 174 194 q 204 105 174 125 q 282 85 235 85 q 441 145 365 85 q 536 313 517 206 l 610 731 l 732 731 l 603 0 l 514 0 l 514 99 l 504 99 q 397 15 463 47 q 265 -17 332 -17 m 497 821 l 615 1004 l 756 1004 l 757 1000 l 608 821 l 497 821 m 299 821 l 417 1004 l 557 1004 l 558 1000 l 410 821 l 299 821 z "},"ȗ":{"ha":772,"x_min":47,"x_max":732,"o":"m 265 -17 q 106 22 164 -17 q 47 156 47 61 q 50 199 47 175 q 57 246 53 222 l 142 731 l 264 731 l 181 254 q 176 214 178 233 q 174 181 174 194 q 204 105 174 125 q 282 85 235 85 q 441 145 365 85 q 536 313 517 206 l 610 731 l 732 731 l 603 0 l 514 0 l 514 99 l 504 99 q 397 15 463 47 q 265 -17 332 -17 m 254 842 q 313 951 265 899 q 485 1004 360 1004 q 622 962 582 1004 q 661 867 661 919 q 658 842 661 858 l 574 842 q 556 890 575 864 q 469 915 536 915 q 376 890 403 915 q 339 842 349 864 l 254 842 z "},"ū":{"ha":772,"x_min":47,"x_max":732,"o":"m 265 -17 q 106 22 164 -17 q 47 156 47 61 q 50 199 47 175 q 57 246 53 222 l 142 731 l 264 731 l 181 254 q 176 214 178 233 q 174 181 174 194 q 204 105 174 125 q 282 85 235 85 q 441 145 365 85 q 536 313 517 206 l 610 731 l 732 731 l 603 0 l 514 0 l 514 99 l 504 99 q 397 15 463 47 q 265 -17 332 -17 m 251 871 l 269 971 l 693 971 l 675 871 l 251 871 z "},"ų":{"ha":772,"x_min":47,"x_max":732,"o":"m 474 -253 q 391 -232 431 -253 q 351 -153 351 -211 q 401 -51 351 -89 q 514 6 450 -12 l 514 99 l 504 99 q 397 15 463 47 q 265 -17 332 -17 q 106 22 164 -17 q 47 156 47 61 q 50 199 47 175 q 57 246 53 222 l 142 731 l 264 731 l 181 254 q 175 214 176 233 q 174 181 174 194 q 204 105 174 125 q 282 85 235 85 q 441 145 365 85 q 536 313 517 206 l 610 731 l 732 731 l 603 0 q 506 -53 542 -29 q 469 -119 469 -78 q 536 -162 469 -162 l 575 -162 l 563 -233 q 474 -253 513 -253 z "},"ů":{"ha":772,"x_min":47,"x_max":732,"o":"m 265 -17 q 106 22 164 -17 q 47 156 47 61 q 50 199 47 175 q 57 246 53 222 l 142 731 l 264 731 l 181 254 q 176 214 178 233 q 174 181 174 194 q 204 105 174 125 q 282 85 235 85 q 441 145 365 85 q 536 313 517 206 l 610 731 l 732 731 l 603 0 l 514 0 l 514 99 l 504 99 q 397 15 463 47 q 265 -17 332 -17 m 447 786 q 363 817 396 786 q 331 896 331 849 q 371 1008 331 964 q 485 1053 411 1053 q 569 1021 536 1053 q 601 942 601 989 q 561 830 601 874 q 447 786 521 786 m 456 849 q 516 874 494 849 q 538 932 538 899 q 476 990 538 990 q 415 965 436 990 q 394 906 394 939 q 456 849 394 849 z "},"ũ":{"ha":772,"x_min":47,"x_max":732,"o":"m 265 -17 q 106 22 164 -17 q 47 156 47 61 q 50 199 47 175 q 57 246 53 222 l 142 731 l 264 731 l 181 254 q 176 214 178 233 q 174 181 174 194 q 204 105 174 125 q 282 85 235 85 q 441 145 365 85 q 536 313 517 206 l 610 731 l 732 731 l 603 0 l 514 0 l 514 99 l 504 99 q 397 15 463 47 q 265 -17 332 -17 m 233 860 q 278 961 243 918 q 376 1004 314 1004 q 478 983 435 1004 q 575 961 522 961 q 622 1004 611 961 l 713 1004 q 667 903 703 946 q 568 860 631 860 q 466 881 510 860 q 369 903 422 903 q 322 860 333 903 l 233 860 z "},"v":{"ha":694,"x_min":68,"x_max":726,"o":"m 207 0 l 68 731 l 194 731 l 260 365 q 274 271 267 325 q 285 176 281 217 q 290 136 290 136 l 297 136 q 315 174 297 136 q 358 266 332 213 q 407 365 383 319 l 599 731 l 726 731 l 329 0 l 207 0 z "},"w":{"ha":1003,"x_min":60,"x_max":1047,"o":"m 150 0 l 60 731 l 183 731 l 222 317 q 228 256 225 297 q 233 179 231 214 q 236 144 236 144 l 243 144 q 256 181 243 144 q 285 258 269 217 q 307 317 300 300 l 476 731 l 626 731 l 654 317 q 657 256 656 297 q 660 179 658 214 q 661 144 661 144 l 668 144 q 681 178 668 144 q 711 253 694 211 q 739 317 728 294 l 924 731 l 1047 731 l 699 0 l 565 0 l 536 436 q 532 526 533 467 q 531 586 531 586 l 525 586 q 514 557 525 586 q 488 492 503 528 q 465 436 474 456 l 285 0 l 150 0 z "},"ẃ":{"ha":1003,"x_min":60,"x_max":1047,"o":"m 150 0 l 60 731 l 183 731 l 222 317 q 228 256 225 297 q 233 179 231 214 q 236 144 236 144 l 243 144 q 256 181 243 144 q 285 258 269 217 q 307 317 300 300 l 476 731 l 626 731 l 654 317 q 657 256 656 297 q 660 179 658 214 q 661 144 661 144 l 668 144 q 681 178 668 144 q 711 253 694 211 q 739 317 728 294 l 924 731 l 1047 731 l 699 0 l 565 0 l 536 436 q 532 526 533 467 q 531 586 531 586 l 525 586 q 514 557 525 586 q 488 492 503 528 q 465 436 474 456 l 285 0 l 150 0 m 507 821 l 657 1004 l 797 1004 l 799 1000 l 626 821 l 507 821 z "},"ŵ":{"ha":1003,"x_min":60,"x_max":1047,"o":"m 150 0 l 60 731 l 183 731 l 222 317 q 228 256 225 297 q 233 179 231 214 q 236 144 236 144 l 243 144 q 256 181 243 144 q 285 258 269 217 q 307 317 300 300 l 476 731 l 626 731 l 654 317 q 657 256 656 297 q 660 179 658 214 q 661 144 661 144 l 668 144 q 681 178 668 144 q 711 253 694 211 q 739 317 728 294 l 924 731 l 1047 731 l 699 0 l 565 0 l 536 436 q 532 526 533 467 q 531 586 531 586 l 525 586 q 514 557 525 586 q 488 492 503 528 q 465 436 474 456 l 285 0 l 150 0 m 356 817 l 535 1004 l 651 1004 l 765 817 l 646 817 l 586 926 l 486 817 l 356 817 z "},"ẅ":{"ha":1003,"x_min":60,"x_max":1047,"o":"m 150 0 l 60 731 l 183 731 l 222 317 q 228 256 225 297 q 233 179 231 214 q 236 144 236 144 l 243 144 q 256 181 243 144 q 285 258 269 217 q 307 317 300 300 l 476 731 l 626 731 l 654 317 q 657 256 656 297 q 660 179 658 214 q 661 144 661 144 l 668 144 q 681 178 668 144 q 711 253 694 211 q 739 317 728 294 l 924 731 l 1047 731 l 699 0 l 565 0 l 536 436 q 532 526 533 467 q 531 586 531 586 l 525 586 q 514 557 525 586 q 488 492 503 528 q 465 436 474 456 l 285 0 l 150 0 m 646 872 l 669 1004 l 790 1004 l 767 872 l 646 872 m 386 872 l 410 1004 l 531 1004 l 507 872 l 386 872 z "},"ẁ":{"ha":1003,"x_min":60,"x_max":1047,"o":"m 150 0 l 60 731 l 183 731 l 222 317 q 228 256 225 297 q 233 179 231 214 q 236 144 236 144 l 243 144 q 256 181 243 144 q 285 258 269 217 q 307 317 300 300 l 476 731 l 626 731 l 654 317 q 657 256 656 297 q 660 179 658 214 q 661 144 661 144 l 668 144 q 681 178 668 144 q 711 253 694 211 q 739 317 728 294 l 924 731 l 1047 731 l 699 0 l 565 0 l 536 436 q 532 526 533 467 q 531 586 531 586 l 525 586 q 514 557 525 586 q 488 492 503 528 q 465 436 474 456 l 285 0 l 150 0 m 515 821 l 397 1000 l 399 1004 l 532 1004 l 619 821 l 515 821 z "},"x":{"ha":694,"x_min":-67,"x_max":724,"o":"m -67 0 l 265 375 l 74 731 l 213 731 l 344 465 l 353 465 l 576 731 l 724 731 l 407 376 l 607 0 l 469 0 l 326 286 l 318 286 l 79 0 l -67 0 z "}}}
